<svg width="250" height="250" viewBox="0 0 585 525" fill="none" xmlns="http://www.w3.org/2000/svg">
<path fill-rule="evenodd" clip-rule="evenodd" d="M343.166 524.854C477.764 524.854 496.844 464.973 517.253 453.97C537.661 442.966 524.973 420.884 538.358 404.228C559.738 377.624 572.696 391.334 579.772 356.821C586.848 322.307 573.984 312.544 573.984 281.73C573.984 219.993 603.558 190.769 565.791 158.468C528.024 126.167 464.956 129.978 402.58 129.978C286.804 129.978 217.445 -28.7331 63.0273 18.882C9.81212 35.291 15.6936 57.653 27.3866 136.679C32.4642 170.996 -5.87398 214.627 0.777917 253.625C12.9267 324.849 45.0123 315.188 105.55 363.277C115.706 371.345 130.519 371.261 141.591 379.535C160.154 393.407 161.347 414.977 196.05 429.526C252.007 452.986 247.26 524.854 343.166 524.854Z" fill="#53535F"/>
<path d="M85.854 373C104.648 373 119.884 358.673 119.884 341C119.884 323.327 104.648 309 85.854 309C67.0599 309 51.8242 323.327 51.8242 341C51.8242 358.673 67.0599 373 85.854 373Z" fill="white"/>
<path d="M500.695 180C526.929 180 548.195 158.734 548.195 132.5C548.195 106.266 526.929 85 500.695 85C474.462 85 453.195 106.266 453.195 132.5C453.195 158.734 474.462 180 500.695 180Z" fill="white"/>
<path d="M352.17 519.942C428.399 519.942 490.195 467.125 490.195 401.971C490.195 336.817 428.399 284 352.17 284C275.94 284 214.145 336.817 214.145 401.971C214.145 467.125 275.94 519.942 352.17 519.942Z" fill="white"/>
<path fill-rule="evenodd" clip-rule="evenodd" d="M235.156 466.295L236.705 467.417C233.209 470.554 227.949 466.653 225 462.997C220.258 457.117 215.446 450.869 214.003 443.455C213.182 439.236 213.51 434.889 213.842 430.604L215.18 413.326C215.773 405.669 216.367 397.999 217.693 390.435C221.28 369.963 230.309 350.471 243.604 334.497L243.738 334.337C246.086 331.517 248.65 328.438 248.604 324.782C248.509 317.048 252.963 309.82 258.811 304.757C264.659 299.694 271.82 296.445 278.871 293.265C282.065 291.824 286.237 290.533 288.712 293.013C293.804 298.114 302.303 294.865 309.028 292.274C317.286 289.093 326.107 287.379 334.955 287.236C335.212 287.232 335.472 287.229 335.733 287.225H335.734C341.046 287.149 347.025 287.064 350.267 282.948C352.33 280.327 356.276 280.479 359.588 280.875L382.367 283.6C384.108 283.808 386.194 284.283 386.743 285.948C388.214 290.412 393.405 292.234 397.906 293.591C413.905 298.415 429.544 304.965 443.127 314.699C456.71 324.433 468.191 337.527 474.282 353.089C464.378 339.551 454.217 325.758 440.471 316.145C436.538 313.393 432.354 311.018 428.107 308.78C418.085 303.496 407.653 298.942 396.816 295.634C346.51 280.279 288.319 294.52 250.789 331.371C245.347 336.714 240.245 342.599 237.159 349.573L241.236 350.838C234.774 353.726 229.975 360.053 228.936 367.054C231.536 362.6 235.243 358.798 239.628 356.084C238.373 360.277 235.108 363.647 231.908 366.95C227.829 371.159 223.855 375.26 224.277 380.823C226.213 375.74 231.091 371.904 236.487 371.22C227.929 379.582 218.746 389.396 219.018 401.358C222.14 394.45 227.441 388.547 233.973 384.703L224.569 397.341C221.012 402.12 217.266 407.582 218.079 413.484C221.173 407.931 225.597 403.125 230.876 399.583C228.334 405.363 224.705 410.663 220.235 415.123C224.486 414.61 228.578 412.849 231.874 410.116C230.492 412.045 229.247 414.221 229.201 416.594C229.154 418.966 230.691 421.511 233.039 421.852C233.75 420.263 235.979 419.592 237.449 420.525C232.994 424.86 232.948 432.893 237.353 437.279C237.745 435.217 239.484 433.48 241.546 433.09C238.259 438.836 237.668 446.052 239.976 452.256C240.675 448.741 242.625 445.488 245.396 443.216C243.798 451.554 240.266 459.515 235.156 466.295ZM233.21 463.639C235.992 463.61 237.722 460.498 238.012 457.731C238.36 454.42 237.537 451.111 236.721 447.884L231.881 428.742C230.97 429.03 230.865 430.021 230.754 431.059C230.659 431.945 230.561 432.865 229.955 433.411C228.73 431.888 228.591 429.582 229.624 427.922C230.667 426.246 229.985 423.9 228.505 422.594C227.026 421.288 224.967 420.844 222.994 420.779C221.928 420.744 220.794 420.826 219.922 421.44C219.05 422.053 218.591 423.359 219.21 424.227C221.055 426.811 222.443 429.721 223.29 432.781C223.353 433.01 223.415 433.241 223.476 433.474C223.898 435.062 224.331 436.696 225.493 437.829C226.392 438.704 226.621 440.04 226.803 441.281L228.282 451.34C228.551 453.171 228.82 455.038 228.512 456.862C228.204 458.687 227.218 460.496 225.563 461.324L230.848 463.122C231.615 463.383 232.4 463.647 233.21 463.639ZM290.814 298.771C289.773 298.991 288.899 298.076 288.154 297.295L288.068 297.205C287.304 296.406 285.99 295.71 285.185 296.467C275.805 305.292 265.131 312.738 253.611 318.494C251.52 319.538 251.239 322.355 251.238 324.692C251.238 325.473 251.985 326.569 252.472 325.959C254.848 322.982 257.937 320.672 260.99 318.396C269.58 311.991 278.273 305.526 288.122 301.304C289.316 300.791 290.716 300.067 290.814 298.771ZM385.087 288.846C384.555 287.599 383.044 287.149 381.712 286.898C378.081 286.214 374.386 285.904 370.694 285.594C365.624 285.169 360.561 284.745 355.683 283.352C354.12 282.906 352.783 284.49 351.926 285.872C354.497 285.604 357.085 285.493 359.669 285.541C364.168 285.624 368.642 286.184 373.106 286.744C375.375 287.028 377.66 287.316 379.835 288.02C380.088 288.101 380.344 288.189 380.601 288.277C382.086 288.787 383.621 289.314 385.087 288.846ZM337.065 308.02C338.093 308.255 339.073 309.023 339.226 310.066C339.379 311.107 338.668 312.121 337.76 312.651C336.851 313.181 335.777 313.33 334.734 313.468L331.595 313.883C331.281 313.925 330.956 313.97 330.683 314.132C329.894 314.599 329.949 315.865 330.594 316.517C331.239 317.168 332.228 317.33 333.145 317.328C337.416 317.32 341.458 314.247 342.762 310.181C343.072 309.216 343.236 308.142 342.852 307.203C342.658 306.727 342.332 306.314 341.971 305.948C340.292 304.246 337.79 303.496 335.404 303.664C333.019 303.833 330.751 304.849 328.81 306.245C327.879 306.914 326.993 307.698 326.464 308.715C325.936 309.732 325.822 311.023 326.414 312.005C326.64 312.379 326.988 312.711 327.419 312.782C327.851 312.852 328.349 312.574 328.402 312.14C328.551 310.934 329.431 309.915 330.48 309.302C331.529 308.689 332.739 308.419 333.93 308.181C334.964 307.974 336.037 307.785 337.065 308.02ZM252.911 367.668C254.085 360.728 259.691 355.086 266.226 352.471C269.827 351.03 273.948 350.398 277.569 351.787C278.463 352.129 279.328 352.602 279.972 353.31C280.578 353.976 280.958 354.815 281.245 355.667C283.085 361.124 281.218 367.436 277.265 371.624C273.312 375.813 267.557 378.01 261.812 378.422C259.972 378.554 257.996 378.479 256.476 377.434C254.956 376.388 254.201 374.064 255.372 372.638C255.925 372.664 256.223 373.158 256.528 373.663C256.68 373.914 256.833 374.167 257.019 374.368C257.657 375.054 258.712 375.104 259.649 375.065C263.722 374.893 267.857 373.884 271.172 371.511C274.487 369.139 276.87 365.264 276.8 361.187C276.778 359.874 276.492 358.53 275.748 357.448C274.526 355.671 272.217 354.869 270.066 355.011C267.914 355.153 265.897 356.107 264.065 357.244C261.654 358.74 259.426 360.621 257.915 363.022C256.404 365.424 255.666 368.392 256.305 371.156C255.74 372.175 254.061 371.972 253.367 371.036C252.674 370.1 252.717 368.817 252.911 367.668ZM290.424 424.869C287.444 426.786 284.973 429.788 284.513 433.301C284.142 436.144 285.094 438.975 286.033 441.684C286.766 443.798 287.524 445.958 288.919 447.707C291.44 450.865 295.615 452.172 299.605 452.814C300.691 452.989 302.34 452.498 301.952 451.468C297.74 451.391 293.596 449.438 290.854 446.239C288.113 443.04 286.818 438.646 287.387 434.471C287.507 433.593 287.707 432.719 288.076 431.912C288.822 430.282 290.213 429.028 291.719 428.055C294.961 425.96 298.908 424.978 302.754 425.311C306.462 425.631 310.166 427.256 312.429 430.21C314.692 433.164 315.232 437.522 313.235 440.663C312.91 441.173 312.673 442.076 313.268 442.182C316.484 440.45 318.268 436.63 318.088 432.982C317.908 429.334 315.982 425.92 313.335 423.403C311.871 422.011 310.137 420.835 308.174 420.362C305.584 419.738 302.876 420.382 300.3 421.059C296.873 421.96 293.404 422.951 290.424 424.869ZM436.783 429.4C426.006 425.377 414.297 423.877 402.854 425.055C398.056 425.549 393.243 426.528 388.929 428.686C380.791 432.76 374.971 441.145 374.003 450.195C373.035 459.244 376.948 468.671 384.041 474.374C386.731 476.536 389.784 478.155 392.841 479.777C394.928 480.884 397.017 481.991 398.993 483.274C399.558 483.813 398.288 484.352 397.545 484.112C390.633 481.881 383.92 478.487 378.99 473.154C372.992 466.666 370.067 457.452 371.224 448.692C372.381 439.932 377.598 431.794 385.074 427.085C390.988 423.361 398.059 421.791 405.043 421.54C412.028 421.288 418.992 422.286 425.899 423.356C430.212 424.024 435.27 425.306 436.783 429.4ZM323.393 442.903C322.903 441.781 320.936 441.489 320.577 442.659C318.29 450.098 311.031 455.722 303.257 456.079C301.5 456.159 299.741 455.996 297.99 455.827C294.219 455.462 290.33 455.031 287.028 453.174C282.279 450.504 279.422 445.022 279.388 439.574C279.354 434.126 281.938 428.832 285.862 425.052C285.318 423.527 282.979 424.264 281.818 425.392C275.383 431.647 274.279 442.444 278.794 450.199C283.31 457.955 292.772 462.302 301.692 461.316C310.612 460.33 318.666 454.357 322.812 446.399C323.378 445.314 323.882 444.024 323.393 442.903ZM267.534 480.573C266.081 486.145 265.943 492.056 267.135 497.69C267.669 500.217 267.728 501.609 267.738 501.87C267.74 501.9 267.74 501.915 267.741 501.915C267.742 501.915 267.742 501.9 267.744 501.87C267.755 501.609 267.819 500.211 268.365 497.68C269.584 492.036 269.294 486.073 267.534 480.573ZM275.254 483.943C273.189 488.27 273.445 493.624 275.913 497.735C276.467 498.658 276.888 499.409 277.198 499.963C277.616 500.707 277.833 501.096 277.909 501.07C277.991 501.042 277.903 500.52 277.72 499.428C277.647 498.99 277.558 498.46 277.459 497.833L275.254 483.943ZM281.067 489.469C280.19 492.231 280.835 495.426 282.714 497.632C284.632 499.886 285.259 500.608 284.675 497.707C284.078 494.745 282.838 491.915 281.067 489.469ZM449.274 458.044C446.638 468.625 438.219 476.642 430.056 483.871C430.429 484.675 431.635 484.387 432.408 483.952C440.676 479.299 447.366 471.714 450.419 462.731C453.471 453.748 452.713 443.426 447.894 435.253C447.49 434.567 446.974 433.837 446.193 433.684C445.411 433.531 444.511 434.437 444.97 435.087C449.601 441.647 451.215 450.252 449.274 458.044ZM330.4 362.509C330.38 360.835 330.404 359.023 331.414 357.689C332.806 355.852 335.446 355.659 337.751 355.626C338.779 355.612 339.82 355.599 340.821 355.837C342.952 356.344 344.649 357.916 346.162 359.501C346.497 359.852 346.853 360.284 346.77 360.762C346.667 361.354 345.925 361.627 345.335 361.506C344.944 361.425 344.592 361.23 344.24 361.035H344.239C344.062 360.936 343.884 360.838 343.701 360.754C341.582 359.782 339.092 360.848 337.189 362.194C336.89 362.406 336.567 362.677 336.56 363.044C336.552 363.412 336.868 363.697 337.165 363.915C339.737 365.799 343.029 366.671 346.196 366.307C346.954 366.221 347.844 365.943 348.04 365.206C348.117 364.919 348.087 364.58 348.058 364.253C348.01 363.706 347.964 363.191 348.424 363.001C348.664 362.902 348.936 362.973 349.185 363.046C350.899 363.544 352.903 364.346 353.235 366.1C353.331 366.607 353.263 367.135 353.102 367.625C352.63 369.059 351.314 370.179 349.823 370.416C349.161 370.521 348.485 370.464 347.817 370.407C346.072 370.257 344.326 370.107 342.597 369.828C339.423 369.317 336.319 368.371 333.398 367.025C332.385 366.559 331.332 365.984 330.818 364.994C330.428 364.241 330.41 363.357 330.4 362.509ZM395.598 321.233C394.578 318.476 392.113 316.299 389.25 315.629C388.364 315.422 387.364 315.371 386.613 315.884C385.862 316.397 385.603 317.649 386.319 318.21C387.014 318.754 386.594 320.033 385.746 320.275C384.897 320.517 383.985 319.941 383.561 319.167C383.137 318.393 383.092 317.474 383.087 316.592C383.08 315.415 383.187 314.101 384.057 313.307C384.389 313.005 384.802 312.81 385.211 312.627C386.906 311.869 388.779 311.227 390.59 311.634C392.316 312.021 393.691 313.296 394.894 314.592C395.881 315.654 396.814 316.767 397.689 317.923C398.46 318.942 399.202 320.029 399.491 321.274C399.781 322.518 399.531 323.963 398.569 324.804C397.628 325.628 396.181 325.698 395.038 325.19C394.029 324.74 393.167 323.751 393.242 322.648C393.317 321.546 394.671 320.632 395.598 321.233ZM404.704 398.762C407.234 398.69 409.592 396.741 410.139 394.269C410.471 392.766 410.061 390.978 408.751 390.17C407.794 389.579 406.591 389.622 405.469 389.694C403.914 389.794 402.302 389.929 400.951 390.705C399.601 391.481 398.597 393.089 399.02 394.587C399.708 397.024 402.173 398.835 404.704 398.762ZM405.029 395.111C404.539 395.243 403.842 395.117 403.797 394.612C403.779 394.402 403.892 394.204 404.021 394.037C404.74 393.106 406.11 392.744 407.195 393.199C406.818 394.123 405.992 394.852 405.029 395.111ZM406.336 357.665C405.924 356.714 406.722 355.605 407.692 355.241C408.47 354.949 409.313 354.979 410.151 355.01H410.152C410.36 355.017 410.568 355.025 410.774 355.027C411.81 355.04 412.956 354.867 413.628 354.078C413.865 353.8 414.026 353.391 413.845 353.073C413.656 352.741 413.21 352.684 412.829 352.664C410.187 352.527 407.067 352.608 405.544 354.771C405.217 355.236 404.416 355.079 404.11 354.6C403.803 354.121 403.874 353.492 404.048 352.951C404.671 351.012 406.463 349.602 408.419 349.037C410.375 348.472 412.476 348.65 414.462 349.1C415.131 349.251 415.826 349.451 416.315 349.933C416.703 350.315 416.92 350.838 417.062 351.364C417.738 353.879 416.74 356.76 414.651 358.316C412.563 359.873 409.517 360.007 407.301 358.64C406.905 358.396 406.521 358.091 406.336 357.665ZM397.28 402.104C398.507 403.574 399.96 404.911 401.723 405.659C405.286 407.172 409.84 405.774 411.942 402.524C412.707 401.34 413.049 399.534 411.918 398.695C410.105 402.505 404.847 404.187 401.159 402.137C400.452 401.744 399.81 401.242 399.226 400.683C396.574 398.144 395.191 393.997 396.746 390.671C397.254 389.587 398.033 388.651 398.885 387.81C400.742 385.976 403.401 384.474 405.881 385.29C405.984 385.324 406.086 385.362 406.189 385.4C406.536 385.527 406.885 385.656 407.25 385.634C407.723 385.607 408.218 385.183 408.096 384.725C408.06 384.59 407.976 384.472 407.889 384.362C406.356 382.409 403.348 381.806 401.181 383.017C398.601 384.458 395.98 386.155 394.608 388.772C392.375 393.031 394.198 398.411 397.28 402.104ZM438.364 336.403C438.251 336.566 438.279 336.792 438.306 337.009C438.338 337.266 438.368 337.509 438.157 337.613C437.385 337.994 436.461 337.955 435.638 337.702C433.392 337.013 431.886 334.951 430.615 332.975C429.871 331.819 429.131 330.591 429.011 329.222C428.891 327.853 429.591 326.312 430.91 325.925C432.38 325.493 433.822 326.587 434.966 327.605C436.257 328.755 437.576 329.939 438.375 331.472C439.174 333.005 439.352 334.985 438.364 336.403ZM433.479 331.274C433.796 331.582 433.969 331.996 434.143 332.41C434.314 332.818 434.485 333.226 434.793 333.533C435.184 333.922 435.776 334.096 436.315 333.981C435.305 332.417 434.135 330.958 432.828 329.633C432.479 329.738 432.45 330.256 432.66 330.554C432.788 330.735 432.966 330.868 433.145 331.002C433.26 331.088 433.376 331.174 433.479 331.274ZM241.169 472.508C241.044 474.559 241.201 476.936 242.843 478.172C243.391 477.867 243.353 477.085 243.284 476.462C242.86 472.627 244.05 468.931 245.248 465.211C246.105 462.548 246.966 459.872 247.243 457.124C247.323 456.327 247.11 455.236 246.309 455.205C245.71 455.182 245.323 455.815 245.081 456.364C242.838 461.458 241.507 466.952 241.169 472.508ZM400.436 398.52C402.289 399.339 404.343 400.175 406.281 399.586C407.052 399.352 407.739 398.907 408.414 398.467C408.411 399.6 407.436 400.551 406.351 400.875C405.265 401.199 404.097 401.026 402.989 400.786C401.759 400.52 400.255 399.765 400.436 398.52ZM253.898 493.086C254.37 492.244 254.451 491.245 254.521 490.282L255.08 482.612C255.355 478.848 255.629 475.07 255.383 471.304C255.352 470.829 255.304 470.328 255.027 469.941C254.75 469.554 254.164 469.348 253.785 469.635C253.506 469.846 253.435 470.229 253.387 470.576C252.78 474.931 252.455 479.325 252.416 483.722C252.388 486.91 252.533 490.204 253.898 493.086ZM245.515 486.494C245.023 486.909 244.205 486.544 243.935 485.96C243.664 485.377 243.773 484.696 243.889 484.064C245.103 477.444 246.48 470.855 248.018 464.303C248.057 464.139 248.098 463.969 248.204 463.838C248.609 463.337 249.428 463.841 249.715 464.417C250.421 465.83 250.083 467.517 249.73 469.056L245.938 485.592C245.863 485.922 245.773 486.276 245.515 486.494ZM258.646 486.788C258.435 489.271 258.807 491.762 259.178 494.226C259.31 495.103 259.942 496.269 260.735 495.87L262.279 479.351C262.342 478.679 262.385 477.933 261.968 477.403C261.551 476.872 260.496 476.894 260.363 477.555L259.224 483.22C258.986 484.402 258.748 485.587 258.646 486.788ZM418.163 436.16C413.765 433.896 408.412 433.003 403.843 434.9C400.431 436.317 390.787 442.437 389.504 450.281C388.644 455.532 388.653 460.897 390.491 465.967L390.787 466.763C391.334 468.199 393.078 469.849 394.053 468.662C391.206 463.515 390.674 457.143 392.629 451.596C394.583 446.049 398.991 441.417 404.435 439.191C405.58 438.722 406.777 438.354 408.009 438.237C410.5 438.001 412.987 438.808 415.215 439.95C420.01 442.407 425.952 446.493 428.235 451.374C430.435 456.08 432.056 461.692 430.064 466.49C428.073 471.288 414.991 474.759 414.991 474.759L416.438 477.401C416.438 477.401 423.762 475.956 428.235 472.698C447.011 459.023 422.369 438.326 418.163 436.16Z" fill="#B5B5BF"/>
<path fill-rule="evenodd" clip-rule="evenodd" d="M86.2475 368.636C79.6065 369.348 72.5735 367.812 67.3885 363.602C63.7165 360.621 61.1365 356.473 59.3255 352.104C57.3595 347.359 56.2295 342.27 56.0025 337.14C55.9165 335.208 55.9625 333.241 56.5305 331.393C57.4645 328.351 59.7145 325.91 62.0105 323.708C66.8965 319.022 72.6395 314.746 79.3365 313.761C83.9005 313.09 88.5425 314.005 93.0095 315.155C96.5185 316.058 100.022 317.122 103.177 318.901C110.151 322.833 114.983 330.332 115.682 338.306C116.381 346.281 115.521 351.565 104.759 361.473C99.1675 365.124 92.8885 367.923 86.2475 368.636ZM97.9585 343.604C96.8815 343.942 95.8075 344.543 94.6955 344.348C92.4245 343.948 92.0175 340.832 92.5215 338.581C93.9655 332.138 98.4565 326.448 104.387 323.547C103.044 321.112 99.4785 320.933 96.9555 322.104C94.4335 323.274 92.4615 325.383 90.0225 326.718C88.8085 327.383 87.3695 327.853 86.0485 327.439C83.8755 326.759 83.0465 323.913 83.7575 321.749C84.4695 319.586 86.2445 317.972 87.9495 316.463C81.7715 316.679 75.6595 318.533 70.4025 321.785C66.2865 324.33 62.3825 328.504 62.9295 333.312C66.3315 330.574 70.3265 328.575 74.5585 327.493C75.4565 327.264 76.5835 327.148 77.1445 327.885C77.5705 328.443 77.4485 329.246 77.1755 329.893C75.8225 333.101 71.8445 334.177 69.3775 336.634C69.0535 336.956 68.7425 337.329 68.6645 337.779C68.5105 338.662 69.3515 339.467 70.2355 339.614C71.1195 339.761 72.0065 339.44 72.8445 339.123C74.5855 338.467 76.3265 337.81 78.0675 337.153C79.3285 336.677 80.8245 336.224 81.9455 336.971C83.1045 337.744 83.2135 339.502 82.5585 340.732C81.9035 341.962 80.7005 342.786 79.5425 343.562C76.7525 345.432 73.9625 347.302 71.1725 349.172C68.8365 350.738 66.2195 352.849 66.4415 355.652C66.6505 358.291 69.5535 360.085 72.1945 359.915C74.8365 359.746 77.1615 358.13 79.1115 356.34C81.0605 354.549 82.8205 352.505 85.0845 351.133C86.5625 350.238 88.6705 349.741 89.8705 350.984C90.7975 351.943 90.7085 353.487 90.3605 354.775C89.3575 358.488 86.6455 361.703 83.1535 363.316C85.9945 363.972 88.9565 364.095 91.8425 363.679C93.4875 363.442 95.1915 362.985 96.3815 361.824C97.5715 360.663 98.0325 358.619 97.0005 357.316C95.4605 355.372 95.5215 352.527 96.5055 350.25C97.4895 347.974 99.2465 346.136 100.967 344.35C100.474 343.334 99.0355 343.265 97.9585 343.604ZM111.109 348.017C112.656 344.441 112.712 340.397 112.32 336.521C111.887 332.234 110.393 327.332 106.354 325.83C100.436 328.287 95.8695 333.767 94.5205 340.03C94.4065 340.557 94.3185 341.123 94.5255 341.62C94.7325 342.117 95.3475 342.479 95.8245 342.229C97.4605 341.372 99.4735 340.885 101.136 341.689C102.799 342.492 103.609 344.999 102.262 346.263C100.774 347.66 99.2465 349.113 98.4435 350.989C97.6405 352.865 97.7565 355.294 99.2675 356.666C100.403 357.696 100.406 359.719 99.2735 360.753C102.494 359.812 104.79 357.043 106.878 354.416C108.475 352.409 110.09 350.371 111.109 348.017ZM74.0285 329.526C70.6785 330.915 67.4255 332.542 64.3045 334.389C63.5615 334.828 62.8115 335.293 62.2685 335.964C61.5355 336.869 61.2565 338.05 61.0305 339.193C60.2985 342.884 59.9215 346.859 61.4715 350.288C61.9665 351.383 62.6425 352.384 63.3155 353.379C63.5145 353.672 63.7395 353.986 64.0805 354.085C64.4205 354.184 64.8705 353.91 64.7905 353.564C64.5435 352.5 65.3505 351.498 66.1455 350.749C70.8055 346.363 77.0825 343.846 81.2735 339.009C80.6375 338.256 79.4315 338.61 78.5255 338.997C76.3665 339.919 74.1405 340.683 71.8715 341.282C70.7005 341.591 69.3955 341.842 68.3275 341.272C66.7635 340.438 66.5095 338.158 67.3355 336.59C68.1615 335.022 69.7315 334.01 71.2455 333.09C72.7595 332.169 74.3485 331.209 75.2575 329.687C75.0915 329.254 74.4565 329.348 74.0285 329.526ZM85.4965 358.907C86.9765 357.717 88.5765 356.314 88.7385 354.422C88.8225 353.432 88.1875 352.222 87.1995 352.316C86.8955 352.345 86.6175 352.496 86.3555 352.652C82.0495 355.224 79.2165 360.254 74.3585 361.505C75.7315 362.119 77.1625 362.603 78.6265 362.946C79.0625 363.049 79.5165 363.139 79.9545 363.048C80.4655 362.943 80.8925 362.606 81.2985 362.28C82.6975 361.156 84.0965 360.031 85.4965 358.907ZM89.5005 317.786C88.5425 318.846 87.5845 319.905 86.6265 320.965C85.8675 321.804 85.0525 322.912 85.4755 323.962C85.7865 324.735 86.7055 325.126 87.5365 325.062C88.3685 324.997 89.1255 324.572 89.8225 324.115C92.3065 322.485 94.5425 320.265 97.4415 319.614C95.4315 318.881 93.4215 318.149 91.4115 317.416C90.9935 317.264 90.5265 317.111 90.1145 317.281C89.8675 317.383 89.6795 317.588 89.5005 317.786Z" fill="#B5B5BF"/>
<path fill-rule="evenodd" clip-rule="evenodd" d="M525.143 86.191C528.693 87.421 532.037 84.22 535.096 82.039C539.83 78.664 546.005 77.388 551.689 78.61C552.632 78.812 553.62 79.117 554.241 79.855C554.808 80.529 554.97 81.45 555.061 82.327C555.621 87.696 554.278 93.244 551.326 97.764C549.889 99.962 548.09 101.92 546.805 104.21C545.521 106.501 544.787 109.3 545.702 111.761C551.143 126.396 548.879 143.658 539.847 156.395C530.816 169.132 515.276 176.98 499.665 176.688C491.681 176.539 483.859 174.408 476.337 171.728C473.055 170.559 469.447 169.276 466.19 170.511C460.245 172.764 453.987 174.186 447.652 174.724C446.08 174.858 444.438 174.927 442.988 174.306C440.817 173.377 439.506 171.023 439.257 168.675C439.008 166.326 439.657 163.976 440.477 161.761C442.95 155.081 450.629 144.646 455.278 142.242C454.902 134.131 454.943 125.924 456.697 117.995C458.45 110.066 462.03 102.372 467.901 96.762C470.326 94.445 473.101 92.516 476.008 90.843C490.71 82.378 509.113 80.636 525.143 86.191ZM502.753 85.532C491.511 85.796 480.567 90.312 471.778 97.328C469.198 99.388 466.773 101.677 464.836 104.351C463.309 106.459 462.102 108.785 461.093 111.184C455.107 125.421 456.473 142.527 464.644 155.634C464.822 155.919 465.026 156.222 465.344 156.333C465.736 156.47 466.159 156.271 466.525 156.075C492.187 142.4 515.028 123.46 533.218 100.774C533.651 100.233 534.106 99.606 534.013 98.92C533.943 98.405 533.576 97.987 533.217 97.611C525.455 89.473 513.996 85.269 502.753 85.532ZM518.471 170.524C530.66 164.802 539.917 153.494 543.876 140.625C544.773 137.71 545.417 134.698 545.48 131.649C545.534 129.086 545.176 126.533 544.819 123.994C544.302 120.313 543.785 116.632 543.267 112.951C543.13 111.975 542.19 110.686 541.503 111.393C522.432 131.019 501.608 148.94 479.359 164.873C478.619 165.404 477.804 166.059 477.764 166.969C477.718 168.022 478.723 168.786 479.636 169.312C491.3 176.039 506.283 176.246 518.471 170.524ZM443.289 169.026C444.176 170.448 446.098 170.739 447.773 170.785C456.563 171.029 465.258 168.453 473.122 164.519C480.986 160.586 488.104 155.324 495.02 149.896C504.246 142.655 513.196 135.067 521.918 127.227C532.72 117.518 543.335 107.22 550.427 94.545C551.799 92.094 553.065 89.405 552.85 86.604C552.636 83.803 550.401 80.974 547.594 81.084C541.636 81.316 535.779 83.607 531.244 87.477C530.342 88.247 530.98 89.886 532.09 90.302C533.2 90.719 534.437 90.305 535.522 89.826C536.606 89.347 537.736 88.787 538.914 88.919C540.714 89.119 541.993 90.962 542.1 92.77C542.207 94.578 541.408 96.316 540.466 97.863C538.722 100.726 536.445 103.221 534.144 105.659C513.691 127.328 490.096 146.028 464.329 160.991C462.008 162.339 459.66 163.661 457.163 164.643C455.853 165.158 454.351 165.571 453.073 164.982C450.976 164.017 450.808 161.073 451.437 158.853C452.382 155.519 454.422 152.505 457.167 150.389C456.647 148.924 456.127 147.46 455.607 145.995C448.832 150.323 444.077 157.684 442.918 165.64C442.751 166.788 442.675 168.041 443.289 169.026ZM462.554 158.974C462.602 158.823 462.514 158.666 462.429 158.531C461.554 157.141 460.679 155.75 459.804 154.359C459.408 153.73 458.642 153.018 458.048 153.465C455.908 155.076 454.377 157.476 453.816 160.095C453.706 160.612 453.641 161.189 453.923 161.636C454.446 162.469 455.697 162.283 456.623 161.952C458.596 161.245 460.497 160.335 462.286 159.243C462.397 159.175 462.515 159.097 462.554 158.974ZM538.695 92.774C538.607 92.413 538.177 92.256 537.805 92.24C536.678 92.19 535.499 93.118 535.571 94.244C535.642 95.371 537.317 96.08 538.016 95.194C538.228 94.927 538.317 94.586 538.401 94.256C538.484 93.928 538.568 93.601 538.651 93.274C538.693 93.11 538.735 92.938 538.695 92.774Z" fill="#B5B5BF"/>
<path fill-rule="evenodd" clip-rule="evenodd" d="M200.796 156.937C199.838 154.785 195.795 155.784 195.028 157.999C194.26 160.213 195.498 162.538 196.549 164.654C207.219 186.159 198.724 214.033 177.389 227.525C171.95 224.511 169.758 217.854 164.015 215.345C161.368 214.188 158.329 214.093 155.393 214.021C146.66 213.805 137.929 213.588 129.198 213.372C126.012 213.293 122.177 213.529 120.629 216.056C117.258 221.56 108.244 223.757 102.784 219.863C97.3246 215.97 98.2597 206.662 104.726 204.363C106.254 203.819 107.987 203.627 109.247 202.676C110.378 201.822 110.925 200.505 111.424 199.25C114.813 190.747 118.201 182.241 121.588 173.738C122.226 172.134 122.874 170.486 122.828 168.782C122.737 165.312 119.842 162.457 116.876 160.261C113.907 158.066 110.559 156.028 108.885 152.906C107.21 149.782 108.192 145.158 111.86 144.155C131.102 138.896 152.732 135.558 170.646 143.815C173.711 145.229 176.77 147.003 180.209 147.091C183.648 147.179 187.451 144.628 186.822 141.563C185.94 137.25 177.583 135.43 179.07 131.257C179.39 130.356 180.157 129.655 180.9 128.989C188.5 122.182 196.1 115.375 203.7 108.568C204.488 104.705 198.291 102.596 194.3 104.125C190.309 105.656 187.435 109.024 183.427 110.515C175.32 113.53 166.641 107.952 160.224 102.544C137.255 83.1898 116.883 61.3032 99.7012 37.5233C98.9129 36.4308 98.0997 35.2312 98.2045 33.9299C98.3378 32.2592 99.9087 31.0234 101.36 29.9844C113.996 20.9405 126.633 11.8966 139.267 2.85266C142.32 0.667625 147.098 -1.41901 149.611 1.27173C172.879 26.1787 196.147 51.0857 219.417 75.9927C220.525 77.1818 221.674 78.4383 222.018 79.9623C222.727 83.0966 219.842 85.9306 216.923 87.7273C214.001 89.524 210.578 91.1412 209.241 94.1029C207.902 97.0629 210.819 101.428 214.085 100.214C230.806 89.3272 248.284 78.1449 268.56 74.914C272.397 74.303 276.567 74.0337 279.981 75.7338C287.579 79.5153 286.511 89.6569 283.622 97.0646C278.353 110.58 270.54 123.28 260.625 134.448C258.65 136.673 256.455 139.347 257.289 142.099C258.469 145.993 264.431 146.471 268.701 145.318C272.968 144.164 277.645 142.219 281.617 144.045C283.375 144.851 284.658 146.288 285.887 147.683C306.656 171.254 327.426 194.825 348.195 218.396C333.845 228.624 319.239 238.555 304.39 248.179C302.924 249.13 301.286 250.122 299.489 249.988C297.36 249.829 295.804 248.167 294.498 246.636C274.579 223.281 254.661 199.925 234.742 176.57C232.193 173.582 234.594 169.114 237.875 166.785C241.156 164.459 245.324 163.059 247.855 160.06C250.386 157.06 249.714 151.464 245.595 150.897C243.253 150.574 241.099 152.051 239.408 153.554C234.68 157.752 230.766 163.009 224.762 165.532C216.043 169.197 204.389 165.016 200.796 156.937ZM180.814 220.003C192.967 207.302 200.592 189.599 195.281 173.491C190.833 160.004 177.729 149.678 162.899 145.505C148.069 141.331 131.812 142.776 117.146 147.403C115.828 147.819 114.288 148.53 114.236 149.795C114.204 150.576 114.779 151.254 115.325 151.856C135.886 174.545 156.448 197.233 177.008 219.922C177.514 220.481 178.129 221.089 178.927 221.092C179.698 221.095 180.31 220.531 180.814 220.003ZM276.026 94.7778C268.24 94.1374 262.044 86.6347 263.556 79.6844C233.663 91.8315 206.802 110.063 185.525 132.643C193.801 142.705 203.088 152.084 213.232 160.626C214.278 161.506 215.439 162.422 216.862 162.55C218.404 162.688 219.83 161.863 221.099 161.057C245.465 145.593 265.043 123.996 277.053 99.329C277.866 97.6618 278.03 94.9434 276.026 94.7778ZM166.635 74.3582C168.307 73.112 170.137 71.5518 169.992 69.5929C169.886 68.1483 168.713 66.9781 167.606 65.9356C162.665 61.286 157.725 56.6363 152.786 51.9866C151.38 50.6663 149.061 50.4505 147.121 50.9787C145.182 51.5085 143.533 52.6528 141.93 53.7747C140.69 54.6428 139.407 56.3739 140.642 57.2472C147.319 61.9573 153.311 67.4614 158.42 73.5746C159.352 74.6879 160.399 75.9081 161.915 76.1653C163.651 76.4587 165.27 75.3765 166.635 74.3582ZM184.505 102.009C186.478 102.375 188.346 101.165 189.919 100.025C191.261 99.0511 192.733 97.8378 192.664 96.2793C192.619 95.2248 191.859 94.3204 191.131 93.4954C186.15 87.8378 181.168 82.1784 176.187 76.5191C175.842 76.1273 175.454 75.7096 174.911 75.6061C174.37 75.5042 173.828 75.7458 173.344 75.9892C171.344 77.0023 169.459 78.2001 167.726 79.5584C167.022 80.1124 166.306 80.7493 166.134 81.5795C165.933 82.546 166.519 83.4884 167.098 84.3203C171.131 90.116 175.947 95.4612 181.405 100.204C182.303 100.986 183.284 101.782 184.505 102.009ZM115.171 202.195C115.057 202.464 114.939 202.744 114.945 203.032C114.96 203.86 116.005 204.416 116.914 204.33C117.82 204.245 118.595 203.722 119.319 203.218C125.753 198.738 132.188 194.257 138.622 189.777C139.627 189.076 140.728 188.206 140.722 187.058C140.717 186.161 140.025 185.403 139.37 184.732C136.543 181.829 133.717 178.926 130.889 176.021C130.447 175.567 129.971 175.092 129.333 174.915C127.587 174.428 126.241 176.301 125.58 177.845C122.11 185.961 118.641 194.078 115.171 202.195ZM147.66 194.854C147.271 194.442 146.86 194.016 146.304 193.817C145.506 193.534 144.609 193.786 143.803 194.057C135.164 196.965 127.414 202.012 121.615 208.505C122.935 209.164 124.521 209.155 126.029 209.13C136.282 208.948 146.532 208.769 156.785 208.588C157.91 208.569 159.468 208.075 159.178 207.09C155.337 203.011 151.499 198.933 147.66 194.854ZM120.288 24.4769C119.593 25.1069 118.848 25.8318 118.835 26.7224C118.825 27.323 119.157 27.8804 119.481 28.4051C123.072 34.263 126.663 40.1191 130.255 45.9769C131.03 47.2403 131.841 48.5416 133.107 49.4218C134.376 50.3021 136.232 50.6542 137.571 49.8654C139.435 48.7712 141.297 47.6769 143.16 46.581C144.535 45.7732 145.991 43.9506 144.66 43.0825C136.961 38.06 130.691 31.2581 126.604 23.5001C126.062 22.4679 124.525 22.1452 123.323 22.4903C122.122 22.8355 121.181 23.6709 120.288 24.4769ZM154.202 83.6075C155.747 82.2198 155.821 79.8984 154.966 78.0879C154.109 76.2757 152.508 74.857 150.944 73.4883C146.673 69.7499 142.402 66.0098 138.131 62.2715C136.941 61.229 135.708 60.1606 134.168 59.6135C132.627 59.0647 130.685 59.1596 129.539 60.2435C127.412 62.2559 129.398 65.5214 131.38 67.6546C135.221 71.7882 139.064 75.9219 142.906 80.0555C144.358 81.6192 145.87 83.2243 147.892 84.1287C149.914 85.0314 152.601 85.0452 154.202 83.6075ZM161.978 34.2716C164.952 34.2267 166.862 31.0199 166.361 28.362C165.862 25.7023 163.76 23.5587 161.745 21.5722C157.607 17.4886 153.468 13.4051 149.33 9.3215C147.976 7.98735 146.184 6.52719 144.255 6.99837C142.556 7.41432 141.69 9.25416 141.926 10.8351C142.162 12.4143 143.207 13.7848 144.222 15.0879C148.195 20.1863 152.167 25.2829 156.141 30.3796C157.594 32.2454 159.458 34.3096 161.978 34.2716ZM240.895 174.091C240.781 174.714 241.183 175.308 241.567 175.833C245.49 181.195 249.411 186.556 253.333 191.917C254.505 193.517 256.778 194.383 258.86 194.024C260.939 193.664 262.7 192.096 263.137 190.217C263.767 187.509 261.844 184.908 260.021 182.687C256.746 178.694 253.471 174.702 250.197 170.712C249.178 169.469 247.097 169.305 245.53 169.922C243.961 170.536 242.786 171.741 241.664 172.909C241.327 173.259 240.979 173.634 240.895 174.091ZM273.427 185.65C274.564 184.944 275.764 184.169 276.264 183.006C277.11 181.038 275.642 178.929 274.24 177.241C270.942 173.265 267.613 169.311 264.254 165.375C262.88 163.765 261.31 162.048 259.107 161.651C257.165 161.301 255.028 162.193 254.061 163.758C253.094 165.324 253.368 167.441 254.712 168.758C259.871 173.82 264.155 179.611 267.366 185.855C268.345 187.761 271.515 186.836 273.427 185.65ZM105.33 36.1097C105.709 37.7149 106.918 39.0387 108.089 40.2917C112.812 45.3504 117.534 50.4091 122.257 55.4661C122.624 55.8596 122.998 56.2583 123.47 56.5466C124.607 57.2369 126.258 57.1247 127.265 56.2859C128.274 55.4489 128.543 53.968 127.882 52.8824C123.775 46.1374 119.669 39.3925 115.563 32.6492C114.297 30.5695 111.254 29.5477 108.8 30.3779C106.345 31.2081 104.786 33.7866 105.33 36.1097ZM296.101 217.029C295.412 217.723 294.676 218.517 294.701 219.451C294.722 220.248 295.295 220.935 295.842 221.56C299.681 225.945 303.537 230.317 307.41 234.677C308.054 235.4 308.73 236.147 309.663 236.534C311.925 237.473 314.437 235.939 316.347 234.492C317.188 233.855 318.112 233.051 318.007 232.06C317.946 231.477 317.529 230.982 317.129 230.521C312.662 225.379 308.197 220.236 303.729 215.094C302.792 214.016 300.964 213.886 299.57 214.423C298.177 214.96 297.116 216.009 296.101 217.029ZM133.18 22.3281C136.067 29.4372 141.368 36.07 148.975 39.2112C150.847 39.9845 153.559 40.2951 154.513 38.6434C155.476 36.9761 153.652 35.1691 152.134 33.885C146.108 28.7762 142.514 21.7965 139.066 15.0015C137.986 12.8734 134.067 13.4672 132.843 15.5279C131.616 17.5887 132.287 20.131 133.18 22.3281ZM284.62 193.929C283.386 192.405 282.089 190.828 280.244 189.946C278.399 189.064 275.838 189.105 274.499 190.557C272.372 192.866 274.695 196.244 276.851 198.532C281.019 202.954 284.811 207.668 288.185 212.616C289.493 214.535 292.75 213.246 294.667 211.808C295.669 211.059 296.777 210.044 296.482 208.898C296.375 208.481 296.089 208.123 295.811 207.778C292.081 203.161 288.351 198.546 284.62 193.929ZM274.453 151.268C274.301 152.966 275.373 154.533 276.402 155.959C280.694 161.905 285.014 167.883 290.363 173.078C293.563 172.892 295.398 169.347 294.745 166.502C294.092 163.66 291.809 161.397 289.76 159.164C287.022 156.176 284.555 152.985 282.396 149.631C281.49 148.22 279.519 147.445 277.763 147.807C276.005 148.17 274.6 149.64 274.453 151.268ZM279.513 220.115C280.913 220.989 282.985 220.83 284.203 219.756C285.525 218.593 285.706 216.665 285.131 215.079C284.556 213.491 283.356 212.164 282.183 210.875C278.789 207.148 275.396 203.422 272.003 199.697C270.736 198.306 269.386 196.86 267.533 196.209C265.679 195.557 263.18 196.031 262.388 197.685C261.552 199.43 262.923 201.347 264.22 202.84C268.804 208.115 273.387 213.389 277.971 218.664C278.43 219.194 278.9 219.732 279.513 220.115ZM319.437 194.124C319.192 193.258 318.522 192.552 317.87 191.879C313.073 186.915 308.279 181.951 303.482 176.988C303.095 176.587 302.676 176.168 302.113 176.018C301.557 175.869 300.962 176.011 300.403 176.152C299.049 176.494 297.626 176.872 296.649 177.788C295.672 178.705 295.374 180.344 296.404 181.211C300.304 184.485 303.79 188.165 306.772 192.153C308.507 194.475 310.289 197.062 313.203 198.002C316.118 198.943 320.209 196.839 319.437 194.124ZM182.34 69.9139C181.064 71.4655 181.905 73.6747 182.945 75.3661C186.059 80.43 190.56 84.6586 195.01 88.825C196.153 89.8951 197.351 90.9979 198.891 91.514C200.432 92.0283 202.422 91.7694 203.322 90.525C204.56 88.8112 203.145 86.5864 201.774 84.9589C198.316 80.8563 194.86 76.7538 191.402 72.6512C190.273 71.3119 189.084 69.926 187.414 69.1838C185.746 68.4417 183.452 68.5625 182.34 69.9139ZM330.24 219.199C331.762 220.897 334.064 222.783 336.254 221.862C338.16 221.061 338.927 218.389 341.03 218.381C337.341 214.074 333.655 209.768 329.966 205.464C328.481 203.729 326.883 201.917 324.623 201.123C322.364 200.329 319.276 201.042 318.52 203.129C317.823 205.055 319.321 207.014 320.732 208.588C323.901 212.124 327.072 215.662 330.24 219.199ZM192.084 56.8261C188.376 51.5672 184.196 46.5827 179.597 41.9382C178.388 40.718 177.149 39.5202 175.911 38.3224C174.898 37.342 173.811 36.3203 172.384 35.9596C170.67 35.5264 168.684 36.253 167.784 37.6424C166.881 39.0317 167.146 40.9579 168.397 42.1039C173.277 46.5827 178.16 51.0598 183.04 55.5386C184.322 56.7139 185.68 57.9324 187.424 58.4157C189.166 58.899 191.402 58.3588 192.084 56.8261ZM214.807 81.8091C215.258 81.4846 215.746 81.1049 215.805 80.5871C215.868 80.04 215.431 79.5602 215.024 79.1546C209.721 73.8629 204.417 68.5728 199.116 63.2811C198.065 62.2317 196.705 61.084 195.172 61.3671C193.687 61.6398 192.878 63.2311 193.08 64.5946C193.281 65.9563 194.211 67.1265 195.109 68.2346C197.307 70.9357 199.502 73.6385 201.7 76.3413C204.278 79.5153 206.979 82.7859 210.785 84.6931C212.126 83.7317 213.466 82.7704 214.807 81.8091ZM293.296 185.533C292.007 184.247 290.297 182.837 288.442 183.277C286.774 183.672 285.934 185.496 286.201 187.041C286.467 188.586 287.54 189.903 288.577 191.152C291.561 194.744 294.545 198.336 297.529 201.929C299.083 203.8 301.273 205.893 303.781 205.331C306.001 204.834 307.052 202.336 306.551 200.315C306.049 198.292 304.455 196.663 302.916 195.129C299.709 191.931 296.503 188.731 293.296 185.533ZM285.222 225.139C283.78 227.195 285.416 229.841 287.058 231.772C289.623 234.789 292.323 237.715 295.147 240.536C296.265 241.653 297.495 242.806 299.108 243.172C300.862 243.571 302.851 242.854 303.828 241.477C304.805 240.1 304.695 238.162 303.567 236.881C300.928 233.888 298.291 230.895 295.653 227.901C294.32 226.389 292.913 224.824 290.965 224.033C289.017 223.241 286.368 223.507 285.222 225.139ZM156.558 44.5116C155.341 46.1253 156.935 48.2223 158.438 49.6255C163.684 54.5255 168.93 59.4254 174.178 64.3236C175.286 65.3591 176.633 66.4793 178.217 66.3308C180.214 66.1444 181.307 63.9059 180.831 62.1386C180.355 60.3712 178.838 59.0146 177.385 57.7582C172.778 53.7712 168.17 49.786 163.564 45.7991C162.575 44.9448 161.545 44.0663 160.252 43.6676C158.961 43.2689 157.329 43.4898 156.558 44.5116ZM267.648 154.542C265.911 154.562 264.73 156.35 264.889 157.919C265.047 159.487 266.122 160.838 267.16 162.1C270.893 166.642 274.625 171.185 278.359 175.726C279.087 176.613 279.85 177.528 280.932 178.037C282.011 178.548 283.504 178.52 284.289 177.676C285.418 176.461 284.443 174.635 283.459 173.322C279.38 167.878 275.301 162.436 271.222 156.993C270.346 155.822 269.209 154.523 267.648 154.542ZM327.584 224.307C322.897 219.183 318.209 214.059 313.523 208.935C312.959 208.318 312.338 207.668 311.485 207.462C309.815 207.06 308.237 208.691 308.223 210.255C308.212 211.82 309.238 213.218 310.249 214.485C313.372 218.398 316.752 222.141 320.365 225.692C321.648 226.953 323.116 228.263 324.996 228.476C326.874 228.686 329.021 227.102 328.412 225.476C328.246 225.036 327.911 224.666 327.584 224.307ZM171.99 105.51C173.173 106.671 174.561 107.921 176.305 107.943C178.047 107.966 179.613 105.82 178.304 104.774C172.992 100.523 168.277 95.6597 164.306 90.3404C163.24 88.913 162.118 87.3665 160.351 86.7297C158.584 86.0911 156.055 86.9852 156.012 88.7076C155.987 89.7294 156.8 90.5906 157.563 91.3414C162.372 96.0636 167.182 100.787 171.99 105.51ZM269.139 82.9395C269.678 86.6227 273.583 89.6396 277.679 89.5395C278.35 89.524 279.068 89.4135 279.553 88.9924C280.029 88.5799 280.185 87.9568 280.319 87.3717C280.939 84.6413 280.981 80.9409 278.072 80.0296C276.874 79.6551 275.533 79.9451 274.309 79.6534C273.45 79.4497 272.66 78.9647 271.774 78.9664C269.84 78.9716 268.886 81.2033 269.139 82.9395ZM114.457 209.64C113.265 208.481 111.464 207.961 109.716 207.908C108.762 207.88 107.768 207.987 106.954 208.439C106.217 208.848 105.686 209.511 105.344 210.231C103.792 213.482 106.975 217.797 110.873 217.531C114.771 217.266 117.121 212.235 114.457 209.64ZM190.294 154.164C191.966 154.084 193.453 152.757 193.567 151.243C193.622 150.522 193.39 149.783 192.923 149.195C191.526 147.436 188.02 147.717 186.986 149.671C185.952 151.625 187.906 154.279 190.294 154.164ZM207.07 104.322C207.723 104.686 208.424 105.064 209.189 105.042C209.955 105.021 210.745 104.405 210.581 103.727C207.611 101.248 204.64 98.7698 201.67 96.2931C200.898 97.8637 201.483 99.764 202.645 101.124C203.806 102.486 205.457 103.418 207.07 104.322ZM254.398 150.89C255.556 151.797 257.409 150.242 257.094 148.884C256.78 147.528 255.339 146.671 254.019 145.969C252.699 145.267 251.254 144.417 250.927 143.063C249.013 145.622 251.818 148.865 254.398 150.89Z" fill="#B5B5BF"/>
<path fill-rule="evenodd" clip-rule="evenodd" d="M530.282 314.122L531.189 316.104L533.261 316.688C533.373 316.719 533.438 316.834 533.406 316.943C533.396 316.978 533.377 317.009 533.352 317.034L531.778 318.572L531.866 320.785C531.871 320.899 531.78 320.995 531.664 321C531.625 321.001 531.585 320.992 531.551 320.972L529.77 319.976C529.713 319.945 529.647 319.94 529.587 319.964L527.682 320.707C527.574 320.749 527.451 320.698 527.407 320.591C527.393 320.555 527.389 320.515 527.396 320.478L527.797 318.298L526.457 316.56C526.386 316.469 526.405 316.339 526.498 316.27C526.527 316.249 526.56 316.235 526.595 316.23L528.73 315.935L529.91 314.097C529.973 314 530.103 313.971 530.201 314.032C530.236 314.053 530.265 314.085 530.282 314.122Z" fill="#B5B5BF"/>
<path fill-rule="evenodd" clip-rule="evenodd" d="M516.347 396.996C516.902 396.701 517.069 396.019 516.721 395.472C516.373 394.926 515.64 394.723 515.085 395.018C514.475 395.342 513.922 395.621 513.417 395.86C513.252 395.269 513.032 394.652 512.763 393.992L512.201 392.647C511.957 392.057 511.267 391.735 510.658 391.928C510.05 392.121 509.755 392.756 509.998 393.346L510.667 394.957C510.921 395.604 511.113 396.19 511.24 396.747C509.838 397.192 508.992 397.13 508.274 396.809L508.091 396.723L507.977 396.676C507.404 396.469 506.775 396.693 506.531 397.211C506.271 397.763 506.548 398.441 507.149 398.724L507.363 398.825C508.481 399.329 509.705 399.466 511.368 399.066C511.273 399.803 511.05 400.578 510.688 401.476C510.46 402.042 510.772 402.707 511.386 402.961C512.001 403.216 512.684 402.962 512.912 402.395C513.541 400.838 513.821 399.529 513.793 398.233C514.39 397.979 515.033 397.675 515.731 397.318L516.347 396.996Z" fill="#B5B5BF"/>
<path fill-rule="evenodd" clip-rule="evenodd" d="M457.869 196.17C457.643 196.67 457.148 197.362 456.572 198.017L457.068 198.467L457.643 199.002L457.77 199.109C457.827 199.152 457.87 199.178 457.902 199.186C458.089 199.209 458.218 199.359 458.192 199.523C458.165 199.682 457.995 199.798 457.809 199.775C457.641 199.771 457.029 199.563 456.301 199.045C456.169 198.951 456.036 198.843 455.903 198.725C455.483 199.135 455.058 199.487 454.691 199.706C454.151 200.032 453.683 200.058 453.46 199.925C453.241 199.797 453.03 199.366 453.387 198.494C453.443 198.336 453.636 198.253 453.814 198.303C453.992 198.352 454.091 198.518 454.034 198.675C453.979 198.837 453.973 198.985 453.972 199.103L454.179 198.98C454.252 198.934 454.327 198.882 454.396 198.822C454.646 198.606 454.926 198.344 455.207 198.061C454.762 197.609 454.309 197.079 453.942 196.467C453.763 196.168 453.62 195.852 453.485 195.519C453.391 195.333 453.488 195.114 453.702 195.031C453.915 194.949 454.165 195.035 454.259 195.22C454.667 195.968 455.189 196.612 455.704 197.164L455.875 197.344C456.344 196.808 456.747 196.265 456.93 195.852C457.032 195.627 457.324 195.514 457.582 195.601C457.842 195.69 457.971 195.945 457.869 196.17Z" fill="#E7EAEE"/>
<path fill-rule="evenodd" clip-rule="evenodd" d="M163.934 323.373C163.754 323.973 163.357 324.804 162.897 325.59L163.294 326.13L163.753 326.772L163.855 326.9C163.901 326.952 163.935 326.984 163.96 326.993C164.11 327.021 164.213 327.201 164.193 327.397C164.171 327.588 164.035 327.727 163.886 327.699C163.752 327.695 163.262 327.445 162.68 326.824C162.574 326.711 162.468 326.582 162.362 326.439C162.025 326.931 161.686 327.354 161.392 327.617C160.96 328.007 160.586 328.039 160.407 327.88C160.232 327.726 160.063 327.209 160.349 326.163C160.393 325.973 160.547 325.873 160.69 325.933C160.833 325.992 160.912 326.191 160.866 326.38C160.823 326.574 160.817 326.751 160.817 326.893L160.982 326.745C161.041 326.69 161.101 326.628 161.156 326.556C161.356 326.297 161.58 325.983 161.804 325.643C161.449 325.101 161.086 324.465 160.793 323.73C160.649 323.371 160.535 322.992 160.427 322.592C160.352 322.369 160.429 322.106 160.6 322.007C160.771 321.908 160.971 322.011 161.046 322.234C161.373 323.131 161.79 323.904 162.202 324.566L162.339 324.782C162.714 324.139 163.037 323.488 163.183 322.992C163.265 322.721 163.498 322.587 163.704 322.69C163.913 322.798 164.016 323.103 163.934 323.373Z" fill="white"/>
<path fill-rule="evenodd" clip-rule="evenodd" d="M72.3241 224.626L71.8798 224.684C71.478 224.741 71.1836 225.264 71.2228 225.851C71.2463 226.206 71.3862 226.504 71.5815 226.671L71.5043 226.752C71.1747 227.092 71.0963 227.759 71.3297 228.241C71.5625 228.723 72.0186 228.838 72.3482 228.497L73.0991 227.719C73.0773 227.971 73.0583 228.231 73.0426 228.5L72.9693 229.843C72.9357 230.431 73.2351 230.948 73.6369 230.996C74.0393 231.045 74.3924 230.608 74.4259 230.02L74.516 228.412C74.5395 228.068 74.5686 227.746 74.6039 227.441C74.8607 228.153 74.9117 228.702 74.8574 229.22L74.8361 229.397L74.8272 229.506C74.7997 230.046 75.0566 230.539 75.4293 230.635C75.8266 230.738 76.2055 230.35 76.276 229.769L76.3006 229.561C76.3784 228.84 76.3426 228.114 76.1428 227.307C76.2474 227.417 76.3375 227.54 76.4175 227.673L76.4964 227.81L76.5474 227.89C76.8126 228.268 77.2362 228.298 77.5261 227.942C77.835 227.563 77.8753 226.888 77.6162 226.436L77.5233 226.275C77.4908 226.22 77.4573 226.166 77.4226 226.113C77.8042 226.146 78.1428 225.739 78.1898 225.177C78.239 224.591 77.9542 224.057 77.5535 223.985C76.8647 223.861 76.262 223.834 75.708 223.907C75.9066 223.564 76.1372 223.217 76.4052 222.851C76.7007 222.448 76.7169 221.772 76.4416 221.34C76.1663 220.908 75.7041 220.885 75.4086 221.287C74.9133 221.962 74.5188 222.604 74.2049 223.255C74.0835 223.067 73.9559 222.874 73.8221 222.675L73.506 222.215C73.2178 221.801 72.7555 221.807 72.4724 222.229C72.1898 222.65 72.1943 223.327 72.4819 223.74C72.6822 224.028 72.8664 224.299 73.0365 224.556C72.8104 224.574 72.5726 224.596 72.3241 224.626Z" fill="#B5B5BF"/>
<path fill-rule="evenodd" clip-rule="evenodd" d="M34.9344 287.404C34.7535 288.004 34.3572 288.835 33.8966 289.62L34.2936 290.16L34.7535 290.802L34.8554 290.931C34.9007 290.983 34.9351 291.014 34.9604 291.023C35.1099 291.051 35.2134 291.231 35.1927 291.427C35.1712 291.619 35.0348 291.758 34.8861 291.729C34.752 291.725 34.2622 291.475 33.6797 290.854C33.574 290.742 33.4682 290.612 33.3616 290.469C33.0252 290.962 32.6856 291.385 32.3921 291.647C31.9598 292.038 31.5858 292.069 31.4072 291.91C31.2317 291.757 31.0631 291.239 31.349 290.193C31.3934 290.003 31.5475 289.904 31.69 289.963C31.8326 290.022 31.9115 290.221 31.8663 290.41C31.8226 290.604 31.8173 290.782 31.8165 290.924L31.982 290.776C32.0411 290.721 32.1008 290.658 32.156 290.586C32.3561 290.328 32.5799 290.013 32.8044 289.674C32.4488 289.131 32.0863 288.495 31.7927 287.761C31.6494 287.402 31.5352 287.022 31.4271 286.622C31.352 286.399 31.4294 286.137 31.6004 286.037C31.7713 285.939 31.9713 286.041 32.0464 286.265C32.3729 287.162 32.7899 287.934 33.2022 288.597L33.3394 288.813C33.7142 288.17 34.0369 287.518 34.1833 287.022C34.2645 286.752 34.4983 286.617 34.7044 286.721C34.9129 286.828 35.0156 287.134 34.9344 287.404Z" fill="white"/>
<path fill-rule="evenodd" clip-rule="evenodd" d="M34.9344 285.17C34.7535 285.67 34.3572 286.362 33.8966 287.017L34.2936 287.467L34.7535 288.002L34.8554 288.109C34.9007 288.152 34.9351 288.178 34.9604 288.186C35.1099 288.209 35.2134 288.359 35.1927 288.523C35.1712 288.682 35.0348 288.798 34.8861 288.775C34.752 288.771 34.2622 288.563 33.6797 288.045C33.574 287.951 33.4682 287.843 33.3616 287.725C33.0252 288.135 32.6856 288.487 32.3921 288.706C31.9598 289.032 31.5858 289.058 31.4072 288.925C31.2317 288.797 31.0631 288.366 31.349 287.494C31.3934 287.336 31.5475 287.253 31.69 287.303C31.8326 287.352 31.9115 287.518 31.8663 287.675C31.8226 287.837 31.8173 287.985 31.8165 288.103L31.982 287.98C32.0411 287.934 32.1008 287.882 32.156 287.822C32.3561 287.606 32.5799 287.344 32.8044 287.061C32.4488 286.609 32.0863 286.079 31.7927 285.467C31.6494 285.168 31.5352 284.852 31.4271 284.519C31.352 284.333 31.4294 284.114 31.6004 284.031C31.7713 283.949 31.9713 284.035 32.0464 284.22C32.3729 284.968 32.7899 285.612 33.2022 286.164L33.3394 286.344C33.7142 285.808 34.0369 285.265 34.1833 284.852C34.2645 284.627 34.4983 284.514 34.7044 284.601C34.9129 284.69 35.0156 284.945 34.9344 285.17Z" fill="#E7EAEE"/>
<path fill-rule="evenodd" clip-rule="evenodd" d="M520.784 191.639C520.861 191.479 521.052 191.389 521.209 191.432C521.45 191.471 521.526 191.645 521.537 191.865C521.546 192.063 521.411 192.356 521.373 192.532C520.844 194.449 518.902 195.718 516.85 196.089C514.878 196.447 512.849 195.953 511.969 194.61C511.864 194.455 511.93 194.225 512.117 194.096C512.303 193.967 512.839 193.151 512.944 193.306C513.72 194.421 514.168 195.163 517.126 194.687C520.085 194.21 520.726 191.758 520.784 191.639Z" fill="#E7EAEE"/>
<path fill-rule="evenodd" clip-rule="evenodd" d="M68.9085 90.1309L69.3873 91.8948L71.091 92.6714C71.1833 92.7129 71.2216 92.8174 71.1762 92.9029C71.1629 92.9295 71.1416 92.9527 71.1159 92.9693L69.5134 94.0122L69.2452 95.85C69.2309 95.9446 69.1377 96.0109 69.0364 95.9985C69.0018 95.9935 68.9698 95.9802 68.9431 95.9595L67.5539 94.8842C67.5103 94.851 67.4535 94.8378 67.3984 94.8485L65.6316 95.1887C65.5313 95.2078 65.4327 95.1481 65.4122 95.0543C65.4051 95.0219 65.4078 94.9896 65.4202 94.9589L66.1069 93.219L65.2159 91.5953C65.1689 91.5098 65.2053 91.4053 65.2959 91.3622C65.3243 91.348 65.3554 91.3422 65.3874 91.3431L67.282 91.4045L68.5914 90.057C68.6607 89.9857 68.7779 89.9807 68.8534 90.0454C68.881 90.0678 68.8996 90.0977 68.9085 90.1309Z" fill="#B5B5BF"/>
<path fill-rule="evenodd" clip-rule="evenodd" d="M206.324 43.6259L205.88 43.6841C205.478 43.7405 205.184 44.2635 205.223 44.8512C205.246 45.2064 205.386 45.5036 205.582 45.6713L205.504 45.7516C205.175 46.092 205.096 46.7591 205.33 47.2412C205.562 47.7233 206.019 47.8379 206.348 47.4974L207.099 46.719C207.077 46.9711 207.058 47.2306 207.043 47.4998L206.969 48.843C206.936 49.4315 207.235 49.9479 207.637 49.9962C208.039 50.0453 208.392 49.6083 208.426 49.0198L208.516 47.4123C208.54 47.0685 208.569 46.746 208.604 46.4407C208.861 47.1528 208.912 47.702 208.857 48.2201L208.836 48.3969L208.827 48.5058C208.8 49.046 209.057 49.5387 209.429 49.6353C209.827 49.7376 210.205 49.3496 210.276 48.7685L210.301 48.5614C210.378 47.8395 210.343 47.1135 210.143 46.3073C210.247 46.417 210.338 46.5398 210.418 46.6732L210.496 46.8099L210.547 46.8901C210.813 47.2682 211.236 47.2977 211.526 46.9416C211.835 46.5627 211.875 45.8882 211.616 45.4356L211.523 45.2752C211.491 45.2195 211.457 45.1663 211.423 45.1131C211.804 45.1459 212.143 44.7391 212.19 44.1768C212.239 43.5908 211.954 43.0571 211.554 42.9851C210.865 42.8615 210.262 42.8337 209.708 42.9065C209.907 42.5644 210.137 42.2165 210.405 41.8506C210.701 41.448 210.717 40.7719 210.442 40.3397C210.166 39.9084 209.704 39.8846 209.409 40.2865C208.913 40.9618 208.519 41.6043 208.205 42.255C208.083 42.0667 207.956 41.8736 207.822 41.6755L207.506 41.2147C207.218 40.8014 206.756 40.8071 206.472 41.2286C206.19 41.6501 206.194 42.327 206.482 42.7403C206.682 43.0276 206.866 43.2994 207.036 43.5564C206.81 43.5736 206.573 43.5965 206.324 43.6259Z" fill="#B5B5BF"/>
<path fill-rule="evenodd" clip-rule="evenodd" d="M37.3553 64.4026L36.5601 64.8324C32.1008 67.2141 28.4242 68.7103 21.343 71.2343C20.5312 71.5243 19.6513 71.1029 19.3783 70.2933C19.1051 69.4851 19.542 68.5945 20.3539 68.3044L22.1159 67.6722C28.3059 65.4311 31.647 64.0044 35.9116 61.6758C50.2635 53.8394 54.705 39.9188 45.9139 27.0857C45.4329 26.3836 45.6176 25.4124 46.3268 24.9166C47.0352 24.4214 48.0002 24.5881 48.4812 25.2902C58.3685 39.7231 53.2669 55.7144 37.3553 64.4026Z" fill="#B5B5BF"/>
<path fill-rule="evenodd" clip-rule="evenodd" d="M399.063 267.122L399.971 269.104L402.043 269.688C402.155 269.719 402.219 269.834 402.187 269.943C402.177 269.978 402.159 270.009 402.133 270.034L400.559 271.572L400.647 273.785C400.652 273.899 400.561 273.995 400.445 274C400.406 274.001 400.367 273.992 400.332 273.972L398.551 272.976C398.495 272.945 398.428 272.94 398.368 272.964L396.463 273.707C396.355 273.749 396.232 273.698 396.189 273.591C396.174 273.555 396.17 273.515 396.177 273.478L396.578 271.298L395.238 269.56C395.168 269.469 395.186 269.339 395.279 269.27C395.308 269.249 395.341 269.235 395.377 269.23L397.511 268.935L398.691 267.097C398.754 267 398.884 266.971 398.982 267.032C399.018 267.053 399.046 267.085 399.063 267.122Z" fill="#B5B5BF"/>
<path fill-rule="evenodd" clip-rule="evenodd" d="M251.062 295.104L251.971 296.804L254.043 297.304C254.155 297.331 254.219 297.429 254.187 297.523C254.177 297.553 254.159 297.579 254.133 297.601L252.559 298.918L252.647 300.816C252.652 300.914 252.561 300.996 252.445 301C252.406 301.001 252.367 300.994 252.332 300.977L250.55 300.123C250.495 300.097 250.428 300.092 250.368 300.113L248.463 300.749C248.354 300.786 248.232 300.741 248.189 300.65C248.174 300.619 248.17 300.585 248.177 300.553L248.578 298.685L247.238 297.194C247.168 297.116 247.186 297.005 247.279 296.946C247.307 296.928 247.341 296.916 247.377 296.912L249.511 296.659L250.691 295.082C250.754 295 250.884 294.975 250.982 295.027C251.018 295.046 251.046 295.073 251.062 295.104Z" fill="#B5B5BF"/>
<path fill-rule="evenodd" clip-rule="evenodd" d="M212.615 202.122L213.654 204.104L216.02 204.688C216.148 204.72 216.222 204.834 216.186 204.944C216.175 204.977 216.153 205.009 216.124 205.034L214.325 206.571L214.427 208.785C214.431 208.9 214.327 208.996 214.195 209C214.15 209.002 214.106 208.993 214.067 208.973L212.03 207.977C211.967 207.946 211.889 207.941 211.821 207.965L209.644 208.707C209.52 208.75 209.38 208.697 209.331 208.591C209.314 208.556 209.309 208.516 209.317 208.478L209.777 206.299L208.244 204.56C208.163 204.469 208.185 204.339 208.291 204.27C208.324 204.249 208.362 204.235 208.403 204.23L210.842 203.936L212.192 202.096C212.262 202 212.411 201.971 212.524 202.032C212.564 202.053 212.595 202.085 212.615 202.122Z" fill="#B5B5BF"/>
<path fill-rule="evenodd" clip-rule="evenodd" d="M398.08 177.044L399.621 178.476L401.414 177.901C401.511 177.869 401.609 177.945 401.633 178.07C401.641 178.108 401.64 178.15 401.632 178.188L401.135 180.56L402.167 182.671C402.221 182.781 402.195 182.925 402.111 182.994C402.082 183.017 402.05 183.03 402.016 183.03L400.258 183.043C400.202 183.043 400.151 183.076 400.116 183.132L399.027 184.912C398.964 185.012 398.851 185.03 398.772 184.95C398.745 184.923 398.725 184.887 398.714 184.846L398.06 182.496L396.306 181.541C396.214 181.49 396.171 181.353 396.21 181.235C396.222 181.198 396.241 181.166 396.265 181.142L397.72 179.673L397.794 177.225C397.798 177.096 397.882 176.996 397.982 177C398.017 177.002 398.052 177.017 398.08 177.044Z" fill="#B5B5BF"/>
<path fill-rule="evenodd" clip-rule="evenodd" d="M306.08 127.044L307.621 128.476L309.414 127.901C309.511 127.869 309.609 127.945 309.633 128.07C309.641 128.108 309.64 128.15 309.632 128.188L309.135 130.56L310.167 132.671C310.221 132.781 310.195 132.925 310.111 132.994C310.082 133.017 310.05 133.03 310.016 133.03L308.258 133.043C308.202 133.043 308.151 133.076 308.116 133.132L307.027 134.912C306.964 135.012 306.851 135.03 306.772 134.95C306.745 134.923 306.725 134.887 306.714 134.846L306.06 132.496L304.306 131.541C304.214 131.49 304.171 131.353 304.21 131.235C304.222 131.198 304.241 131.166 304.265 131.142L305.72 129.673L305.794 127.225C305.798 127.096 305.882 126.996 305.982 127C306.017 127.002 306.052 127.017 306.08 127.044Z" fill="#B5B5BF"/>
</svg>
