<svg width="350" height="350" viewBox="0 0 450 450" fill="none" xmlns="http://www.w3.org/2000/svg">
<path fill-rule="evenodd" clip-rule="evenodd" d="M31.7514 215.389C31.7514 215.389 12.6211 197.95 39.4598 137.738C66.2985 77.5268 120.652 90.7236 155.395 67.04C206.728 32.0468 185.688 4.66135 249.697 0.247706C330.289 -5.31021 334.854 84.5045 375.174 84.5045C377.827 84.5045 440.615 57.5828 449.805 131.283C454.433 168.399 375.174 225 375.174 225C375.174 225 342.188 256.906 340.376 272.663C332.779 338.739 348.622 414.419 171.078 449.259C148.116 453.765 109.988 437.466 88.953 407.359C72.4733 383.771 6.36796 400.506 0.197443 322.959C-2.91277 283.872 31.7514 215.389 31.7514 215.389Z" fill="#53535F"/>
<path d="M149.625 162.19C150.23 161.806 151.01 162.022 151.367 162.676L152.806 165.298C158.522 175.657 160.808 179.02 163.238 180.541C165.234 181.79 167.299 181.403 171.079 179.008L171.583 178.681C173.961 177.08 184.839 169.009 189.044 166.111C189.636 165.703 190.423 165.891 190.8 166.53C191.178 167.17 191.004 168.019 190.412 168.427L189.765 168.877C185.078 172.158 174.549 179.969 172.685 181.172C168.11 184.128 165.143 184.792 162.17 183.044L161.962 182.918C158.769 180.919 156.283 177.083 149.176 164.071C148.82 163.419 149.021 162.576 149.625 162.19Z" fill="white"/>
<path d="M170.762 180.01C171.244 179.929 171.686 180.353 171.75 180.957C172.05 183.762 172.766 186.575 173.905 189.399C174.124 189.942 173.951 190.606 173.518 190.881C173.084 191.156 172.556 190.938 172.336 190.395C171.111 187.356 170.334 184.306 170.008 181.249C169.943 180.645 170.281 180.091 170.762 180.01Z" fill="white"/>
<path fill-rule="evenodd" clip-rule="evenodd" d="M317.674 261.404C317.448 262.004 316.952 262.835 316.377 263.62L316.873 264.16L317.448 264.802L317.575 264.931C317.632 264.983 317.675 265.014 317.706 265.023C317.893 265.051 318.023 265.231 317.997 265.427C317.97 265.619 317.799 265.758 317.613 265.729C317.446 265.725 316.834 265.475 316.106 264.854C315.973 264.742 315.841 264.612 315.708 264.469C315.287 264.962 314.863 265.385 314.496 265.647C313.956 266.038 313.488 266.069 313.265 265.91C313.045 265.757 312.835 265.239 313.192 264.193C313.248 264.003 313.44 263.904 313.618 263.963C313.797 264.022 313.895 264.221 313.839 264.41C313.784 264.604 313.777 264.782 313.776 264.924L313.983 264.776C314.057 264.721 314.132 264.658 314.201 264.586C314.451 264.328 314.731 264.013 315.011 263.674C314.567 263.131 314.114 262.495 313.747 261.761C313.568 261.402 313.425 261.022 313.29 260.622C313.196 260.399 313.293 260.137 313.506 260.037C313.72 259.939 313.97 260.041 314.064 260.265C314.472 261.162 314.993 261.934 315.509 262.597L315.68 262.813C316.149 262.17 316.552 261.518 316.735 261.022C316.836 260.752 317.129 260.617 317.386 260.721C317.647 260.828 317.775 261.134 317.674 261.404Z" fill="white"/>
<path fill-rule="evenodd" clip-rule="evenodd" d="M130.145 92.4112L129.39 92.2525C125.171 91.34 121.936 90.2205 115.893 87.7835C115.2 87.5046 114.833 86.6245 115.074 85.8184C115.314 85.0133 116.07 84.5866 116.764 84.8655L118.269 85.4686C123.57 87.5716 126.545 88.5363 130.606 89.3691C144.275 92.1717 154.509 84.0121 155.347 68.4487C155.392 67.5973 156.023 66.9498 156.755 67.0031C157.486 67.0563 158.043 67.7895 157.997 68.6409C157.056 86.1446 145.3 95.5183 130.145 92.4112Z" fill="#B5B5BF"/>
<path fill-rule="evenodd" clip-rule="evenodd" d="M164.21 107.104L164.729 108.803L165.913 109.304C165.977 109.331 166.014 109.429 165.995 109.523C165.989 109.553 165.979 109.579 165.965 109.6L165.065 110.919L165.115 112.816C165.118 112.913 165.066 112.996 165 113C164.977 113.001 164.955 112.993 164.935 112.976L163.918 112.122C163.885 112.096 163.847 112.092 163.813 112.112L162.724 112.748C162.663 112.785 162.592 112.741 162.568 112.649C162.559 112.619 162.557 112.585 162.561 112.552L162.79 110.684L162.025 109.194C161.984 109.116 161.995 109.005 162.048 108.946C162.064 108.927 162.083 108.916 162.104 108.911L163.323 108.659L163.998 107.083C164.034 107 164.108 106.975 164.164 107.027C164.184 107.046 164.2 107.073 164.21 107.104Z" fill="#B5B5BF"/>
<path d="M342.455 61.0035C343.202 60.9507 343.849 61.5035 343.903 62.2375C343.955 62.9716 343.394 63.6082 342.648 63.661C337.304 64.0362 333.107 66.0726 331.242 71.1117C331.13 71.415 331.038 71.7082 330.962 71.986L330.911 72.1773L330.993 72.0097C333.34 67.2948 337.869 64.0189 343.116 63.1874L343.458 63.1364C344.199 63.0344 344.884 63.5426 344.987 64.2712C345.09 64.9998 344.574 65.6737 343.833 65.7748C338.958 66.4442 334.789 69.6308 332.97 74.2009L332.852 74.5078C331.988 76.8438 329.913 77.964 328.578 75.965C327.763 74.7455 327.817 72.5798 328.697 70.201C330.93 64.1655 336.055 61.4525 342.455 61.0035Z" fill="white"/>
<path d="M336.781 50.0036C337.476 49.9492 338.08 50.5186 338.129 51.2746C338.179 52.0306 337.656 52.6863 336.96 52.7407C329.039 53.3551 322.093 58.9484 319.33 67.2037C318.51 69.651 318.358 71.7427 318.651 72.8026L318.687 72.9208L318.743 72.8336C318.884 72.601 319.043 72.267 319.198 71.8346L319.264 71.6433C322.184 62.9227 329.262 56.8163 337.563 55.5566C338.253 55.4515 338.891 55.9749 338.988 56.7253C339.084 57.4757 338.603 58.1689 337.913 58.274C330.65 59.3761 324.443 64.6458 321.769 72.1958L321.636 72.5813C320.553 75.8155 318.213 77.2122 316.716 74.7359C315.691 73.039 315.762 69.8367 316.958 66.2648C320.065 56.9833 327.875 50.694 336.781 50.0036Z" fill="white"/>
<path d="M328.533 37.0033C329.201 36.9533 329.781 37.4846 329.829 38.1913C329.877 38.8981 329.374 39.5118 328.706 39.5618C317.849 40.3808 308.328 47.8381 304.54 58.8448C303.252 62.5906 303.144 65.7655 303.848 67.0851L303.912 67.1974C304.016 67.3648 303.981 67.3701 304.008 67.3464L304.024 67.335C304.381 67.1281 304.852 66.4231 305.282 65.2526L305.367 65.0123C309.237 53.7706 318.617 45.8977 329.62 44.2738C330.283 44.1756 330.895 44.6649 330.988 45.3663C331.08 46.0678 330.618 46.7158 329.954 46.814C319.964 48.2888 311.43 55.3612 307.787 65.4884L307.646 65.89C306.301 69.8006 303.601 71.3675 301.885 68.6055C300.605 66.5459 300.699 62.5081 302.262 57.968C306.38 46.0012 316.731 37.8941 328.533 37.0033Z" fill="white"/>
<path d="M314.679 25.0245C315.343 24.8862 315.986 25.3466 316.116 26.0542C316.246 26.7618 315.814 27.447 315.15 27.5862C305.225 29.6571 297.243 37.7366 294.929 48.4231C294.145 52.0404 294.382 54.9812 295.151 56.1028L295.254 56.2438L295.261 56.2634L295.275 56.2509C295.551 55.9868 295.873 55.3105 296.122 54.2612L296.174 54.031C298.555 43.0401 306.417 34.5325 316.46 31.6754C317.113 31.4898 317.784 31.903 317.958 32.5998C318.132 33.2958 317.745 34.0114 317.091 34.197C308.044 36.7711 300.935 44.3634 298.654 54.2014L298.561 54.6181C297.721 58.495 295.31 60.3446 293.357 57.8909C291.929 56.0966 291.578 52.2884 292.543 47.836C295.077 36.1376 303.814 27.2918 314.679 25.0245Z" fill="white"/>
<path d="M175.465 191.099L176.196 190.827C183.095 188.282 188.915 187.16 190.394 188.706C191.691 190.062 192.847 192.517 193.942 196.119C194.15 196.804 193.779 197.533 193.112 197.747C192.446 197.961 191.737 197.579 191.528 196.894C190.581 193.78 189.614 191.683 188.7 190.647L188.662 190.606L188.63 190.608C188.456 190.572 188.197 190.553 187.866 190.56C187.138 190.574 186.142 190.707 184.952 190.948C182.505 191.447 179.412 192.373 176.34 193.538C171.205 195.485 166.927 197.773 164.563 199.84C163.695 200.598 162.112 198.485 163.636 197.274C166.379 195.096 170.54 192.967 175.465 191.099Z" fill="white"/>
<path d="M172.444 165.043C172.444 169.539 177.002 174.407 177.971 174.684C178.66 174.88 166.801 182.94 166.801 182.94C162.516 183.528 160 179.75 160 174.122C160 173.378 172.444 164.299 172.444 165.043Z" fill="white"/>
<path fill-rule="evenodd" clip-rule="evenodd" d="M158.48 167.921C160.115 167.544 161.226 165.932 160.961 164.319C160.696 162.706 159.156 161.702 157.52 162.079C155.885 162.455 154.774 164.068 155.039 165.681C155.304 167.294 156.845 168.297 158.48 167.921Z" fill="#FFB61D"/>
<path d="M307.005 17.0198C307.709 16.8944 308.379 17.3784 308.501 18.1004C308.623 18.8232 308.152 19.5115 307.449 19.6369C304.103 20.2362 300.731 22.3166 297.252 25.6257C292.735 29.9227 289.752 35.8598 288.108 43.7765C286.782 50.1539 288.005 58.1242 291.469 65.13C295.41 73.1003 302.382 75.0708 310.51 76.5964C318.856 78.1619 321.162 77.1948 329.047 74.3144L329.773 74.0438C330.85 73.6242 335.889 71.5992 337.101 71.2224C339.65 70.4305 341.389 70.4968 342.65 71.8771C343.138 72.412 343.113 73.2528 342.592 73.755C342.104 74.2254 341.355 74.2318 340.86 73.7895L340.764 73.6951C340.393 73.2883 339.623 73.241 338.076 73.6969L337.849 73.765C336.684 74.1273 331.22 76.3303 330.512 76.5964C321.995 79.7901 319.107 80.9098 310.046 79.209C301.067 77.5245 293.45 75.0018 289.164 66.3332C285.439 58.7989 284.126 50.212 285.579 43.2216C287.334 34.7728 290.585 28.3472 295.495 23.676C299.339 20.0201 303.167 17.7072 307.005 17.0198Z" fill="white"/>
<path d="M366.51 124.018C358.987 123.639 353.063 129.358 353.001 137.035C352.948 143.503 356.649 148.829 361.734 149.861C363.791 150.277 367.738 149.775 370.666 148.159C375.113 145.812 378.512 140.988 378.94 136.877C379.639 130.179 374.13 124.401 366.51 124.018Z" fill="white"/>
<path d="M234.784 123.491C236.846 128.495 240.048 140.056 238.663 140C234.816 139.845 229.669 132.741 226.069 123.133L225.785 122.361C222.641 113.639 220.758 108.159 222.945 107.109C225.206 106.023 230.528 113.16 234.784 123.491Z" fill="white"/>
<path fill-rule="evenodd" clip-rule="evenodd" d="M222 107.108C224.442 106.075 230.273 112.557 234.869 122.389C237.095 127.153 238.605 131.723 239 135C239 135 231.48 118.216 226.893 112.068C225.132 109.707 222 107.108 222 107.108Z" fill="#E7EAEE"/>
<path d="M220.632 150.05C220.808 149.319 221.472 148.891 222.114 149.091C222.756 149.292 223.133 150.047 222.957 150.778C222.73 151.718 219.535 154.183 212.566 159.072L208.167 162.135C199.482 168.15 193.687 172 192.963 172C188.168 172 183.847 166.853 180.692 158.732C177.938 151.641 176.507 143.2 177.154 137.67C177.355 135.943 182.41 131.474 190.215 125.486L191.333 124.634C198.238 119.4 204.141 115.518 206.276 115.027C206.929 114.877 207.565 115.359 207.697 116.101C207.779 116.566 188.746 134.821 186.886 146.937C185.627 155.141 190.387 169.123 192.749 169.25L192.963 169.255C192.77 169.255 192.832 169.205 192.855 169.19L193.072 169.063C193.232 168.967 193.423 168.85 193.641 168.713L194.644 168.075C195.029 167.827 195.456 167.549 195.924 167.241L197.121 166.45C199.406 164.933 202.257 162.999 205.165 160.997L207.931 159.085C211.294 156.746 214.333 154.59 216.617 152.917L217.793 152.046C218.521 151.503 219.137 151.032 219.629 150.642L219.808 150.499C220.079 150.282 220.305 150.094 220.481 149.941C220.481 149.941 220.679 149.851 220.632 150.05Z" fill="white"/>
<path fill-rule="evenodd" clip-rule="evenodd" d="M224.331 124.414C221.287 117.286 219.943 110.754 220.962 106.798C219.12 107.415 216.819 108.525 214.534 109.908C211.497 111.745 209.087 113.801 209.031 114.247C208.444 118.909 210.697 127.98 214.441 136.066C218.446 144.715 223.211 150.271 226.899 150.271C227.252 150.271 228.262 150.051 229.275 149.678C230.717 149.147 232.066 148.373 233.172 147.36C233.722 146.856 234.291 146.287 234.885 145.651L235.601 144.87C236.024 144.398 236.46 143.891 237.141 143.087L238.088 141.971L238.129 141.923C233.384 140.094 228.421 133.646 224.709 125.285L224.331 124.414ZM206.534 113.896C206.926 110.786 217.963 104.063 223 103.628C223.211 103.489 223.436 103.368 223.677 103.267C228.039 101.428 234.685 109.306 240.018 120.389L240.383 121.159C242.79 126.287 244.431 131.235 244.878 134.935C245.413 139.358 244.199 142.29 241.016 142.441C240.931 142.789 240.716 143.081 240.43 143.257L240.381 143.283L240.256 143.414C240.132 143.549 239.985 143.717 239.758 143.983L238.193 145.825C237.625 146.486 237.223 146.933 236.678 147.516C236.041 148.198 235.426 148.814 234.824 149.366C232.386 151.6 228.781 152.928 226.899 152.928C225.9 152.928 224.89 152.684 223.879 152.216C222.798 153.405 219.472 155.72 213.412 159.661L208.818 162.626C199.75 168.451 193.698 172.178 192.942 172.178C191.227 172.178 189.57 171.594 188.001 170.509C187.986 170.519 187.972 170.53 187.956 170.54L187.315 170.975C185.084 172.501 181.517 175.039 178.208 177.393L178.207 177.394L178.001 177.54C178.43 180.766 179.403 184.002 180.926 187.248C186.335 185.483 190.619 184.887 191.855 186.214C193.147 187.6 194.297 190.111 195.388 193.793C195.596 194.493 195.226 195.238 194.562 195.457C193.898 195.676 193.191 195.286 192.984 194.586C192.041 191.401 191.078 189.258 190.168 188.199L190.13 188.157L190.098 188.159C189.925 188.121 189.667 188.103 189.338 188.11C188.612 188.124 187.621 188.26 186.436 188.507C183.999 189.016 180.919 189.963 177.86 191.154C170.869 193.875 165.472 197.248 164.363 199.803C164.038 200.55 164.08 201.645 164.468 203.32L164.54 203.623C164.599 203.86 164.659 204.095 164.739 204.393L165.194 206.091L165.213 206.168C165.225 206.219 165.239 206.274 165.255 206.337C165.43 207.047 165.026 207.773 164.353 207.957C163.679 208.141 162.991 207.715 162.817 207.004L162.594 206.145L162.221 204.759C162.179 204.595 162.14 204.443 162.102 204.29C161.512 201.889 161.418 200.207 162.073 198.696C163.185 196.135 166.663 193.481 171.506 191.068L170.453 188.198L170.193 187.472C169.793 186.339 169.329 184.804 169.044 183.685C165.262 185.836 162.626 186.196 159.986 184.679L159.781 184.557C159.259 184.239 158.756 183.871 158.248 183.423L143.49 192.88C143.628 193.192 143.765 193.507 143.906 193.824C144.568 195.321 143.4 196.382 141.609 197.208L141.415 197.295C139.876 197.967 138.486 198.121 137.659 197.164C134.228 193.19 130.595 183.684 132.549 181.509C132.924 181.091 133.915 180.47 135.788 179.433L135.937 179.351C135.976 179.323 136.016 179.298 136.058 179.273L149.853 171.388C149.885 171.369 149.917 171.353 149.95 171.338C149.098 169.852 148.164 168.197 147.13 166.35C146.974 166.082 146.915 165.77 146.956 165.468C146.981 165.277 147.045 165.091 147.149 164.923C147.206 164.832 147.275 164.746 147.353 164.67C150.19 161.833 154.055 158.873 158.903 155.687L159.49 155.303C161.589 153.938 165.844 151.378 169.459 149.202C172.264 147.515 174.683 146.059 175.411 145.573L175.588 145.449C175.851 145.246 176.165 145.167 176.465 145.2C176.226 142.896 176.205 140.754 176.434 138.938C176.644 137.267 181.923 132.94 190.073 127.142L191.241 126.317C198.072 121.516 203.964 117.889 206.46 117.118C206.393 115.928 206.415 114.844 206.534 113.896ZM206.736 119.812C204.29 120.754 198.165 124.591 191.481 129.345L190.411 130.111C187.403 132.277 184.624 134.387 182.525 136.108L181.942 136.591C181.006 137.374 180.248 138.049 179.698 138.59C179.422 138.861 179.205 139.093 179.052 139.279L178.945 139.411C178.921 139.437 178.915 139.427 178.924 139.344L178.931 139.288C178.927 139.309 178.926 139.328 178.924 139.344L178.89 139.629C177.68 150.841 185.364 169.15 192.719 169.516L192.892 169.519C192.906 169.52 192.923 169.521 192.942 169.521L192.892 169.519C192.753 169.512 192.808 169.47 192.829 169.457L193.056 169.334C193.223 169.241 193.422 169.129 193.651 168.996L194.699 168.378C195.099 168.138 195.546 167.868 196.035 167.57L197.284 166.804C199.67 165.335 202.647 163.464 205.684 161.526L208.572 159.673C212.084 157.409 215.257 155.322 217.641 153.701L218.87 152.859C219.631 152.332 220.273 151.876 220.787 151.499L220.974 151.361C221.246 151.159 221.474 150.983 221.655 150.838C218.411 148.327 215.217 143.689 212.382 137.669L212.178 137.232C209.446 131.33 207.469 124.94 206.736 119.812ZM176.813 147.776C175.904 148.379 173.224 149.994 170.242 151.791C166.708 153.92 162.75 156.304 160.813 157.565C156.236 160.541 152.545 163.301 149.805 165.899L150.713 167.515C154.684 174.544 156.983 178.243 158.833 180.333C158.219 178.795 157.9 176.844 157.9 174.396C157.9 174.283 157.913 174.174 157.938 174.069C157.816 173.56 157.988 173.002 158.414 172.672L159.272 171.999C159.786 171.589 160.633 170.906 161.595 170.131C163.701 168.432 166.362 166.287 167.311 165.569C170.298 163.312 172.499 162.046 174.503 161.606C175.461 161.397 176.204 161.994 176.42 162.92L176.455 163.088C176.505 163.363 176.514 163.635 176.513 164.226L176.513 164.413C176.502 166.624 176.71 167.9 177.597 169.373C178.204 170.382 179.097 171.302 180.34 172.126C180.47 172.212 180.58 172.319 180.669 172.441C182.674 171.02 184.553 169.698 185.939 168.75C183.755 166.52 181.787 163.29 180.129 159.331C178.584 155.644 177.438 151.579 176.813 147.776ZM242.381 135.271C241.974 131.911 240.419 127.224 238.126 122.338C233.393 112.254 227.126 104.674 224.611 105.734C222.181 106.759 222.815 114.053 226.311 122.568L226.627 123.322C230.63 132.701 236.353 139.637 240.631 139.788C242.171 139.842 242.772 138.515 242.381 135.271ZM151.251 173.585C153.435 177.31 155.031 179.773 156.422 181.485L142.431 190.45C140.998 187.135 139.716 184.05 138.472 180.915L151.054 173.724C151.124 173.684 151.19 173.636 151.251 173.585ZM178.512 188.086C177.154 185.123 176.216 182.152 175.701 179.176C173.893 180.459 172.319 181.57 171.308 182.264C171.482 183.18 172.125 185.356 172.68 186.903L173.713 189.709L173.812 189.983C174.828 189.531 175.888 189.09 176.989 188.662L177.715 188.382C177.983 188.281 178.248 188.182 178.512 188.086ZM178.467 174.004C177.177 173.061 176.188 171.988 175.472 170.798C174.312 168.873 174.007 167.229 173.994 164.745L173.994 164.522L173.815 164.592C172.539 165.115 171.015 166.061 169.1 167.487L168.778 167.729C167.867 168.418 165.272 170.51 163.18 172.197L163.179 172.198C162.016 173.135 161.009 173.947 160.531 174.325L160.418 174.412C160.421 178.832 161.467 180.86 163.412 181.844L163.567 181.92C164.031 182.136 164.361 182.245 165.306 182.517C165.325 182.523 165.344 182.529 165.362 182.536C166.343 182.188 167.467 181.606 168.809 180.776L169.31 180.459C170.418 179.73 173.394 177.613 176.668 175.284C177.26 174.862 177.863 174.433 178.467 174.004ZM136.246 182.186L136.439 182.671C137.776 186.017 139.166 189.329 140.744 192.943L141.357 194.345C141.156 194.488 140.892 194.639 140.601 194.773C140.183 194.965 139.76 195.101 139.441 195.146L139.339 195.156L139.186 194.963C137.994 193.414 136.61 190.784 135.611 188.167C135.078 186.774 134.699 185.496 134.528 184.514C134.458 184.114 134.426 183.778 134.429 183.523L134.436 183.355C134.438 183.314 134.438 183.293 134.429 183.289L134.467 183.263C134.679 183.108 135.224 182.773 136.031 182.309L136.246 182.186ZM153.616 179.259C153.129 178.735 152.332 178.727 151.835 179.241C150.962 180.145 149.738 180.987 147.601 182.239L145.426 183.512C144.851 183.857 144.381 184.155 143.955 184.448C143.598 184.691 143.281 184.926 142.994 185.16C142.444 185.607 142.342 186.442 142.768 187.022C143.193 187.604 143.984 187.71 144.534 187.261C144.761 187.076 145.024 186.883 145.325 186.676C145.603 186.486 145.909 186.289 146.263 186.071L146.957 185.652L149.166 184.36C151.289 183.103 152.568 182.205 153.599 181.138C154.095 180.625 154.103 179.784 153.616 179.259Z" fill="#B5B5BF"/>
<path d="M125 315.437C131.285 353.064 154.84 381.35 184.898 388.019C190.415 389.244 199.97 389.404 209.863 388.029C222.609 386.258 235.015 382.195 245.925 375.609C275.895 358.312 298.636 323.011 301.584 292.11C304.173 264.965 294.516 239.889 277.034 222C277.034 222 222.116 250.965 195.158 267.429C171.7 281.755 125 315.437 125 315.437Z" fill="white"/>
<path d="M253 202.803C241.762 196.715 227.682 191.905 213.876 191.129C163.239 188.287 123.416 232.706 123 290C123 290 179.516 250.471 208.876 231.399C223.483 221.91 253 202.803 253 202.803Z" fill="white"/>
<path fill-rule="evenodd" clip-rule="evenodd" d="M356.998 174.27C356.827 183.658 347.605 199.285 332.78 216.968C322.042 229.777 309.545 242.159 299.068 250.502L298.415 251.017L298.848 253.091C301.396 265.12 304.723 278.197 303.466 291.385C300.416 323.392 277.175 359.503 246.463 377.245C235.262 384.015 222.53 388.19 209.469 390.007L208.224 390.172C198.486 391.408 189.167 391.203 183.472 389.938C161.368 385.029 142.654 368.384 131.339 344.293C131.302 344.213 131.272 344.129 131.25 344.045C129.761 344.96 127.756 345.983 126.841 346.317L124.333 347.23C97.3108 357.022 70.5203 365.213 59.5765 360.101C55.4098 358.155 53.9855 354.411 55.7286 349.382C57.422 344.495 62.1166 338.198 69.9941 330.361L70.4269 329.932C77.8904 322.561 94.4664 309.092 120.154 289.525L120.16 289.166C121.414 231.188 163.22 186.99 215.769 190.598C231.842 191.701 244.642 197.854 251.035 201.633L253.847 200.007C280.216 184.818 301.375 174.141 317.519 167.751C344.067 157.241 357.196 162.154 356.998 174.27ZM318.383 173.979C288.697 185.73 241.781 212.16 176.46 254.674L174.474 255.967C123.611 289.137 89.9303 314.336 72.1203 331.922L71.2427 332.795L70.4106 333.636C57.0415 347.243 54.6719 354.866 60.574 357.623C70.6771 362.343 97.8078 354.386 124.378 344.998L126.841 344.123C129.211 343.277 130.782 342.792 131.755 342.567C131.797 342.535 131.843 342.506 131.892 342.479C132.225 342.298 132.597 342.291 132.918 342.427C132.987 342.442 133.033 342.465 133.057 342.497C133.273 342.624 133.457 342.819 133.577 343.074C144.56 366.461 162.659 380.712 183.979 385.447C189.513 386.676 198.849 386.856 208.565 385.561L209.148 385.482C221.908 383.707 234.335 381.478 245.257 374.878C275.269 357.54 298.008 322.208 300.972 291.109C302.238 277.818 300.622 264.771 296.325 252.628C295.97 252.895 295.618 253.157 295.269 253.414C294.61 253.899 294.856 253.113 296.008 251.059C296.069 250.791 296.207 250.546 296.404 250.364L296.759 249.758C296.883 249.547 297.013 249.328 297.151 249.099L298.637 247.749C312.639 234.991 323.4 224.127 330.919 215.158L331.778 214.128C345.691 197.357 354.339 182.541 354.482 174.221C354.638 165.092 343.458 164.052 318.383 173.979ZM192.509 344.751C195.872 355.824 190.784 362.947 181.827 363.315C173.551 363.655 166.015 358.037 166.399 350.054C166.732 343.155 171.117 335.779 176.516 333.071C183.045 329.795 189.173 333.769 192.509 344.751ZM177.838 336.132C173.518 338.299 169.802 344.549 169.529 350.229C169.257 355.887 175.062 360.214 181.707 359.942C188.656 359.656 192.222 354.663 189.53 345.8C186.728 336.573 182.466 333.81 177.838 336.132ZM260.891 322.186C265.183 330.921 264.059 339.503 257.461 343.349L257.275 343.455L257.18 343.558C248.331 352.997 237.276 354.142 230.068 347.301L229.82 347.061C221.517 338.866 223.494 324.789 236.708 313.752C245.212 306.65 255.599 311.412 260.891 322.186ZM238.354 316.039C226.359 326.058 224.672 338.057 231.634 344.927C236.628 349.855 244.007 350.127 250.898 345.345L251.032 345.248L250.982 345.237C250.505 345.102 250.122 344.687 250.013 344.146L249.992 344.009C249.904 343.215 250.432 342.496 251.168 342.402C252.853 342.187 254.315 341.749 255.555 341.122L255.724 341.032L255.929 340.803C256.738 339.886 257.527 338.889 258.293 337.81L258.547 337.447C258.834 337.033 259.288 336.832 259.733 336.87L259.768 336.874L259.786 336.838C261.394 333.412 261.014 328.771 258.658 323.83L258.517 323.54C253.915 314.171 245.313 310.226 238.354 316.039ZM318.234 212.202C317.544 214.844 315.443 218.469 312.222 222.763C306.608 230.247 298.175 238.959 290.803 244.916L292.438 242.978C292.422 242.963 292.409 242.942 292.397 242.919L291.832 241.802C288.143 234.548 284.033 227.394 277.392 221.561C260.2 229.197 240.486 239.634 222.527 250.548L216.639 254.133C173.288 280.587 150.48 296.424 126.09 315.895C127.012 320.36 128.171 324.718 129.56 328.941C129.779 329.604 126.93 332.084 126.408 331.777C121.543 335.289 113.924 337.84 109.586 337.973C105.359 338.102 102.917 336.258 104.175 332.583C105.228 329.508 109.192 325.122 116.327 319.245L117.141 318.58L118.785 317.249C145.64 295.591 172.224 278.016 221.295 248.196L223.349 246.955C257.005 226.717 295.978 208.485 313.829 206.803C317.499 206.457 319.163 208.644 318.234 212.202ZM122.825 318.515L117.199 323.088C112.18 327.188 108.561 330.22 106.607 332.165L106.463 332.309C104.077 334.719 106.777 335.356 109.515 335.273C113.663 335.147 120.016 331.759 125.394 328.675C124.4 325.358 123.542 321.967 122.825 318.515ZM210.833 303.852C211.503 304.035 211.91 304.77 211.739 305.493C211.569 306.216 210.887 306.653 210.216 306.47C206.845 305.547 204.854 305.902 204.208 306.88C203.779 307.529 204.017 308.635 204.818 309.341C205.444 309.893 206.278 310.156 206.852 310.022C207.35 309.905 207.631 309.49 207.631 308.454C207.631 307.708 208.192 307.103 208.884 307.103C209.576 307.103 210.137 307.708 210.137 308.454C210.137 310.708 209.09 312.261 207.386 312.661C206.014 312.982 204.418 312.477 203.231 311.431C201.478 309.886 200.906 307.22 202.166 305.314C203.545 303.224 206.571 302.686 210.833 303.852ZM155.77 298.895C157.703 299.519 158.535 301.118 158.798 303.516L158.824 303.777L158.856 304.172C158.86 304.237 158.864 304.305 158.869 304.377L158.935 305.748L158.954 306.057C158.965 306.193 158.976 306.303 158.989 306.402L159.022 306.608L159.043 306.7L159.078 306.733C159.464 307.141 159.567 307.781 159.317 308.309L159.253 308.429C158.877 309.056 158.102 309.236 157.52 308.831C156.719 308.275 156.538 307.703 156.441 306.061L156.361 304.452C156.352 304.308 156.341 304.182 156.328 304.04C156.186 302.467 155.831 301.734 155.05 301.482C152.86 300.775 151.604 301.496 151.206 303.073C150.851 304.478 151.365 305.955 152.263 306.364L152.49 306.456C153.077 306.726 153.388 307.438 153.19 308.107C152.98 308.817 152.275 309.21 151.616 308.984C149.228 308.164 148.094 305.109 148.787 302.364C149.56 299.302 152.248 297.758 155.77 298.895ZM246.207 278.218C249.678 283.475 249.033 290.164 243.463 293.19C242.845 293.527 242.091 293.26 241.779 292.593C241.467 291.928 241.716 291.115 242.334 290.78C246.366 288.588 246.827 283.816 244.163 279.783C241.577 275.865 237.976 275.435 235.501 279.668C232.878 284.156 233.069 286.79 234.958 287.976C236.457 288.919 238.872 288.72 239.535 287.95L239.599 287.866C240.001 287.259 240.783 287.117 241.347 287.549C241.911 287.982 242.043 288.825 241.641 289.432C240.248 291.541 236.271 291.928 233.694 290.31C230.395 288.238 230.08 283.875 233.38 278.229C236.913 272.183 242.677 272.873 246.207 278.218ZM194.235 270.474C194.887 270.474 195.422 271.011 195.483 271.695L195.489 271.825C195.489 272.063 195.694 272.328 196.43 272.91L197.126 273.448C197.884 274.043 198.25 274.414 198.596 275.003C199.386 276.349 199.835 277.72 199.835 279.332C199.835 283.458 194.079 289.071 187.797 291.569C180.266 294.563 174.097 292.343 172.418 284.019C172.27 283.289 172.7 282.57 173.377 282.412C174.053 282.253 174.72 282.716 174.868 283.445C176.17 289.906 180.669 291.524 186.929 289.035C192.335 286.886 197.327 282.017 197.327 279.332C197.327 278.292 197.034 277.395 196.477 276.447L196.401 276.332C196.274 276.159 196.074 275.97 195.715 275.683L194.888 275.041C193.514 273.95 192.982 273.214 192.982 271.825C192.982 271.079 193.543 270.474 194.235 270.474ZM200.119 195.629L199.328 195.725C156.553 201.267 124.465 238.122 122.715 287.578L127.304 284.1C140.478 274.139 155.768 262.76 173.176 249.964L176.568 247.756C186.695 241.174 196.378 234.98 205.621 229.17C205.452 228.851 205.405 228.46 205.52 228.084C206.166 225.959 206.763 224.531 207.858 223.101C211.282 218.625 215.974 216.439 219.299 219.249C219.626 219.526 219.791 219.943 219.778 220.359L222.731 218.544C232.03 212.841 240.83 207.575 249.134 202.737L245.89 201.743C241.08 200.284 235.096 198.554 229.134 197.223C229.189 201.495 226.22 204.907 221.287 207.255C217.093 209.25 211.629 210.324 207.743 210.074C200.474 209.607 196.383 202.739 200.119 195.629ZM275.154 254.272C278.221 263.3 275.691 271.51 268.031 271.457C257.118 271.38 246.461 261.115 248.184 251.919C248.952 247.817 251.816 244.188 256.794 242.377C264.744 239.485 272.031 245.082 275.154 254.272ZM257.596 244.936C253.482 246.433 251.236 249.279 250.641 252.454C249.275 259.752 258.552 268.689 268.047 268.756C273.486 268.794 275.356 262.727 272.799 255.201C270.094 247.237 264.044 242.59 257.596 244.936ZM165.422 212.969L165.511 213.108L166.114 214.141C166.41 214.667 166.675 215.181 166.927 215.737C169.703 221.851 169.632 229.867 164.933 240.994C162.805 246.035 157.383 252.809 152.648 256.852C146.602 262.014 142.087 263.187 136.699 262.549L135.1 262.347L134.905 262.327C134.798 262.319 134.73 262.319 134.655 262.321L134.545 262.326C134.462 262.33 134.433 262.326 134.428 262.314V262.305L134.388 262.375C134.024 262.937 133.318 263.121 132.751 262.781C132.146 262.419 131.928 261.597 132.265 260.945C132.716 260.072 133.468 259.678 134.426 259.629C134.681 259.616 134.949 259.625 135.269 259.654L135.642 259.692L136.677 259.828C141.585 260.469 145.489 259.517 151.091 254.736C155.537 250.939 160.707 244.48 162.651 239.876C167.048 229.463 167.112 222.29 164.675 216.923C164.512 216.566 164.343 216.226 164.16 215.884L163.897 215.412L163.371 214.517C163.004 213.886 163.181 213.052 163.767 212.656C164.317 212.284 165.031 212.429 165.422 212.969ZM314.048 209.493C306.034 210.248 293.472 214.512 278.99 220.856L279.413 221.259C283.444 225.154 291.576 234.391 294.121 240.98L296.656 237.951C302.912 230.456 307.451 224.827 310.273 221.065L310.844 220.294C313.541 216.607 315.284 213.526 315.821 211.47L315.897 211.158C316.231 209.675 315.844 209.323 314.048 209.493ZM194.021 213.879C197.14 215.504 198.407 219.122 196.354 222.401C195.967 223.02 195.188 223.183 194.614 222.766C194.04 222.349 193.889 221.51 194.275 220.892C195.405 219.088 194.767 217.268 192.929 216.311C190.994 215.303 188.873 215.882 187.778 218.083C186.77 220.112 186.7 222.856 187.506 224.655C188.213 226.233 189.241 226.536 190.811 225.263C191.365 224.814 192.151 224.933 192.567 225.53C192.983 226.125 192.872 226.972 192.32 227.42C189.458 229.74 186.627 228.908 185.248 225.828C184.092 223.247 184.184 219.592 185.568 216.807C187.334 213.257 190.936 212.273 194.021 213.879ZM209.792 224.819C209.208 225.582 208.79 226.388 208.403 227.422C211.633 225.401 214.808 223.426 217.929 221.498L217.838 221.441L217.751 221.374C215.837 219.755 212.463 221.327 209.792 224.819ZM204.446 195.217L203.35 195.3L203.276 195.4C198.943 201.299 200.613 206.086 206.53 206.767C210.78 207.255 222.062 203.858 223.387 202.666C224.675 201.505 226.305 198.835 226.557 196.671C222.727 195.895 218.982 195.326 215.64 195.141C212.226 194.954 208.859 194.957 205.548 195.147L204.446 195.217Z" fill="#B5B5BF"/>
<path d="M319.109 176.428C345.791 166.099 345.179 169.164 319.978 178.919C290.144 190.468 177.526 262.835 177.526 262.835C126.408 295.433 122.584 290.401 172.131 258.681L175.185 256.729C175.76 256.361 232.17 218.857 272.479 198.792C277.015 196.534 316.072 177.604 319.109 176.428Z" fill="white"/>
<path fill-rule="evenodd" clip-rule="evenodd" d="M365.09 123.022C356.654 122.552 350.069 129.692 350.001 139.034C349.943 146.861 354.066 153.507 359.974 154.833C361.53 155.183 366.019 155.183 369.913 152.803L370.236 152.61C375.146 149.582 378.485 143.822 378.932 139.084C379.724 130.683 373.526 123.492 365.09 123.022ZM351.837 139.05C351.837 138.99 351.838 138.929 351.839 138.869C351.892 138.851 351.944 138.827 351.994 138.797C358.608 134.917 362.691 131.96 364.321 129.824C365.398 128.415 365.922 126.825 365.88 125.097C366.991 125.231 368.049 125.496 369.042 125.876C369.036 125.928 369.034 125.981 369.035 126.035C369.116 128.522 368.507 130.509 367.213 132.056C365.726 133.836 363.926 135.528 361.877 137.123C359.688 138.83 357.337 140.336 354.985 141.627C354.437 141.928 353.915 142.202 353.425 142.45L352.715 142.8C352.613 142.849 352.519 142.894 352.432 142.935L352.221 143.032C351.961 141.771 351.827 140.435 351.837 139.05ZM352.737 144.965C353.319 146.722 354.161 148.278 355.204 149.546L355.753 149.201C364.384 143.759 369.743 139.484 371.77 136.468C373.821 133.418 374.552 131.077 374.093 129.484C374.082 129.447 374.074 129.41 374.068 129.372C373.164 128.339 372.088 127.452 370.876 126.75C370.825 129.394 370.057 131.626 368.571 133.403C366.991 135.294 365.093 137.077 362.946 138.751C360.673 140.522 358.242 142.079 355.811 143.413C355.103 143.802 354.435 144.149 353.822 144.452L353.106 144.798L352.737 144.965ZM359.612 152.673C358.527 152.32 357.517 151.741 356.608 150.973C365.493 145.377 371.022 140.966 373.252 137.65C374.635 135.592 375.52 133.742 375.88 132.091C376.326 133 376.664 133.97 376.882 134.981C376.835 135.085 376.804 135.199 376.793 135.319C376.569 137.657 375.462 139.978 373.439 142.289C371.498 144.507 367.308 147.706 360.905 151.844L359.612 152.673ZM362.716 152.997C364.687 152.861 367.097 152.231 369.045 151.041C372.668 148.925 375.577 144.94 376.676 141.1C376.145 141.967 375.509 142.823 374.769 143.669C372.775 145.946 368.767 149.043 362.716 152.997ZM352.371 136.297L352.045 136.491C353.087 129.883 357.935 125.141 364.039 125.003C364.104 126.302 363.733 127.467 362.909 128.547C361.577 130.29 358.044 132.901 352.371 136.297Z" fill="#B5B5BF"/>
<path fill-rule="evenodd" clip-rule="evenodd" d="M429.712 104.956C429.892 104.978 430.018 105.158 429.998 105.354C429.997 105.644 429.826 105.801 429.598 105.903C429.392 105.993 429.063 105.959 428.872 105.987C426.775 106.164 425.126 104.473 424.401 102.293C423.705 100.198 423.89 97.6936 425.155 96.1493C425.3 95.9674 425.552 95.9491 425.718 96.1086C425.884 96.2682 426.828 96.5455 426.682 96.7274C425.64 98.0614 424.934 98.8712 425.918 102.038C426.901 105.205 429.577 104.939 429.712 104.956Z" fill="#E7EAEE"/>
<path fill-rule="evenodd" clip-rule="evenodd" d="M118.985 125.212C118.381 124.835 117.556 124.974 117.14 125.523C116.726 126.071 116.879 126.82 117.483 127.197C118.147 127.609 118.733 127.991 119.251 128.346C118.693 128.749 118.137 129.21 117.558 129.734L116.384 130.815C115.869 131.288 115.872 132.05 116.392 132.518C116.913 132.986 117.754 132.982 118.269 132.51L119.677 131.22C120.25 130.713 120.787 130.29 121.327 129.938C122.526 131.017 122.892 131.808 122.911 132.595V132.796L122.919 132.92C122.987 133.527 123.552 134 124.238 134C124.971 134 125.565 133.462 125.565 132.796V132.56C125.54 131.333 125.063 130.167 123.779 128.835C124.627 128.605 125.583 128.477 126.742 128.422C127.474 128.387 128.036 127.821 127.998 127.157C127.96 126.493 127.336 125.983 126.603 126.018C124.591 126.113 123.027 126.418 121.634 126.996C121.052 126.564 120.394 126.112 119.649 125.632L118.985 125.212Z" fill="#B5B5BF"/>
<path fill-rule="evenodd" clip-rule="evenodd" d="M287.515 388L288.266 388.004C292.46 388.05 295.736 388.493 301.908 389.656C302.616 389.79 303.097 390.572 302.983 391.402C302.87 392.234 302.204 392.799 301.496 392.665L299.474 392.292C294.367 391.371 291.424 391.047 287.515 391.047C273.951 391.047 265.293 401.016 266.758 416.306C266.838 417.142 266.326 417.896 265.613 417.99C264.901 418.085 264.258 417.483 264.178 416.647C262.53 399.45 272.477 388 287.515 388ZM298.021 394.153L297.894 394.022C297.772 393.898 297.584 393.916 297.481 394.06C297.373 394.205 297.39 394.421 297.512 394.546L297.642 394.675C297.765 394.799 297.949 394.782 298.056 394.637C298.159 394.493 298.147 394.276 298.021 394.153ZM274.501 397.339C274.035 396.9 273.354 396.987 272.98 397.534C271.469 399.741 270.368 401.892 269.681 403.991C269.013 406.033 268.785 409.465 268.959 414.371L269.001 415.407C269.032 416.107 269.541 416.646 270.138 416.609C270.734 416.572 271.192 415.974 271.161 415.274C270.931 410.148 271.127 406.657 271.7 404.902C272.302 403.066 273.289 401.137 274.666 399.125C275.041 398.578 274.967 397.779 274.501 397.339ZM286.305 393.138C286.836 392.816 287.488 393.059 287.763 393.681C288.037 394.305 287.83 395.071 287.3 395.393C285.103 396.73 283.426 398.969 282.256 402.162C281.001 405.59 279.974 408.648 279.176 411.335C278.979 411.998 278.362 412.348 277.798 412.116C277.234 411.885 276.936 411.161 277.133 410.499C277.95 407.75 278.995 404.638 280.269 401.16C281.628 397.447 283.644 394.757 286.305 393.138ZM292.593 393.072C292.2 392.544 291.516 392.491 291.067 392.953C289.261 394.81 287.874 396.499 286.903 398.031C285.939 399.552 284.811 401.826 283.505 404.869C283.235 405.496 283.45 406.259 283.983 406.575C284.517 406.891 285.168 406.639 285.436 406.012C286.691 403.089 287.763 400.929 288.638 399.547C289.507 398.177 290.793 396.611 292.492 394.863C292.942 394.401 292.986 393.599 292.593 393.072ZM288.644 407.412C288.195 407.874 287.511 407.821 287.118 407.293C286.724 406.766 286.769 405.964 287.218 405.501C288.918 403.754 290.203 402.189 291.072 400.818C291.948 399.436 293.02 397.276 294.274 394.352C294.543 393.726 295.194 393.474 295.727 393.79C296.26 394.106 296.475 394.87 296.206 395.496C294.9 398.538 293.771 400.814 292.808 402.334C291.836 403.866 290.45 405.555 288.644 407.412ZM280.455 394.173C279.963 393.775 279.29 393.92 278.95 394.497C276.532 398.608 274.988 401.68 274.306 403.767C273.62 405.861 273.147 408.684 272.872 412.251C272.819 412.95 273.257 413.567 273.852 413.63C274.447 413.693 274.973 413.178 275.026 412.48C275.285 409.126 275.722 406.52 276.325 404.678C276.887 402.96 278.197 400.31 280.245 396.773L280.73 395.94C281.07 395.363 280.946 394.572 280.455 394.173Z" fill="#B5B5BF"/>
<path fill-rule="evenodd" clip-rule="evenodd" d="M258.868 386.122L259.775 388.104L261.847 388.688C261.959 388.719 262.024 388.834 261.992 388.943C261.982 388.978 261.963 389.009 261.938 389.034L260.364 390.572L260.452 392.785C260.457 392.899 260.366 392.995 260.25 393C260.211 393.001 260.171 392.992 260.137 392.972L258.356 391.976C258.299 391.945 258.233 391.94 258.173 391.964L256.268 392.707C256.16 392.749 256.037 392.698 255.993 392.591C255.979 392.555 255.975 392.515 255.982 392.478L256.383 390.298L255.043 388.56C254.972 388.469 254.991 388.339 255.083 388.27C255.113 388.249 255.146 388.235 255.181 388.23L257.316 387.935L258.496 386.097C258.559 386 258.689 385.971 258.787 386.032C258.822 386.053 258.851 386.085 258.868 386.122Z" fill="#B5B5BF"/>
<path fill-rule="evenodd" clip-rule="evenodd" d="M321.429 130.108C321.852 130.458 322.378 131.089 322.843 131.772L323.442 131.523L324.15 131.24C324.292 131.179 324.384 131.131 324.412 131.093C324.494 130.951 324.682 130.896 324.835 130.972C324.985 131.047 325.045 131.223 324.963 131.365C324.908 131.5 324.51 131.923 323.772 132.337C323.638 132.411 323.49 132.481 323.332 132.549C323.604 133.025 323.817 133.486 323.918 133.855C324.069 134.399 323.949 134.785 323.749 134.921C323.553 135.055 323.062 135.079 322.315 134.499C322.177 134.401 322.156 134.218 322.26 134.091C322.365 133.964 322.559 133.941 322.697 134.038C322.839 134.137 322.982 134.192 323.099 134.232L323.042 134.024C323.02 133.95 322.993 133.872 322.954 133.796C322.82 133.522 322.65 133.209 322.459 132.888C321.875 133.094 321.209 133.282 320.49 133.372C320.141 133.415 319.783 133.425 319.413 133.421C319.2 133.434 319.015 133.283 319.001 133.084C318.987 132.884 319.148 132.711 319.362 132.698C320.226 132.62 321.025 132.416 321.731 132.186L321.962 132.108C321.58 131.55 321.171 131.043 320.821 130.757C320.631 130.6 320.612 130.327 320.778 130.147C320.949 129.968 321.24 129.95 321.429 130.108Z" fill="#B5B5BF"/>
<path fill-rule="evenodd" clip-rule="evenodd" d="M74.4644 291.02C73.2564 291.1 71.3408 291.414 69.7755 292.047C68.4357 292.591 68.4357 307.344 73.0149 308.52C77.5676 310.07 82.5466 308.019 81.9514 300.123C81.9408 299.958 81.8099 299.509 81.6595 298.994C81.4402 298.241 81.1785 297.346 81.1944 296.996C81.2563 295.756 80.937 294.711 80.0942 294.055C79.1869 292.092 77.4075 290.826 74.4644 291.02ZM73.8091 304.929C71.5681 303.22 71.6468 295.246 74.2044 294.714C75.7962 295.963 77.2492 297.765 77.7392 301.238C77.1909 303.151 76.0333 304.258 75.0207 305.225C74.9128 305.329 74.8058 305.431 74.7014 305.532C74.4122 305.364 74.1151 305.159 73.8091 304.929Z" fill="white"/>
<path fill-rule="evenodd" clip-rule="evenodd" d="M70.0962 301.222C69.8726 300.018 70.0249 298.67 70.7006 297.23C71.0062 296.578 71.8108 296.047 72.8175 295.69C73.9942 295.273 75.4334 295.066 76.3415 295.013C78.5532 294.885 79.889 295.716 80.5705 297.006C81.2033 297.436 81.4435 298.123 81.3966 298.937C81.3761 299.324 81.9444 300.724 81.9639 300.991C82.4082 306.176 78.6674 307.525 75.2469 306.509C73.9473 307.102 72.6935 307.2 71.7503 306.571C70.9047 306.009 70.2544 304.823 70.106 302.733C70.0659 302.194 70.063 301.69 70.0962 301.222ZM76.1638 297.808C74.2012 298.154 74.1191 303.238 75.8328 304.322C76.0662 304.468 76.2947 304.598 76.5153 304.704C77.3443 304.034 77.9615 303.492 78.312 302.383C78.6625 301.274 77.3805 298.6 76.1638 297.808Z" fill="#FFB61D"/>
<path fill-rule="evenodd" clip-rule="evenodd" d="M189.487 434.211C188.984 433.835 188.296 433.974 187.95 434.523C187.605 435.07 187.732 435.82 188.236 436.196C188.789 436.61 189.277 436.991 189.709 437.346C189.244 437.748 188.78 438.21 188.298 438.734L187.32 439.815C186.891 440.287 186.893 441.05 187.328 441.518C187.761 441.986 188.461 441.982 188.891 441.511L190.064 440.219C190.541 439.713 190.989 439.29 191.439 438.938C192.439 440.016 192.743 440.808 192.76 441.594V441.796L192.765 441.92C192.822 442.526 193.293 443 193.865 443C194.476 443 194.971 442.461 194.971 441.796V441.559C194.951 440.333 194.553 439.167 193.483 437.834C194.189 437.605 194.986 437.477 195.952 437.422C196.562 437.387 197.03 436.821 196.999 436.157C196.966 435.492 196.447 434.983 195.836 435.018C194.16 435.113 192.856 435.417 191.695 435.995C191.211 435.563 190.662 435.111 190.041 434.632L189.487 434.211Z" fill="#B5B5BF"/>
<path fill-rule="evenodd" clip-rule="evenodd" d="M189.487 434.211C188.984 433.835 188.296 433.974 187.95 434.523C187.605 435.07 187.732 435.82 188.236 436.196C188.789 436.61 189.277 436.991 189.709 437.346C189.244 437.748 188.78 438.21 188.298 438.734L187.32 439.815C186.891 440.287 186.893 441.05 187.328 441.518C187.761 441.986 188.461 441.982 188.891 441.511L190.064 440.219C190.541 439.713 190.989 439.29 191.439 438.938C192.439 440.016 192.743 440.808 192.76 441.594V441.796L192.765 441.92C192.822 442.526 193.293 443 193.865 443C194.476 443 194.971 442.461 194.971 441.796V441.559C194.951 440.333 194.553 439.167 193.483 437.834C194.189 437.605 194.986 437.477 195.952 437.422C196.562 437.387 197.03 436.821 196.999 436.157C196.966 435.492 196.447 434.983 195.836 435.018C194.16 435.113 192.856 435.417 191.695 435.995C191.211 435.563 190.662 435.111 190.041 434.632L189.487 434.211Z" fill="#B5B5BF"/>
<path fill-rule="evenodd" clip-rule="evenodd" d="M226.867 402.104L227.775 403.804L229.847 404.304C229.959 404.331 230.024 404.429 229.992 404.523C229.982 404.553 229.963 404.579 229.938 404.601L228.364 405.918L228.452 407.816C228.457 407.914 228.366 407.996 228.25 408C228.211 408.001 228.171 407.994 228.137 407.977L226.355 407.123C226.299 407.097 226.233 407.092 226.173 407.113L224.268 407.749C224.159 407.786 224.037 407.741 223.993 407.65C223.979 407.619 223.975 407.585 223.982 407.553L224.383 405.685L223.043 404.194C222.972 404.116 222.991 404.005 223.083 403.946C223.112 403.928 223.146 403.916 223.181 403.912L225.316 403.659L226.496 402.082C226.559 402 226.689 401.975 226.787 402.027C226.822 402.046 226.851 402.073 226.867 402.104Z" fill="#B5B5BF"/>
<path fill-rule="evenodd" clip-rule="evenodd" d="M130.101 389.07L131.243 390.806L132.833 390.643C132.919 390.634 132.994 390.73 132.999 390.857C133.002 390.896 132.996 390.935 132.985 390.971L132.288 393.171L132.92 395.456C132.952 395.575 132.914 395.709 132.834 395.757C132.807 395.774 132.778 395.779 132.749 395.771L131.254 395.395C131.207 395.384 131.16 395.403 131.124 395.45L129.991 396.941C129.927 397.027 129.828 397.018 129.771 396.923C129.751 396.891 129.739 396.851 129.733 396.808L129.451 394.375L128.071 393.056C127.999 392.986 127.979 392.843 128.025 392.736C128.04 392.703 128.059 392.677 128.083 392.658L129.49 391.551L129.836 389.182C129.855 389.058 129.938 388.979 130.022 389.005C130.052 389.015 130.08 389.037 130.101 389.07Z" fill="#B5B5BF"/>
<path fill-rule="evenodd" clip-rule="evenodd" d="M109.42 257.122L110.458 259.104L112.825 259.688C112.953 259.72 113.027 259.834 112.991 259.944C112.979 259.977 112.958 260.009 112.929 260.034L111.13 261.571L111.231 263.785C111.236 263.9 111.132 263.996 110.999 264C110.954 264.002 110.911 263.993 110.871 263.973L108.835 262.977C108.771 262.946 108.694 262.941 108.626 262.965L106.448 263.707C106.325 263.75 106.184 263.697 106.136 263.591C106.118 263.556 106.114 263.516 106.122 263.478L106.581 261.299L105.049 259.56C104.968 259.469 104.99 259.339 105.096 259.27C105.128 259.249 105.167 259.235 105.208 259.23L107.646 258.936L108.996 257.096C109.067 257 109.215 256.971 109.329 257.032C109.369 257.053 109.4 257.085 109.42 257.122Z" fill="#B5B5BF"/>
<path fill-rule="evenodd" clip-rule="evenodd" d="M108.658 260.035L109.047 260.601L109.935 260.768C109.983 260.777 110.01 260.81 109.996 260.841C109.992 260.851 109.984 260.86 109.974 260.867L109.299 261.307L109.337 261.939C109.339 261.971 109.299 261.999 109.25 262C109.233 262.001 109.216 261.998 109.202 261.993L108.439 261.708C108.414 261.699 108.386 261.698 108.36 261.704L107.543 261.917C107.497 261.929 107.444 261.914 107.426 261.883C107.42 261.873 107.418 261.862 107.421 261.851L107.593 261.228L107.019 260.732C106.988 260.706 106.996 260.668 107.036 260.648C107.048 260.642 107.062 260.638 107.078 260.637L107.992 260.553L108.499 260.028C108.525 260 108.581 259.992 108.623 260.009C108.638 260.015 108.651 260.024 108.658 260.035Z" fill="#E7EAEE"/>
<path fill-rule="evenodd" clip-rule="evenodd" d="M17.3152 337.122L18.0932 339.104L19.8691 339.688C19.9652 339.719 20.0206 339.834 19.9929 339.943C19.9842 339.978 19.9686 340.009 19.947 340.034L18.5978 341.572L18.6731 343.785C18.6774 343.899 18.5995 343.995 18.5 344C18.4662 344.001 18.4325 343.992 18.4031 343.972L16.8764 342.976C16.828 342.945 16.7709 342.94 16.7198 342.964L15.0867 343.707C14.9941 343.749 14.8885 343.698 14.8513 343.591C14.8392 343.555 14.8357 343.515 14.8418 343.478L15.1854 341.298L14.0369 339.56C13.9764 339.469 13.9919 339.339 14.0716 339.27C14.0967 339.249 14.1252 339.235 14.1555 339.23L15.985 338.935L16.9967 337.097C17.0504 337 17.162 336.971 17.246 337.032C17.2763 337.053 17.3005 337.085 17.3152 337.122Z" fill="#B5B5BF"/>
<path fill-rule="evenodd" clip-rule="evenodd" d="M95.4426 173.193L95.9524 173.578C96.5253 174.017 98.6633 176.195 99.1098 176.59C100.179 176.059 101.381 175.781 102.927 175.694C103.489 175.662 103.969 176.129 103.999 176.737C104.028 177.344 103.596 177.863 103.033 177.894C102.142 177.945 101.408 178.062 100.756 178.272C101.744 179.493 102.11 180.56 102.129 181.681V181.898C102.129 182.507 101.672 183 101.11 183C100.582 183 100.148 182.566 100.096 182.011L100.09 181.898V181.713C100.075 180.994 99.7944 180.27 98.8725 179.282C98.458 179.604 98.0451 179.992 97.6049 180.455L96.523 181.637C96.1272 182.069 95.4817 182.072 95.0812 181.643C94.6816 181.215 94.6792 180.518 95.075 180.085L95.9766 179.096C96.4215 178.616 96.8492 178.194 97.277 177.825C96.5253 175.969 93.7058 173.98 94.0251 173.478C94.3436 172.977 94.9782 172.849 95.4426 173.193Z" fill="#B5B5BF"/>
<path fill-rule="evenodd" clip-rule="evenodd" d="M312.885 310.044L314.426 311.476L316.219 310.901C316.316 310.869 316.414 310.945 316.438 311.07C316.446 311.108 316.445 311.15 316.437 311.188L315.94 313.56L316.972 315.671C317.026 315.781 317 315.925 316.916 315.994C316.887 316.017 316.854 316.03 316.82 316.03L315.062 316.043C315.007 316.043 314.956 316.076 314.921 316.132L313.831 317.912C313.769 318.012 313.656 318.03 313.577 317.95C313.55 317.923 313.53 317.887 313.519 317.846L312.864 315.496L311.11 314.541C311.019 314.49 310.975 314.353 311.014 314.235C311.026 314.198 311.045 314.166 311.07 314.142L312.525 312.673L312.599 310.225C312.603 310.096 312.687 309.996 312.786 310C312.822 310.002 312.857 310.017 312.885 310.044Z" fill="#B5B5BF"/>
<path fill-rule="evenodd" clip-rule="evenodd" d="M330.332 237.131L330.891 238.895L332.878 239.671C332.986 239.713 333.031 239.817 332.978 239.903C332.962 239.929 332.937 239.953 332.907 239.969L331.038 241.012L330.725 242.85C330.708 242.945 330.599 243.011 330.481 242.998C330.441 242.994 330.404 242.98 330.372 242.96L328.752 241.884C328.701 241.851 328.635 241.838 328.57 241.849L326.509 242.189C326.392 242.208 326.277 242.148 326.253 242.054C326.245 242.022 326.248 241.99 326.262 241.959L327.063 240.219L326.024 238.595C325.969 238.51 326.012 238.405 326.117 238.362C326.15 238.348 326.187 238.342 326.224 238.343L328.435 238.404L329.962 237.057C330.043 236.986 330.18 236.981 330.268 237.045C330.3 237.068 330.322 237.098 330.332 237.131Z" fill="#B5B5BF"/>
<path fill-rule="evenodd" clip-rule="evenodd" d="M289.713 157.152L290.192 159.21L291.895 160.116C291.988 160.166 292.026 160.287 291.982 160.387C291.967 160.418 291.946 160.445 291.92 160.464L290.318 161.682L290.05 163.825C290.035 163.935 289.942 164.013 289.841 163.998C289.806 163.993 289.774 163.978 289.748 163.954L288.358 162.699C288.316 162.659 288.258 162.644 288.203 162.657L286.436 163.053C286.336 163.077 286.237 163.006 286.217 162.897C286.21 162.86 286.212 162.821 286.225 162.785L286.911 160.756L286.021 158.861C285.974 158.761 286.01 158.64 286.101 158.589C286.129 158.573 286.161 158.566 286.192 158.567L288.087 158.638L289.396 157.066C289.465 156.984 289.582 156.977 289.658 157.053C289.685 157.079 289.704 157.114 289.713 157.152Z" fill="#B5B5BF"/>
<path fill-rule="evenodd" clip-rule="evenodd" d="M408.905 176.684L409.514 176.626C410.201 176.566 410.825 176.533 411.393 176.525C411.887 175.411 412.629 174.394 413.742 173.287C414.146 172.885 414.78 172.908 415.156 173.34C415.534 173.772 415.511 174.448 415.107 174.85C414.466 175.489 413.982 176.071 413.614 176.667C415.07 176.908 415.969 177.454 416.639 178.275L416.766 178.436C417.121 178.888 417.066 179.562 416.643 179.942C416.245 180.297 415.666 180.268 415.301 179.89L415.232 179.81L415.123 179.673C414.692 179.148 414.058 178.799 412.787 178.686C412.663 179.205 412.578 179.771 412.518 180.412L412.394 182.019C412.348 182.608 411.864 183.045 411.313 182.996C410.762 182.947 410.352 182.431 410.398 181.842L410.499 180.499C410.552 179.843 410.627 179.241 410.735 178.678C410.247 178.705 409.703 178.749 409.098 178.812C408.548 178.868 408.058 178.438 408.005 177.851C407.951 177.263 408.354 176.741 408.905 176.684Z" fill="#B5B5BF"/>
<path fill-rule="evenodd" clip-rule="evenodd" d="M317.674 260.17C317.448 260.67 316.952 261.362 316.377 262.017L316.873 262.467L317.448 263.002L317.575 263.109C317.632 263.152 317.675 263.178 317.706 263.186C317.893 263.209 318.023 263.359 317.997 263.523C317.97 263.682 317.799 263.798 317.613 263.775C317.446 263.771 316.834 263.563 316.106 263.045C315.973 262.951 315.841 262.843 315.708 262.725C315.287 263.135 314.863 263.487 314.496 263.706C313.956 264.032 313.488 264.058 313.265 263.925C313.045 263.797 312.835 263.366 313.192 262.494C313.248 262.336 313.44 262.253 313.618 262.303C313.797 262.352 313.895 262.518 313.839 262.675C313.784 262.837 313.777 262.985 313.776 263.103L313.983 262.98C314.057 262.934 314.132 262.882 314.201 262.822C314.451 262.606 314.731 262.344 315.011 262.061C314.567 261.609 314.114 261.079 313.747 260.467C313.568 260.168 313.425 259.852 313.29 259.519C313.196 259.333 313.293 259.114 313.506 259.031C313.72 258.949 313.97 259.035 314.064 259.22C314.472 259.968 314.993 260.612 315.509 261.164L315.68 261.344C316.149 260.808 316.552 260.265 316.735 259.852C316.836 259.627 317.129 259.514 317.386 259.601C317.647 259.69 317.775 259.945 317.674 260.17Z" fill="#E7EAEE"/>
<path fill-rule="evenodd" clip-rule="evenodd" d="M306.596 15.02C307.287 14.8938 307.944 15.3779 308.064 16.101C308.184 16.8232 307.722 17.5117 307.032 17.638C303.746 18.2366 299.791 20.2914 296.376 23.6026C291.94 27.9002 288.668 33.9674 287.053 41.8868C285.751 48.2665 286.947 56.6673 290.348 63.6756C294.219 71.6486 300.441 77.0699 308.424 78.596C316.619 80.163 323.552 79.1901 331.297 76.3087L332.009 76.038C332.236 75.9481 332.64 75.7855 333.146 75.5802H333.147C335.012 74.8271 338.27 73.5117 339.206 73.2156C341.71 72.4226 343.418 72.4889 344.656 73.8706C345.136 74.4056 345.11 75.2459 344.599 75.7482C344.12 76.2197 343.384 76.2251 342.898 75.7836L342.805 75.6892C342.439 75.2813 341.684 75.2341 340.163 75.6901L339.941 75.7591C339.117 76.0198 336.099 77.238 334.218 77.9974H334.217C333.488 78.2917 332.929 78.517 332.736 78.5906C324.371 81.7863 316.865 82.9109 307.967 81.2104C299.15 79.5244 292.294 73.5508 288.085 64.8792C284.427 57.3423 283.143 48.3246 284.569 41.3318C286.293 32.88 289.828 26.325 294.65 21.6522C298.425 17.995 302.827 15.7068 306.596 15.02ZM315.182 21.4388C315.87 21.298 316.537 21.7676 316.672 22.487C316.807 23.2074 316.358 23.906 315.67 24.0468C305.38 26.1561 297.105 34.3807 294.704 45.2606C293.892 48.9432 294.138 51.9373 294.935 53.0792L295.041 53.2227L295.05 53.2427L295.064 53.2309C295.349 52.9611 295.683 52.2725 295.942 51.2051L295.996 50.9699C298.464 39.7802 306.617 31.1186 317.028 28.2099C317.705 28.021 318.402 28.4425 318.582 29.1511C318.764 29.8596 318.361 30.5881 317.683 30.7771C308.302 33.3978 300.933 41.1274 298.568 51.1434L298.47 51.5676C297.6 55.5146 295.1 57.3986 293.075 54.9005C291.594 53.0728 291.23 49.1957 292.23 44.6628C294.858 32.7528 303.918 23.7479 315.182 21.4388ZM330.452 36.0231C330.402 35.2909 329.795 34.7395 329.095 34.7922C316.738 35.7142 305.901 44.1142 301.59 56.5111C299.954 61.2157 299.857 65.3988 301.196 67.5318C302.993 70.3941 305.819 68.7708 307.228 64.7184L307.376 64.3033C311.189 53.8113 320.124 46.4833 330.583 44.9553C331.278 44.8545 331.763 44.1832 331.666 43.4556C331.568 42.7289 330.927 42.222 330.233 42.3237C318.713 44.0061 308.893 52.1626 304.842 63.81L304.752 64.0589C304.302 65.2708 303.809 66.002 303.435 66.2164L303.419 66.2282C303.415 66.23 303.414 66.2318 303.412 66.2337C303.409 66.2364 303.408 66.2382 303.406 66.2382C303.404 66.2382 303.402 66.2346 303.399 66.2255C303.391 66.2055 303.373 66.161 303.318 66.0729L303.25 65.9575C302.514 64.5904 302.626 61.3011 303.976 57.4204C307.942 46.0164 317.909 38.2913 329.276 37.4429C329.976 37.3902 330.502 36.7543 330.452 36.0231ZM335.981 48.9396C336.681 48.8869 337.289 49.4383 337.338 50.1705C337.388 50.9026 336.862 51.5376 336.163 51.5903C328.193 52.1853 321.204 57.6021 318.424 65.5969C317.6 67.9669 317.447 69.9935 317.741 71.0191L317.777 71.1336L317.834 71.0491C317.975 70.8238 318.135 70.5004 318.291 70.0816L318.358 69.8963C321.296 61.4509 328.417 55.5373 336.769 54.3173C337.463 54.2156 338.105 54.7224 338.202 55.4492C338.299 56.1759 337.815 56.8472 337.12 56.9489C329.813 58.0163 323.569 63.1197 320.878 70.4314L320.744 70.8047C319.656 73.9369 317.3 75.2895 315.794 72.8913C314.763 71.248 314.835 68.1467 316.038 64.6876C319.164 55.699 327.022 49.6082 335.981 48.9396ZM342.673 59.6451C342.623 58.9129 342.016 58.3624 341.316 58.4142C335.316 58.862 330.054 62.9416 327.96 68.9616C327.135 71.3343 327.084 73.4945 327.848 74.7108C329.1 76.7048 331.045 75.5874 331.855 73.2574L331.966 72.9513C333.671 68.3929 337.579 65.2144 342.149 64.5468C342.844 64.445 343.328 63.7737 343.232 63.047C343.135 62.3203 342.493 61.8134 341.799 61.9151L341.477 61.966C336.558 62.7945 332.313 66.0629 330.113 70.7656L330.036 70.9328L330.083 70.742C330.154 70.465 330.24 70.1725 330.346 69.87C332.094 64.8438 336.487 61.4391 341.497 61.0649C342.196 61.0131 342.723 60.3772 342.673 59.6451Z" fill="#B5B5BF"/>
<path fill-rule="evenodd" clip-rule="evenodd" d="M335.684 49.0037C336.41 48.9472 337.04 49.5385 337.091 50.3236C337.144 51.1087 336.597 51.7896 335.872 51.8461C327.606 52.4841 320.358 58.2925 317.475 66.8654C316.619 69.4068 316.461 71.5799 316.767 72.6797L316.804 72.8024L316.862 72.7118C317.009 72.4703 317.175 72.1235 317.337 71.6744L317.406 71.4757C320.453 62.4197 327.838 56.0785 336.501 54.7703C337.221 54.6612 337.886 55.2047 337.987 55.984C338.088 56.7632 337.586 57.4831 336.865 57.5922C329.287 58.7367 322.811 64.2091 320.02 72.0494L319.881 72.4498C318.752 75.8084 316.309 77.2588 314.747 74.6873C313.677 72.9251 313.752 69.5996 315 65.8903C318.242 56.2518 326.392 49.7207 335.684 49.0037Z" fill="#B5B5BF"/>
<path d="M256.63 224.156C283.347 211.163 305.686 204.3 319.594 203.04C323.853 202.654 325.785 205.095 324.706 209.066C323.905 212.014 321.466 216.06 317.728 220.852C311.211 229.204 302.619 236.352 294.062 243C307.751 229.864 311.243 224.369 315.465 218.957L316.128 218.097C319.258 213.982 321.282 210.544 321.905 208.249L321.993 207.902C322.382 206.246 321.932 205.853 319.847 206.043C306.254 207.274 284.001 214.151 257.381 227.126C230.718 240.122 229.956 237.127 256.63 224.156Z" fill="white"/>
<path d="M135.574 182L135.741 182.486C136.899 185.839 138.103 189.16 139.469 192.781L140 194.187C139.826 194.33 139.597 194.481 139.345 194.616C138.984 194.809 138.617 194.944 138.341 194.989L138.253 195L138.12 194.806C137.088 193.254 135.889 190.617 135.024 187.995C134.562 186.598 134.234 185.317 134.086 184.333C134.025 183.932 133.998 183.595 134 183.34L134.006 183.172C134.008 183.131 134.008 183.11 134 183.106L134.033 183.08C134.217 182.924 134.688 182.587 135.388 182.123L135.574 182Z" fill="white"/>
<path fill-rule="evenodd" clip-rule="evenodd" d="M169.231 170.733C169.937 169.685 170.852 169.841 172.012 170.694L172.309 170.922L173.143 171.593C173.376 171.774 173.477 171.836 173.613 171.902C173.928 172.054 174.082 172.488 173.956 172.87C173.83 173.253 173.473 173.44 173.157 173.288L173.046 173.232C172.832 173.121 172.671 173.006 172.24 172.658L171.642 172.174C171.543 172.097 171.458 172.031 171.374 171.969C170.68 171.46 170.366 171.405 170.183 171.676C170.068 171.848 170.096 172.212 170.325 172.959L170.575 173.743C171.074 175.349 171.077 176.066 170.188 176.679C169.424 177.206 169.032 176.96 167.934 175.655L167.667 175.334C166.964 174.482 166.596 174.186 166.358 174.247C166.28 174.267 166.188 174.335 166.075 174.481C165.944 174.651 165.906 175.196 165.987 176.162L166.111 177.425C166.255 178.968 166.197 179.367 165.672 179.794C164.949 180.381 163.987 179.717 162.204 177.775C161.952 177.499 161.93 177.028 162.158 176.721C162.384 176.415 162.773 176.39 163.025 176.665C163.787 177.495 164.363 178.036 164.765 178.314L164.855 178.373L164.931 178.419L164.932 178.325L164.928 178.102C164.92 177.918 164.901 177.697 164.863 177.321L164.785 176.547C164.635 174.976 164.682 174.102 165.179 173.46C165.454 173.104 165.764 172.876 166.104 172.788C166.894 172.586 167.455 172.995 168.386 174.1L168.857 174.661C169.363 175.252 169.552 175.403 169.581 175.383C169.696 175.303 169.679 175.056 169.367 174.086L169.231 173.666C168.796 172.312 168.714 171.501 169.231 170.733Z" fill="#B5B5BF"/>
<path fill-rule="evenodd" clip-rule="evenodd" d="M248.451 44.6259L247.88 44.6841C247.363 44.7405 246.985 45.2635 247.035 45.8512C247.066 46.2064 247.245 46.5036 247.497 46.6713L247.397 46.7516C246.973 47.092 246.873 47.7591 247.173 48.2412C247.472 48.7233 248.058 48.8379 248.482 48.4974L249.448 47.719C249.42 47.9711 249.395 48.2306 249.375 48.4998L249.281 49.843C249.238 50.4315 249.623 50.9479 250.139 50.9962C250.657 51.0453 251.111 50.6083 251.154 50.0198L251.269 48.4123C251.3 48.0685 251.337 47.746 251.382 47.4407C251.713 48.1528 251.778 48.702 251.708 49.2201L251.681 49.3969L251.67 49.5058C251.634 50.046 251.965 50.5387 252.444 50.6353C252.955 50.7376 253.442 50.3496 253.532 49.7685L253.564 49.5614C253.664 48.8395 253.618 48.1135 253.361 47.3073C253.496 47.417 253.611 47.5398 253.714 47.6732L253.816 47.8099L253.881 47.8901C254.222 48.2682 254.767 48.2977 255.14 47.9416C255.537 47.5627 255.589 46.8882 255.255 46.4356L255.136 46.2752C255.094 46.2195 255.051 46.1663 255.006 46.1131C255.497 46.1459 255.932 45.7391 255.993 45.1768C256.056 44.5908 255.69 44.0571 255.175 43.9851C254.289 43.8615 253.514 43.8337 252.802 43.9065C253.057 43.5644 253.354 43.2165 253.698 42.8506C254.078 42.448 254.099 41.7719 253.745 41.3397C253.391 40.9084 252.797 40.8846 252.417 41.2865C251.78 41.9618 251.273 42.6043 250.869 43.255C250.713 43.0667 250.549 42.8736 250.377 42.6755L249.971 42.2147C249.6 41.8014 249.006 41.8071 248.642 42.2286C248.279 42.6501 248.284 43.327 248.654 43.7403C248.912 44.0276 249.148 44.2994 249.367 44.5564C249.077 44.5736 248.771 44.5965 248.451 44.6259Z" fill="#B5B5BF"/>
<path fill-rule="evenodd" clip-rule="evenodd" d="M203.968 53.2072C203.764 52.9242 203.434 52.9321 203.231 53.2248C203.028 53.5167 203.028 53.9826 203.232 54.2656C203.425 54.5328 203.598 54.7816 203.752 55.0128C203.426 55.2 203.098 55.4418 202.747 55.7415L202.215 56.203C201.981 56.4043 201.93 56.8078 202.101 57.1032C202.272 57.3985 202.599 57.475 202.833 57.2737L203.472 56.7225C203.805 56.4465 204.105 56.2373 204.408 56.0914C204.866 56.9537 204.962 57.5075 204.903 58.02L204.888 58.1422L204.881 58.2169C204.859 58.5888 205.041 58.9263 205.306 58.9896C205.589 59.0573 205.86 58.7874 205.913 58.3866L205.931 58.2433C206.018 57.4996 205.925 56.7498 205.531 55.8242C205.798 55.8189 206.09 55.8453 206.42 55.9024C206.708 55.9525 206.966 55.7055 206.997 55.3512C207.028 54.9978 206.819 54.67 206.532 54.6199C205.9 54.5109 205.371 54.4986 204.887 54.5873C204.688 54.2559 204.458 53.9026 204.191 53.5211L203.968 53.2072Z" fill="#E7EAEE"/>
<path fill-rule="evenodd" clip-rule="evenodd" d="M60.8669 252.139L61.7756 254.405L63.8464 255.072C63.9584 255.108 64.0241 255.239 63.9918 255.364C63.9817 255.404 63.9625 255.439 63.9372 255.467L62.3642 257.224L62.452 259.755C62.4561 259.885 62.3662 259.995 62.2491 260C62.2097 260.002 62.1713 259.992 62.137 259.969L60.355 258.831C60.2994 258.796 60.2328 258.79 60.1732 258.817L58.267 259.666C58.159 259.714 58.0368 259.654 57.9934 259.533C57.9793 259.492 57.9752 259.447 57.9823 259.404L58.3831 256.913L57.0423 254.926C56.9726 254.822 56.9908 254.673 57.0837 254.595C57.112 254.57 57.1453 254.554 57.1816 254.549L59.315 254.212L60.4963 252.11C60.5579 252 60.6882 251.967 60.7871 252.036C60.8225 252.061 60.8497 252.097 60.8669 252.139Z" fill="#B5B5BF"/>
<path fill-rule="evenodd" clip-rule="evenodd" d="M69.762 150.122L70.4111 152.104L71.8903 152.688C71.9703 152.72 72.0172 152.834 71.9941 152.944C71.9869 152.978 71.9732 153.009 71.9552 153.034L70.8316 154.571L70.8943 156.786C70.8972 156.9 70.833 156.996 70.7494 157C70.7212 157.002 70.6938 156.993 70.6693 156.973L69.3964 155.977C69.3567 155.946 69.3091 155.941 69.2666 155.965L67.905 156.707C67.8278 156.75 67.7406 156.697 67.7096 156.591C67.6995 156.556 67.6966 156.516 67.7016 156.478L67.9879 154.299L67.0302 152.56C66.9805 152.469 66.9934 152.339 67.0598 152.271C67.08 152.249 67.1038 152.235 67.1297 152.23L68.6536 151.936L69.4974 150.096C69.5414 150 69.6344 149.971 69.7051 150.032C69.7303 150.053 69.7498 150.085 69.762 150.122Z" fill="#B5B5BF"/>
<path d="M93.9952 314.255C94.5755 313.822 95.3879 313.954 95.8097 314.551C96.2315 315.148 77.8505 330.535 70.7205 337.587L69.8916 338.414C65.8191 342.51 62.8162 346.056 61.1238 348.86C59.33 351.831 59.2157 353.444 60.3728 354.104C64.7667 356.607 71.0825 357.826 80.1293 356.285L81.0586 356.122C84.5024 355.503 110.405 349.697 109.995 349.851L109.836 349.9C109.019 350.122 98.4722 353.871 94.8319 354.823L94.3919 354.937C88.8261 356.377 84.4712 357.363 80.5537 358.03C70.9803 359.66 64.1414 359.304 59.1135 356.44C56.2128 354.788 56.4441 351.547 58.916 347.452C60.8605 344.23 64.2808 340.25 68.9189 335.663C76.1442 328.517 86.3074 319.993 93.9952 314.255Z" fill="white"/>
<path fill-rule="evenodd" clip-rule="evenodd" d="M228.307 122.119C228.621 121.899 229.041 121.993 229.247 122.328L233.889 129.879C234.094 130.213 234.007 130.663 233.693 130.881C233.379 131.101 232.959 131.007 232.753 130.672L228.111 123.121C227.906 122.787 227.993 122.337 228.307 122.119Z" fill="#B5B5BF"/>
<path fill-rule="evenodd" clip-rule="evenodd" d="M228.379 115.138C228.759 114.869 229.261 115.004 229.5 115.44L232.874 121.585C233.114 122.022 233 122.593 232.62 122.862C232.241 123.131 231.739 122.996 231.5 122.56L228.125 116.415C227.886 115.979 228 115.407 228.379 115.138Z" fill="#B5B5BF"/>
</svg>
