<svg width="250" height="250" viewBox="0 0 672 443" fill="none" xmlns="http://www.w3.org/2000/svg">
<path d="M607.698 188.527C630.731 144.091 654.588 78.2605 587.785 25.7425C520.978 -26.7805 455.002 12.7495 423.965 41.3315C406.058 57.8215 389.757 76.9525 375.481 93.7045C367.159 103.471 359.525 112.429 352.664 119.584C306.423 167.806 259.942 180.637 195.12 198.531C169.851 205.507 141.796 213.251 109.882 224.162C23.0333 253.854 10.5374 281.797 20.5944 307.766C23.8156 306.415 27.1914 305.081 30.7164 303.766C89.3668 281.891 189.325 265.39 305.316 265.39C453.423 265.39 607.456 318.91 665.088 361.78C656.302 344.114 633.504 325.174 612.637 307.837C595.647 293.723 579.937 280.671 574.107 270.234C562.436 249.342 570.214 239.895 583.39 223.891C590.639 215.087 599.522 204.298 607.698 188.527Z" fill="#53535F"/>
<path d="M608.555 430.254L607.768 430.275L604.314 430.346C489.115 432.572 256.078 417.861 108.245 398.773C108.242 398.772 108.24 398.772 108.238 398.771H108.219C108.228 398.772 108.236 398.772 108.245 398.773C167.581 422.713 251.792 438.87 338.218 439.116C409.72 439.321 458.834 440.472 493.972 441.296C567.751 443.025 579.917 443.31 608.339 430.353L608.555 430.254Z" fill="#53535F"/>
<path fill-rule="evenodd" clip-rule="evenodd" d="M312.179 285.451L315.006 285.633L310.822 352.726L308.807 355.263L305.707 353.136L312.179 285.451Z" fill="white"/>
<path d="M525.275 199.839C568.494 199.839 603.529 164.803 603.529 121.585C603.529 78.3656 568.494 43.3297 525.275 43.3297C482.056 43.3297 447.02 78.3656 447.02 121.585C447.02 164.803 482.056 199.839 525.275 199.839Z" fill="white"/>
<path fill-rule="evenodd" clip-rule="evenodd" d="M320.421 197.84C320.421 197.84 320.247 193.35 325.598 193.085C330.944 192.82 374.619 197.84 374.619 197.84C374.619 197.84 384.017 199.193 382.465 209.754C380.909 220.314 375.236 244.651 375.236 244.651C375.236 244.651 375.902 248.814 369.078 247.709C362.254 246.605 341.993 241.337 320.421 244.68C320.421 244.68 316.858 245.098 316.961 260.248L315.008 259.888C315.008 259.888 317.859 202.09 320.421 197.84Z" fill="white"/>
<path fill-rule="evenodd" clip-rule="evenodd" d="M352.473 162.106C352.895 161.655 352.473 162.106 352.473 162.106C350.76 163.944 349.303 165.578 348.364 166.758C343.882 172.394 337.877 177.736 335.452 181.821C335.452 181.821 324.718 186.712 320.418 181.626C320.418 181.626 330.28 168.694 338.101 162.917C338.101 162.917 345.699 159.177 352.473 162.106ZM360.807 153.482L352.87 151.177C352.87 151.177 360.919 146.162 365.38 144.262L369.075 145.264C369.075 145.264 365.256 148.997 360.807 153.482C360.807 153.482 360.695 153.602 360.807 153.482Z" fill="white"/>
<path fill-rule="evenodd" clip-rule="evenodd" d="M229.028 368.609C229.028 368.609 215.065 365.514 211.742 349.548C211.742 349.548 214.287 344.943 224.265 334.278C224.265 334.278 236.878 326.18 234.801 313.343C234.801 313.343 221.041 309.776 225.643 288.87L228.577 283.511C228.577 283.511 225.328 260.3 228.08 246.557C228.08 246.557 225.535 229.027 236.137 227.769C236.137 227.769 240.598 227.115 241.091 225.369C241.091 225.369 234.561 207.281 253.679 198.512C272.793 189.747 287.666 204.848 287.066 220.941C287.066 220.941 285.411 231.957 278.666 236.886C278.666 236.886 293.153 245.948 301.219 257.862C301.219 257.862 310.236 267.215 314.2 265.638C314.2 265.638 326.288 265.373 324.641 269.598C322.998 273.819 321.84 279.869 304.14 280.788C304.14 280.788 287.029 278.595 282.568 278.471L279.431 277.374C279.431 277.374 283.292 285.563 279.092 293.372C274.892 301.177 271.838 303.879 272.289 305.394L281.591 348.895C281.591 348.895 280.921 356.24 289.144 354.953C297.366 353.662 295.185 358.681 293.547 359.885C291.908 361.093 278.359 372.681 266.988 357.904C255.616 343.122 253.944 340.084 253.944 340.084L231.204 356.004C231.204 356.004 229.437 357.721 230.724 361.719C230.724 361.719 233.183 367.637 229.028 368.609Z" fill="white"/>
<path fill-rule="evenodd" clip-rule="evenodd" d="M437.047 127.922C432.993 36.8695 526.715 41.3005 526.915 41.3305C638.815 57.8835 612.181 199.838 525.462 204.33C525.402 204.333 440.545 206.491 437.047 127.922ZM440.262 127.814C437.82 72.9715 473.963 54.9595 500.212 49.1005C500.301 49.1935 500.416 49.2935 500.551 49.4005C502.355 50.8365 504.143 52.1585 506.568 52.6245C507.991 52.8985 509.367 53.3965 510.745 53.8945H510.746C511.808 54.2795 512.872 54.6635 513.959 54.9465C515.397 55.3195 516.893 55.4865 518.384 55.6535C518.815 55.7015 519.245 55.7495 519.673 55.8025C520.069 55.8515 520.472 55.8535 520.874 55.8565C521.381 55.8595 521.887 55.8625 522.376 55.9585C523.023 56.0855 523.659 56.2675 524.296 56.4485C525.084 56.6745 525.871 56.8995 526.675 57.0185C527.246 57.1035 527.838 57.0745 528.428 57.0455C529.134 57.0105 529.837 56.9755 530.495 57.1375C532.224 57.5615 533.903 58.2135 535.575 58.8625C535.812 58.9545 536.048 59.0455 536.284 59.1365L536.661 59.2825C538.433 59.9655 540.215 60.6515 541.9 61.5165C543.518 62.3475 545.028 62.1845 545.889 60.7325C547.201 58.5235 548.579 56.4635 551.5 56.1945C552.066 56.1425 552.616 55.9015 553.165 55.6615C553.416 55.5515 553.666 55.4415 553.917 55.3505L553.621 55.2335C552.896 54.9485 552.172 54.6645 551.451 54.3715C551.437 54.3665 551.44 54.3305 551.443 54.2905C551.446 54.2455 551.45 54.1955 551.43 54.1815C549.688 52.9085 546.799 53.9505 545.823 55.8245C545.223 56.9785 544.064 58.1225 542.881 58.6245C541.671 59.1375 540.652 58.5015 539.574 57.8285H539.573C539.129 57.5515 538.674 57.2675 538.192 57.0555C536.127 56.4385 534.265 55.8285 532.411 55.2025C531.829 55.0055 531.25 54.7955 530.672 54.5855H530.67C529.436 54.1375 528.203 53.6895 526.936 53.3755C526.301 53.2175 525.628 53.2295 524.952 53.2405C524.425 53.2495 523.896 53.2585 523.381 53.1875C522.367 53.0465 521.358 52.8595 520.349 52.6715H520.348C519.23 52.4645 518.111 52.2565 516.984 52.1125C516.237 52.0165 515.472 51.9955 514.709 51.9745C513.469 51.9405 512.235 51.9065 511.095 51.5535C510.678 51.4235 510.273 51.2745 509.871 51.1265C508.816 50.7375 507.773 50.3525 506.539 50.3345C505.446 50.3195 504.172 49.5675 503.328 48.7745C503.219 48.6725 503.114 48.5855 503.012 48.5125C516.303 45.8955 526.423 46.3455 526.486 46.3545C627.661 62.0175 606.834 196.057 525.462 200.272C525.406 200.275 443.544 201.538 440.262 127.814ZM212.012 354.724L212.097 354.973C212.623 356.512 213.52 357.925 214.443 359.379C214.803 359.946 215.167 360.52 215.515 361.11C215.739 361.384 215.943 361.653 216.139 361.913V361.914H216.14V361.915C216.494 362.382 216.823 362.818 217.21 363.196C219.676 365.6 222.37 367.707 225.574 369.047C225.789 369.138 226.065 369.085 226.34 369.032C226.616 368.978 226.892 368.925 227.104 369.018C229.98 370.289 232.834 368.658 232.719 365.489C232.679 364.399 232.353 363.323 232.025 362.241C231.796 361.487 231.567 360.729 231.433 359.964C231.296 359.169 231.436 358.151 231.846 357.473C232.919 355.693 234.624 354.609 236.421 353.554C237.269 353.056 237.99 352.35 238.714 351.641V351.64H238.715L238.716 351.639C239.28 351.086 239.845 350.532 240.475 350.074C241.473 349.347 242.534 348.709 243.596 348.071C244.373 347.604 245.15 347.137 245.903 346.635C246.421 346.288 246.907 345.902 247.393 345.516C248.538 344.608 249.68 343.701 251.232 343.312C253.196 342.824 255.247 343.444 256.416 345.273C256.917 346.057 257.512 346.779 258.107 347.502C258.559 348.05 259.011 348.599 259.423 349.176C260.421 350.57 261.361 352.014 262.239 353.488C262.592 354.078 262.899 354.704 263.206 355.328V355.329C263.738 356.412 264.269 357.492 265.03 358.379C266.068 359.586 267.262 360.659 268.458 361.733C269.27 362.462 270.083 363.192 270.849 363.966C273.005 366.142 275.783 366.713 278.595 366.953C280.039 367.073 281.5 366.789 282.926 366.513C283.822 366.339 284.703 366.168 285.557 366.101C286.688 366.013 287.588 365.567 288.472 365.129C289.296 364.721 290.105 364.32 291.072 364.222C291.978 364.131 292.815 363.363 293.652 362.596C294.026 362.253 294.4 361.91 294.78 361.628C297.179 359.844 297.258 356.533 294.858 354.849C294.613 354.679 294.251 354.665 293.891 354.652C293.518 354.639 293.147 354.625 292.916 354.435C291.07 352.925 289.093 353.326 287.072 353.765C285.286 354.15 283.112 352.172 283.137 350.355C283.148 349.615 282.95 348.868 282.755 348.131C282.705 347.94 282.655 347.751 282.608 347.562C282.495 347.096 282.352 346.634 282.209 346.174V346.173C281.953 345.344 281.697 344.519 281.614 343.676C281.541 342.937 281.361 342.223 281.181 341.51C280.945 340.574 280.708 339.638 280.713 338.64C280.716 338.041 280.484 337.448 280.25 336.85C280.078 336.409 279.905 335.966 279.824 335.515C279.706 334.864 279.658 334.202 279.611 333.539V333.538C279.562 332.849 279.512 332.16 279.384 331.485C279.21 330.573 278.981 329.673 278.753 328.773V328.772L278.752 328.771C278.494 327.751 278.235 326.732 278.057 325.7C277.925 324.934 277.924 324.147 277.924 323.359C277.923 322.847 277.923 322.334 277.887 321.826C277.865 321.527 277.864 321.204 277.863 320.877C277.86 319.957 277.857 319.009 277.395 318.487C276.827 317.848 276.851 317.182 276.876 316.502C276.896 315.937 276.917 315.362 276.597 314.787C275.984 313.685 275.948 312.254 275.913 310.834V310.833C275.9 310.302 275.886 309.773 275.843 309.263C275.813 308.911 275.855 308.515 275.897 308.126V308.125V308.124V308.123V308.122V308.121C275.969 307.456 276.038 306.81 275.742 306.432C274.658 305.051 275.282 303.68 275.744 302.666C275.771 302.607 275.797 302.55 275.822 302.494C276.577 300.816 277.475 299.202 278.373 297.588V297.587C279.335 295.858 280.296 294.129 281.082 292.323C281.813 290.641 282.046 288.722 282.274 286.838C282.32 286.46 282.366 286.084 282.415 285.711C282.504 285.039 282.479 284.349 282.455 283.66V283.659V283.658V283.657V283.656V283.655C282.427 282.889 282.399 282.124 282.53 281.385C282.622 280.862 283.342 280.411 283.952 280.029C284.044 279.972 284.134 279.916 284.218 279.862C284.28 279.822 284.419 279.944 284.587 280.091C284.782 280.262 285.015 280.466 285.21 280.491C285.764 280.562 286.37 280.556 286.972 280.55C288.143 280.539 289.3 280.528 290.034 281.086C291.351 282.085 292.733 282.032 294.052 281.982C294.597 281.961 295.132 281.941 295.646 281.995C298.532 282.302 301.47 282.121 304.408 281.94L304.409 281.939H304.41H304.411H304.412H304.413H304.414H304.415H304.416H304.417H304.418H304.419C305.57 281.868 306.721 281.797 307.869 281.756C308.628 281.728 309.394 281.698 310.142 281.577C313.866 280.977 317.526 280.107 320.472 277.59C321.382 276.812 322.146 275.863 322.909 274.915C323.228 274.518 323.548 274.12 323.878 273.736C324.756 272.714 325.086 271.549 325.46 270.217C326.153 267.752 324.613 264.66 321.946 264.858C320.85 264.94 320.109 264.596 319.228 264.174C318.702 263.921 317.993 263.917 317.386 263.985C316.966 264.032 316.543 264.113 316.121 264.193C314.409 264.519 312.715 264.842 311.341 262.92C311.054 262.519 310.488 262.301 309.943 262.093C309.784 262.031 309.626 261.971 309.477 261.906C309.17 261.773 308.837 261.676 308.504 261.579C307.91 261.405 307.321 261.233 306.901 260.863C305.174 259.345 303.567 257.679 302.011 255.979C301.216 255.111 300.463 254.204 299.71 253.298V253.297H299.709V253.296H299.708V253.295H299.707V253.294H299.706V253.293C298.928 252.356 298.149 251.419 297.325 250.524C295.699 248.759 293.995 247.057 292.23 245.432C290.781 244.096 289.236 242.853 287.651 241.68C286.499 240.827 285.259 240.089 284.023 239.354L283.67 239.144C282.033 238.167 281.898 236.449 281.862 234.908C281.854 234.547 282.496 234.172 283.139 233.795C283.435 233.622 283.731 233.449 283.964 233.276C284.018 233.236 284.077 233.188 284.109 233.13C284.381 232.635 284.655 232.14 284.93 231.646C285.738 230.187 286.547 228.729 287.313 227.249C287.512 226.865 287.59 226.417 287.668 225.971V225.97C287.697 225.805 287.726 225.641 287.76 225.48C287.882 224.913 288.024 224.347 288.166 223.78C288.539 222.295 288.911 220.809 288.927 219.32C288.935 218.587 288.785 217.596 288.641 216.735C288.368 215.103 288.081 213.464 287.633 211.874C287.473 211.304 287.196 210.768 286.918 210.23C286.707 209.821 286.495 209.411 286.334 208.985C286.136 208.462 285.994 207.899 285.853 207.339C285.588 206.292 285.326 205.253 284.709 204.496C284.148 203.809 283.679 203.04 283.209 202.269H283.208V202.268C282.114 200.475 281.015 198.673 278.743 197.864C277.827 197.538 276.959 197.035 276.095 196.535C274.941 195.868 273.796 195.205 272.559 194.975C269.366 194.382 266.025 194.436 262.751 194.491C260.172 194.534 257.493 194.645 255.061 195.389C253.308 195.925 251.538 196.791 249.859 197.916C249.553 198.121 249.242 198.324 248.929 198.528C247.327 199.574 245.689 200.643 244.641 202.05C244.237 202.592 243.771 203.111 243.301 203.634C241.881 205.215 240.423 206.838 240.52 209.269C238.924 210.178 238.878 211.741 238.836 213.189C238.823 213.642 238.81 214.084 238.751 214.492L238.744 214.539C238.495 216.231 238.228 218.044 238.616 220.042C239.092 222.491 239.629 224.688 240.907 226.791C241.663 228.035 242.287 229.356 240.191 230.048C239.898 230.145 239.537 230.398 239.439 230.664C238.94 232.022 238.266 233.253 236.828 233.737C235.509 234.181 235.607 235.106 235.704 236.013C235.729 236.245 235.754 236.476 235.754 236.698C235.755 236.816 236.859 237.197 237.128 237.004C237.946 236.418 238.736 235.792 239.527 235.166V235.165H239.528L239.529 235.164L239.53 235.163C240.615 234.304 241.699 233.446 242.851 232.692C243.547 232.236 244.774 232.173 245.601 232.432C246.497 232.713 247.339 233.16 248.183 233.609C248.697 233.882 249.211 234.156 249.738 234.392C251.097 235.001 252.469 235.579 253.841 236.158C254.559 236.46 255.276 236.762 255.992 237.069C256.926 237.47 257.096 237.994 256.226 238.671C255.779 239.018 255.33 239.364 254.882 239.71L254.873 239.718H254.872H254.871V239.719H254.87V239.72H254.869L254.868 239.721L254.867 239.722H254.866V239.723H254.865V239.724H254.864C253.697 240.625 252.529 241.526 251.38 242.452C248.19 245.023 246.585 248.592 246.146 252.459C245.842 255.13 246.139 258.07 246.992 260.613C247.667 262.622 249.046 264.427 250.39 266.186L250.393 266.19C250.633 266.504 250.872 266.817 251.106 267.129C252.851 269.462 255.335 270.844 257.807 272.219C258.513 272.612 259.219 273.004 259.905 273.418C261.495 274.376 263.338 274.965 265.128 275.52C266.009 275.794 266.921 275.961 267.833 276.129H267.834C268.563 276.263 269.293 276.397 270.008 276.586C270.661 276.758 271.296 276.998 271.931 277.239C272.523 277.463 273.114 277.687 273.721 277.856C274.814 278.16 275.922 278.409 277.03 278.658H277.032L277.033 278.659H277.035H277.036L277.038 278.66H277.039H277.041C277.589 278.784 278.137 278.907 278.684 279.037C278.691 279.038 278.695 279.049 278.697 279.065C278.699 279.077 278.7 279.091 278.701 279.106V279.107C278.704 279.15 278.708 279.199 278.729 279.215C279.466 279.8 280.504 284.2 280.219 285.05C279.701 286.594 279.261 288.166 278.822 289.735V289.737L278.732 290.056C278.637 290.395 278.577 290.752 278.517 291.108V291.109C278.409 291.75 278.302 292.388 277.992 292.91L277.698 293.408C276.343 295.701 274.975 298.016 273.291 300.057C271.617 302.087 269.662 303.999 267.168 305.064C266.681 305.272 266.263 305.593 265.84 305.917C264.973 306.581 264.091 307.258 262.565 306.991C261.745 306.847 260.742 307.74 259.743 308.628C259.302 309.021 258.862 309.412 258.439 309.714C258.335 309.785 258.258 309.895 258.18 310.005C258.146 310.054 258.111 310.103 258.074 310.148C258.091 310.153 258.107 310.158 258.124 310.164L258.149 310.173L258.17 310.18L258.188 310.186L258.207 310.194L258.253 310.211C258.377 310.258 258.501 310.305 258.626 310.305C259.055 310.311 259.487 310.299 259.918 310.287C260.803 310.263 261.687 310.238 262.549 310.363C263.387 310.483 264.884 311.183 264.847 311.448C264.647 312.831 264.566 314.221 264.485 315.614V315.615C264.355 317.848 264.224 320.09 263.603 322.327C263.211 323.735 262.575 324.999 261.943 326.257C261.463 327.21 260.986 328.159 260.619 329.163C259.651 331.808 257.289 334.129 255.092 336.095C253.211 337.779 251.127 339.234 249.042 340.69C248.002 341.416 246.962 342.143 245.946 342.898C244.741 343.798 243.559 344.73 242.377 345.661C241.689 346.203 241.002 346.745 240.309 347.28L240.103 347.44C239.043 348.256 237.982 349.074 236.897 349.858C236.456 350.177 236.022 350.511 235.588 350.846C234.451 351.722 233.313 352.6 232.043 353.19C230.002 354.133 228.744 355.681 228.761 357.651C228.772 359.091 229.163 360.526 229.555 361.964C229.751 362.683 229.947 363.402 230.096 364.123C230.186 364.554 230.192 365.003 230.198 365.452C230.201 365.658 230.203 365.864 230.214 366.068C229.8 366.055 229.374 366.074 228.947 366.094C227.985 366.137 227.022 366.181 226.203 365.857C225.221 365.47 224.333 364.857 223.442 364.242C222.817 363.811 222.191 363.378 221.53 363.022C219.15 361.739 217.841 359.563 216.588 357.357C215.691 355.778 214.943 354.108 214.201 352.448L214.099 352.221C214.073 352.163 214.046 352.103 214.017 352.04C213.723 351.393 213.347 350.565 213.575 350.119C214.324 348.663 215.308 347.301 216.352 346.026C218.423 343.496 220.559 341.018 222.695 338.54L223.433 337.684C223.738 337.329 224.037 336.964 224.336 336.599C225.201 335.541 226.07 334.48 227.118 333.649C229.988 331.377 232.289 328.7 234.304 325.658C235.873 323.287 236.489 320.903 235.903 318.156C235.867 317.981 235.982 317.775 236.097 317.569C236.151 317.473 236.205 317.376 236.244 317.282C235.751 317.158 235.258 317.032 234.765 316.906L234.745 316.901L234.725 316.896C234.233 316.771 233.741 316.645 233.249 316.521C233.201 316.725 233.135 316.93 233.068 317.136C232.923 317.583 232.779 318.03 232.823 318.458C233.173 321.801 232.107 324.301 229.574 326.73C226.327 329.845 223.347 333.241 220.368 336.636L220.366 336.639C219.376 337.767 218.386 338.896 217.386 340.014C216.854 340.608 216.294 341.168 215.735 341.727C213.821 343.642 211.928 345.535 211.272 348.7C210.772 351.115 211.38 352.886 212.012 354.724ZM305.369 278.298L305.367 278.299H305.366H305.364H305.363H305.362C304.523 278.362 303.681 278.425 302.834 278.474C290.034 279.215 275.532 275.426 274.509 274.952C273.393 274.434 272.171 274.141 270.95 273.849C270.465 273.733 269.98 273.616 269.502 273.486C269.089 273.374 268.673 273.27 268.257 273.167C267.606 273.006 266.955 272.844 266.314 272.647C264.592 272.116 262.878 271.551 261.178 270.954C260.568 270.741 259.977 270.44 259.425 270.101C259.019 269.852 258.604 269.612 258.189 269.373H258.188C257.032 268.707 255.874 268.039 254.916 267.157C253.965 266.281 253.276 265.097 252.601 263.937L252.54 263.833C252.437 263.655 252.333 263.478 252.229 263.303C251.487 262.055 250.811 260.74 250.269 259.404C247.99 253.787 250.845 247.717 252.043 245.768C253.559 243.301 256.382 241.946 258.685 241.529C260.66 241.173 263.268 241.091 265.661 241.917C267.307 242.485 268.74 243.345 270.166 244.2C271.013 244.709 271.858 245.215 272.743 245.659C275.718 247.148 278.38 249.079 281.02 250.994L281.33 251.219C282.854 252.323 284.162 253.717 285.474 255.114C286.28 255.973 287.087 256.833 287.945 257.627C289.277 258.858 290.714 259.978 292.149 261.095C292.488 261.36 292.828 261.624 293.166 261.89C293.52 262.169 293.871 262.458 294.222 262.748L294.223 262.749C295.285 263.625 296.351 264.505 297.55 265.117C299.069 265.893 300.704 266.448 302.335 267.003H302.336H302.337H302.338V267.004H302.339H302.34H302.341L302.342 267.005H302.343C302.864 267.182 303.386 267.359 303.903 267.544C305.16 267.992 306.433 268.416 307.727 268.734C307.871 268.77 308.016 268.806 308.161 268.843H308.162L308.163 268.844C309.176 269.1 310.222 269.365 311.223 269.283C314.137 269.045 314.271 268.943 316.698 267.098C316.828 266.999 316.964 266.896 317.108 266.787C317.401 266.564 317.889 266.402 318.232 266.474C320.24 266.894 322.301 267.4 323.603 269.073C323.886 269.436 323.21 270.908 322.616 271.52C322.505 271.635 322.394 271.749 322.284 271.864C320.513 273.696 318.78 275.49 316.208 276.546C313.976 277.463 311.863 277.986 309.519 278.052C308.132 278.091 306.754 278.194 305.37 278.298H305.369ZM241.949 223.1C241.937 222.89 241.924 222.681 241.9 222.48C241.792 221.578 241.697 220.674 241.601 219.77V219.768C241.562 219.396 241.522 219.024 241.482 218.652C241.71 216.769 241.91 215.296 242.173 213.833C242.22 213.572 242.26 213.305 242.3 213.037C242.428 212.174 242.558 211.303 242.94 210.569C243.375 209.732 243.92 208.953 244.466 208.174C244.989 207.426 245.512 206.678 245.939 205.879C247.392 203.159 249.913 201.814 252.399 200.487C253.066 200.131 253.731 199.776 254.372 199.397C255.746 198.583 257.458 198.315 259.149 198.05C259.692 197.966 260.233 197.881 260.76 197.779C262.148 197.51 263.584 197.344 264.995 197.371C267.252 197.415 269.429 197.935 271.639 198.489C274.648 199.243 277.064 200.791 279.275 202.759C279.728 203.163 279.991 203.778 280.254 204.395C280.383 204.696 280.511 204.997 280.662 205.274C280.974 205.846 281.29 206.415 281.606 206.983L281.607 206.985L281.609 206.988L281.611 206.992V206.993V206.994H281.612V206.995H281.613V206.996V206.997H281.614V206.998V206.999C282.146 207.956 282.678 208.913 283.187 209.881C283.899 211.235 282.713 212.758 281.148 212.841C280.054 212.899 271.956 213.584 269.031 216.148C266.537 218.334 265.931 219.173 264.954 220.526C264.785 220.76 264.606 221.01 264.403 221.284C263.685 222.255 263.076 226.713 263.466 227.901C263.807 228.94 264.275 229.937 264.743 230.934V230.935V230.936H264.744V230.937V230.938V230.939H264.745C265.119 231.737 265.493 232.535 265.804 233.355C266.026 233.942 266.079 234.593 266.132 235.244C266.156 235.539 266.181 235.835 266.22 236.124C265.934 236.116 265.646 236.119 265.357 236.122C264.703 236.13 264.048 236.137 263.421 236.01C262.724 235.868 262.051 235.605 261.378 235.341H261.377C261.077 235.223 260.777 235.105 260.475 234.999C259.172 234.538 257.868 234.078 256.563 233.618L254.612 232.929C254.191 232.781 253.765 232.643 253.339 232.505C252.4 232.202 251.461 231.899 250.577 231.479C247.244 229.896 244.127 227.982 242.256 224.635C242.015 224.202 241.982 223.648 241.949 223.1ZM276.33 331.672C276.536 332.525 276.742 333.378 276.931 334.233C276.962 334.374 276.868 334.54 276.775 334.707C276.731 334.784 276.688 334.861 276.657 334.936C276.933 336.5 277.194 337.655 277.488 338.801C277.696 339.614 277.911 340.425 278.126 341.237L278.127 341.24C278.538 342.792 278.949 344.345 279.314 345.906C279.516 346.776 279.613 347.715 279.528 348.596C279.299 350.972 282.04 356.124 284.227 356.48C285.715 356.722 287.244 356.7 288.776 356.678C289.725 356.664 290.676 356.65 291.618 356.699C292.358 356.736 293.162 357.084 293.755 357.531C293.94 357.671 293.704 358.76 293.358 359.136C292.549 360.018 291.62 360.825 290.627 361.491C287.111 363.858 283.097 363.821 279.098 363.684C275.562 363.564 272.338 362.753 270.192 359.534C269.184 358.022 268.119 356.548 267.054 355.074C266.395 354.164 265.737 353.253 265.092 352.333C264.552 351.561 264.027 350.78 263.501 349.999C262.858 349.042 262.215 348.086 261.545 347.148C261.04 346.442 260.504 345.752 259.967 345.063C258.812 343.579 257.658 342.097 256.824 340.452C256.39 339.596 257.264 337.684 258.066 336.67C258.92 335.59 259.888 334.598 260.854 333.606C261.958 332.474 263.061 331.342 263.994 330.082C264.442 329.475 264.598 328.641 264.753 327.813C264.917 326.943 265.078 326.078 265.578 325.489C266.85 323.992 266.868 322.323 266.885 320.685C266.892 319.977 266.899 319.275 267.008 318.594C267.165 317.606 267.311 316.612 267.457 315.618L267.458 315.616C267.764 313.533 268.071 311.446 268.482 309.391C268.634 308.637 269.44 307.999 270.216 307.385C270.475 307.181 270.731 306.978 270.958 306.776C271.06 306.685 271.853 307.049 271.956 307.334C272.304 308.294 272.57 309.304 272.712 310.318C272.881 311.526 273.023 312.739 273.165 313.951V313.952V313.953V313.954L273.166 313.955V313.956V313.957V313.958V313.959L273.167 313.961C273.353 315.549 273.539 317.137 273.786 318.714C273.914 319.531 274.141 320.333 274.367 321.134V321.135H274.368V321.136V321.137V321.138V321.139V321.14H274.369V321.141V321.142V321.143V321.144L274.37 321.145V321.146V321.147V321.148V321.149V321.15H274.371V321.151V321.152V321.153C274.57 321.857 274.769 322.56 274.901 323.275C275.034 323.991 275.097 324.721 275.161 325.451V325.452C275.227 326.213 275.294 326.974 275.438 327.719C275.694 329.039 276.01 330.349 276.326 331.658L276.327 331.659V331.66V331.661V331.662L276.328 331.663V331.664V331.665V331.666L276.329 331.667V331.668V331.669V331.67L276.33 331.671V331.672ZM274.003 236.08C273.227 236.308 271.954 235.68 271.233 235.062C270.592 234.513 270.113 233.776 269.634 233.039C269.427 232.722 269.221 232.404 269.001 232.102C268.806 231.808 268.612 231.53 268.424 231.261C267.817 230.39 267.28 229.619 266.979 228.764C266.796 228.245 266.796 227.666 266.795 227.084C266.795 226.617 266.795 226.149 266.701 225.706C266.266 223.651 267.377 222.366 268.522 221.042L268.523 221.041C268.69 220.847 268.859 220.652 269.023 220.454C270.35 218.854 271.982 217.667 273.783 216.766C274.816 216.248 276.068 216.033 277.238 215.957C277.992 215.908 278.757 215.941 279.52 215.975C280.622 216.023 281.72 216.071 282.774 215.87C283.951 215.645 284.321 216.203 284.711 216.83C285.073 217.415 285.298 218.174 285.318 218.865C285.37 220.688 285.309 222.518 285.212 224.341C285.205 224.484 285.048 224.615 284.887 224.748C284.73 224.88 284.57 225.013 284.545 225.163C283.978 228.653 281.84 231.281 279.424 233.522C278.017 234.828 275.913 235.516 274.003 236.08ZM298.906 262.196C298.867 262.237 298.828 262.279 298.796 262.31C298.493 262.048 298.198 261.792 297.91 261.541C296.725 260.511 295.654 259.581 294.533 258.716C294.25 258.497 293.905 258.354 293.561 258.212C293.186 258.056 292.813 257.902 292.522 257.65C291.536 256.799 290.583 255.91 289.63 255.022C288.822 254.27 288.015 253.518 287.188 252.788C285.495 251.294 283.758 249.849 282.004 248.428C281.636 248.13 281.271 247.826 280.906 247.522C279.663 246.486 278.416 245.448 277.044 244.625C275.744 243.845 274.359 243.207 272.974 242.568H272.973C272.135 242.182 271.297 241.796 270.477 241.378C269.569 240.915 268.716 240.343 267.865 239.774C267.738 239.688 267.61 239.602 267.482 239.517C267.461 239.504 267.741 238.779 267.926 238.756C268.593 238.675 269.27 238.556 269.948 238.436H269.949C271.697 238.127 273.453 237.817 275.066 238.16C277.348 238.647 279.655 239.468 281.817 240.956C285.382 243.41 288.532 246.218 291.525 249.263C294.815 252.611 298.06 256.003 301.305 259.394L302.49 260.633C303.927 262.134 305.322 263.675 306.716 265.217C306.843 265.357 306.931 265.716 306.846 265.829C306.563 266.201 306.074 266.845 305.878 266.776C305.232 266.549 304.646 266.122 304.077 265.708L303.974 265.633C303.116 265.011 302.265 264.381 301.413 263.75C300.636 263.176 299.86 262.601 299.079 262.032C299.067 262.023 298.987 262.109 298.906 262.196ZM671.84 363.092C671.47 363.107 671.079 363.162 670.688 363.218C669.827 363.34 668.965 363.462 668.322 363.146C668.283 363.127 668.177 363.074 668.006 362.987L667.964 362.966L667.956 362.962C661.502 359.706 574.509 315.818 485.765 288.815C408.838 265.407 328.041 258.779 324.585 258.496L324.486 258.488C324.117 258.456 406.593 256.413 486.979 280.519C579.393 308.232 671.455 362.628 671.84 363.092ZM383.528 209.612V209.611C383.626 208.705 383.725 207.788 383.837 206.858C383.776 206.613 383.719 206.372 383.662 206.137C383.401 205.046 383.165 204.06 382.796 203.128C382.762 203.041 382.728 202.954 382.694 202.866L382.645 202.74C382.08 201.277 381.513 199.812 379.614 199.357C379.196 199.256 378.839 198.935 378.476 198.608C378.178 198.339 377.875 198.067 377.532 197.912C376.528 197.46 375.435 197.145 374.349 196.954C373.8 196.858 373.237 196.844 372.673 196.83C372.118 196.816 371.564 196.802 371.022 196.71C370.051 196.544 369.085 196.335 368.12 196.127C366.635 195.806 365.152 195.486 363.65 195.321C363.073 195.257 362.495 195.203 361.918 195.148H361.916C360.305 194.995 358.696 194.843 357.089 194.503C355.601 194.187 354.053 194.143 352.509 194.099H352.508H352.507C352.014 194.085 351.521 194.071 351.031 194.049C350.806 194.038 350.574 194.113 350.343 194.187C350.088 194.269 349.834 194.35 349.595 194.314C347.891 194.057 346.195 193.747 344.499 193.437C344.066 193.358 343.633 193.279 343.201 193.201C342.446 193.065 341.696 193.076 340.937 193.088C340.089 193.101 339.231 193.115 338.343 192.922C336.819 192.592 335.23 192.58 333.629 192.568C332.552 192.56 331.47 192.551 330.397 192.446C328.183 192.229 325.942 192.281 323.701 192.332C322.784 192.354 321.868 192.375 320.954 192.378C319.602 192.382 317.922 193.939 317.826 195.263C317.798 195.637 317.819 196.048 317.84 196.458V196.459V196.46V196.461V196.462V196.463V196.464V196.465C317.884 197.331 317.927 198.193 317.523 198.704C316.5 199.999 316.639 201.39 316.779 202.788C316.894 203.935 317.009 205.085 316.483 206.19C315.962 207.283 316.028 208.597 316.094 209.911C316.126 210.552 316.158 211.193 316.122 211.808C316.061 212.842 315.968 213.877 315.875 214.912C315.693 216.94 315.511 218.97 315.569 221.007C315.577 221.283 315.65 221.561 315.722 221.838V221.839C315.813 222.188 315.903 222.534 315.862 222.868C315.686 224.294 315.471 225.715 315.256 227.137L315.255 227.138C315.076 228.325 314.896 229.512 314.739 230.702C314.626 231.558 314.631 232.415 314.636 233.276C314.643 234.38 314.65 235.49 314.407 236.619C314.126 237.928 314.121 239.282 314.115 240.648C314.11 241.679 314.106 242.718 313.983 243.749C313.825 245.075 313.851 246.413 313.878 247.756V247.757C313.913 249.568 313.949 251.388 313.533 253.2C313.277 254.32 313.209 255.482 313.14 256.646C313.097 257.392 313.053 258.139 312.959 258.877C312.925 259.149 312.751 259.455 312.59 259.738H312.589C312.397 260.075 312.223 260.382 312.324 260.562C312.646 261.137 313.405 261.578 314.073 261.825C315.892 262.497 318.342 261.613 318.445 260.32C318.491 259.743 318.558 259.163 318.624 258.581V258.579L318.625 258.578C318.799 257.056 318.973 255.531 318.787 254.054C318.613 252.679 318.926 251.403 319.237 250.134C319.501 249.058 319.764 247.988 319.727 246.868C319.716 246.524 320.133 245.869 320.373 245.859C323.478 245.726 326.587 245.649 329.696 245.632C330.804 245.626 331.912 245.657 333.02 245.689C334.238 245.724 335.455 245.759 336.672 245.743C337.949 245.727 339.226 245.673 340.504 245.618C342.565 245.531 344.626 245.443 346.683 245.516C347.974 245.561 349.256 245.822 350.539 246.083C351.434 246.265 352.33 246.447 353.23 246.557C353.788 246.625 354.349 246.638 354.91 246.651C355.823 246.672 356.739 246.692 357.656 246.95C358.196 247.101 358.78 247.083 359.367 247.064C359.911 247.047 360.457 247.029 360.969 247.148C361.807 247.341 362.621 247.637 363.436 247.932H363.437C364.136 248.186 364.835 248.439 365.551 248.629C366.368 248.846 367.213 248.959 368.058 249.072C368.484 249.129 368.909 249.186 369.332 249.256C369.707 249.319 370.1 249.43 370.492 249.54C371.341 249.779 372.187 250.018 372.845 249.763C374.142 249.263 375.413 248.14 376.169 246.95C376.937 245.74 377.25 244.199 377.546 242.742L377.59 242.525C377.681 242.08 377.632 241.584 377.585 241.097C377.522 240.459 377.461 239.837 377.716 239.369C378.487 237.952 378.69 236.441 378.892 234.934C378.992 234.194 379.091 233.454 379.257 232.727C379.337 232.38 379.295 231.973 379.255 231.578C379.202 231.055 379.151 230.553 379.385 230.242C380.433 228.853 380.583 227.267 380.733 225.679C380.828 224.679 380.923 223.678 381.242 222.726C381.682 221.412 381.934 219.996 382.187 218.58V218.579C382.296 217.965 382.406 217.351 382.531 216.745C383.009 214.425 383.264 212.058 383.528 209.613V209.612ZM375.934 234.299C375.653 235.742 375.373 237.176 374.733 238.516C374.7 238.819 374.679 239.098 374.659 239.355V239.357V239.358C374.607 240.051 374.566 240.59 374.337 241.032C373.982 241.72 373.935 242.518 373.889 243.314C373.813 244.614 373.737 245.909 372.316 246.711C372.255 246.745 372.192 246.782 372.128 246.819C371.675 247.081 371.153 247.383 370.751 247.295C370.342 247.204 369.958 246.989 369.576 246.775C369.175 246.55 368.774 246.326 368.346 246.246C367.59 246.104 366.818 246.044 366.047 245.985C365.162 245.916 364.278 245.848 363.421 245.656C362.69 245.493 361.988 245.199 361.286 244.905C360.572 244.606 359.858 244.308 359.114 244.147C358.166 243.941 357.19 243.87 356.213 243.799C355.453 243.743 354.692 243.687 353.943 243.569C347.527 242.551 341.086 242.704 334.644 242.857C330.784 242.949 326.924 243.04 323.069 242.88C321.734 242.824 320.612 242.751 320.515 241.046C320.48 240.433 320.37 239.792 320.261 239.152C320.035 237.835 319.81 236.525 320.244 235.484C321.16 233.291 321.051 231.125 320.943 228.969C320.898 228.063 320.853 227.16 320.883 226.256C321.173 217.749 321.249 209.232 321.316 200.719C321.317 200.594 321.317 200.47 321.317 200.348V200.347C321.32 198.954 321.323 197.662 322.349 196.502C322.94 195.835 323.461 195.586 324.374 195.651C325.447 195.729 326.525 195.744 327.602 195.759C328.823 195.776 330.044 195.793 331.257 195.9C332.473 196.008 333.683 196.198 334.892 196.388C336.165 196.588 337.437 196.788 338.718 196.892C339.54 196.959 340.392 196.898 341.239 196.839H341.24H341.241H341.242H341.243H341.244C342.56 196.746 343.865 196.654 345.022 197.039C347.365 197.819 349.73 197.876 352.089 197.932C353.313 197.962 354.535 197.991 355.751 198.121C356.696 198.222 357.69 198.147 358.676 198.072C360.157 197.96 361.618 197.849 362.861 198.342C364.906 199.153 366.948 199.169 368.962 199.183C369.76 199.189 370.554 199.195 371.341 199.251C374.661 199.485 377.544 200.432 379.384 202.863C380.453 204.274 381.483 206.611 380.138 208.806C380.02 208.999 380.05 209.278 380.082 209.562C380.099 209.722 380.117 209.883 380.109 210.031C380.069 210.736 380.077 211.46 380.085 212.184C380.103 213.845 380.121 215.507 379.563 216.944C379.027 218.324 378.771 219.742 378.515 221.155C378.301 222.341 378.087 223.523 377.709 224.678C377.445 225.484 377.451 226.392 377.456 227.293C377.463 228.311 377.469 229.321 377.085 230.167C376.481 231.498 376.207 232.902 375.934 234.299ZM316.536 243.225C316.481 243.169 316.425 243.114 316.384 243.068C317.15 243.145 318.016 243.301 318.199 243.741C318.399 244.222 318.369 244.797 318.34 245.372C318.328 245.617 318.315 245.861 318.32 246.098C318.262 246.098 318.197 246.107 318.131 246.115C317.988 246.133 317.844 246.152 317.781 246.089C317.692 246 317.629 245.866 317.568 245.737C317.49 245.57 317.415 245.412 317.293 245.368C315.865 244.857 315.827 244.764 316.759 243.487C316.775 243.465 316.655 243.345 316.536 243.225ZM473.807 399.554L473.808 399.555C474.305 399.809 474.794 400.059 475.287 400.303C475.657 400.487 476.045 400.643 476.431 400.798H476.432C477.07 401.054 477.705 401.308 478.254 401.69C478.934 402.159 479.504 402.791 480.071 403.42L480.156 403.514L480.22 403.585L480.297 403.67C480.341 403.717 480.384 403.765 480.428 403.812C480.465 403.853 480.502 403.893 480.539 403.933L480.609 404.007C480.692 404.098 480.634 404.512 480.567 404.533C480.406 404.581 480.236 404.646 480.064 404.712C479.591 404.893 479.103 405.08 478.742 404.946C478.147 404.723 477.535 404.544 476.922 404.364C475.102 403.83 473.283 403.296 471.927 401.628C470.826 400.27 469.303 399.145 467.76 398.3C467.064 397.924 465.794 398.478 465.508 399.633C464.786 402.542 456.875 414.083 445.033 414.084C433.19 414.084 414.558 412.863 409.605 406.917C402.646 398.562 405.327 382.606 405.585 381.071L405.6 380.986C405.682 380.465 405.297 379.807 404.97 379.318C404.87 379.169 404.164 379.256 403.866 379.443C402.953 380.019 402.065 380.633 401.177 381.248H401.176V381.249L401.167 381.254L401.125 381.284C400.991 381.376 400.857 381.469 400.723 381.561C400.513 381.707 400.302 381.852 400.09 381.996C399.879 382.139 399.668 382.285 399.458 382.431L399.335 382.517L399.164 382.636L398.878 382.836L398.866 382.844C397.761 383.618 396.655 384.393 395.479 385.037C395.119 385.235 394.524 385.042 393.969 384.862C393.804 384.808 393.642 384.755 393.492 384.715C393.176 384.626 392.879 384.473 392.582 384.32C392.447 384.251 392.313 384.182 392.176 384.119C392.419 383.903 392.655 383.677 392.891 383.451H392.892V383.45H392.893C393.416 382.95 393.939 382.45 394.532 382.054C395.336 381.52 396.179 381.043 397.022 380.565H397.023C397.637 380.217 398.251 379.87 398.85 379.5C400.402 378.54 401.931 377.539 403.442 376.517C403.625 376.393 403.811 376.271 403.998 376.148H403.999L404 376.147V376.146C404.773 375.639 405.555 375.126 406.158 374.46C408.72 371.63 411.6 369.229 414.588 366.842C415.977 365.735 417.499 364.976 419.013 364.22C420.075 363.69 421.134 363.162 422.14 362.517C422.847 362.066 423.741 361.916 424.639 361.766C425.133 361.683 425.629 361.6 426.096 361.466C426.998 361.207 427.892 360.921 428.786 360.635H428.787C429.45 360.423 430.114 360.211 430.781 360.009C430.97 359.954 431.181 359.961 431.388 359.968C431.457 359.97 431.525 359.972 431.592 359.972C432.416 359.972 433.242 359.95 434.069 359.928C436.011 359.876 437.951 359.824 439.856 360.059C441.049 360.208 442.19 360.766 443.331 361.325L443.333 361.326C443.845 361.576 444.358 361.827 444.875 362.041C444.848 362.087 444.823 362.143 444.799 362.199C444.751 362.311 444.703 362.421 444.631 362.443C441.883 363.204 439.202 363.655 436.388 362.36C435.519 361.96 434.357 362.106 433.271 362.242C433.053 362.27 432.839 362.297 432.63 362.319C431.617 362.427 430.617 362.675 429.622 362.923C429.399 362.979 429.175 363.034 428.951 363.088C428.82 363.12 428.688 363.15 428.555 363.18C428.479 363.197 428.403 363.214 428.326 363.231C427.556 363.402 426.78 363.575 426.084 363.904C423.568 365.087 421.076 366.341 418.627 367.665C417.815 368.103 417.039 368.604 416.263 369.105H416.262V369.106H416.261V369.107H416.26H416.259C415.556 369.561 414.853 370.015 414.124 370.421C413.722 370.646 413.288 370.821 412.855 370.995L412.854 370.996C411.731 371.448 410.611 371.899 410.065 373.21C410.022 373.311 409.893 373.377 409.766 373.443C409.738 373.458 409.71 373.472 409.684 373.487C409.656 373.502 409.63 373.517 409.605 373.533C409.892 373.541 410.184 373.569 410.476 373.597C411.131 373.66 411.785 373.723 412.378 373.554C413.378 373.273 414.329 372.817 415.28 372.362C415.395 372.307 415.509 372.253 415.623 372.198L415.728 372.148C415.903 372.065 416.079 371.983 416.255 371.903C416.727 371.689 417.193 371.458 417.658 371.227C418.562 370.778 419.465 370.33 420.41 370.007C420.971 369.817 421.579 369.779 422.191 369.742C422.627 369.715 423.065 369.689 423.489 369.606C424.278 369.455 425.058 369.245 425.838 369.035H425.839H425.84C426.234 368.929 426.628 368.823 427.023 368.725C427.213 368.679 427.42 368.667 427.619 368.667C428.463 368.665 429.318 368.708 430.173 368.751C432.219 368.853 434.264 368.955 436.152 368.456C436.915 368.255 437.599 368.32 438.27 368.385C438.818 368.437 439.358 368.488 439.926 368.394C441.016 368.212 442.252 368.719 443.431 369.202L443.638 369.286C443.718 369.319 443.797 369.351 443.875 369.382C443.949 369.412 444.024 369.441 444.097 369.47C444.147 369.489 444.197 369.509 444.246 369.527C445.537 370.016 446.895 370.541 447.958 371.381C449.206 372.373 450.348 373.496 451.489 374.619H451.49C451.972 375.094 452.454 375.568 452.945 376.033C452.853 376.128 452.749 376.255 452.644 376.382C452.42 376.656 452.195 376.929 452.096 376.889C451.621 376.699 422.157 373.021 410.648 379.318C406.473 381.603 410.315 398.193 410.636 399.581L410.648 399.633C412.378 407.14 439.35 411.467 449.612 409.751C461.966 407.685 462.707 394.772 462.947 390.584C462.989 389.849 463.016 389.383 463.088 389.291C463.75 388.443 464.805 387.988 465.744 388.774C466.191 389.147 466.489 389.871 466.564 390.467C466.633 391.031 466.81 391.569 466.981 392.091L466.982 392.092C467.118 392.507 467.252 392.912 467.325 393.314C467.554 394.582 468.371 395.377 469.195 396.18C469.772 396.743 470.354 397.309 470.739 398.044C471.833 398.545 472.832 399.056 473.807 399.554ZM170.98 320.73C170.593 320.644 170.207 320.557 169.949 320.701C169.049 321.203 130.788 338.322 104.072 323.676C103.745 323.496 103.274 323.253 102.711 322.962C99.3667 321.233 92.7407 317.808 93.1377 315.867C94.2187 310.582 109.338 303.319 111.304 302.375C111.432 302.314 111.504 302.279 111.513 302.273C111.428 302.139 111.351 301.979 111.273 301.82C111.102 301.466 110.931 301.113 110.677 301.038C109.947 300.822 109.094 300.793 108.34 300.937C107.459 301.105 97.8707 303.242 96.1907 304.307C94.4247 305.427 89.5927 311.315 89.6807 313.215C89.7197 314.026 89.4487 314.851 89.1767 315.679C89.0347 316.113 88.8917 316.549 88.7927 316.985C88.7337 317.239 88.7227 317.517 88.7117 317.793C88.6937 318.229 88.6757 318.659 88.4727 318.979C88.2517 319.328 87.9907 319.889 87.6737 320.568C87.0527 321.902 86.2167 323.694 85.0497 325.243C84.1747 326.405 82.9847 327.381 82.0807 328.123L82.0797 328.124C81.5397 328.567 81.1017 328.927 80.8937 329.192C80.7677 329.352 80.6027 329.512 80.4327 329.675C79.9657 330.127 79.4707 330.606 79.7107 331.179C80.0347 331.953 81.1767 331.573 81.7897 331.369L81.8037 331.365C82.6967 331.071 83.5467 330.5 84.2767 329.883C85.2997 329.018 86.2637 328.063 87.1257 327.04C88.0097 325.989 88.8717 324.88 89.5037 323.676C90.2007 322.339 91.7427 321.786 93.1377 322.745C132.367 349.721 169.383 324.007 171.112 322.472C171.349 322.262 171.391 321.833 171.433 321.403C171.453 321.205 171.472 321.006 171.51 320.829C171.342 320.812 171.161 320.771 170.98 320.73ZM348.145 169.097C347.372 169.872 346.602 170.633 345.837 171.388C343.914 173.286 342.03 175.147 340.249 177.102C339.623 177.79 339.232 178.693 338.842 179.595C338.674 179.985 338.505 180.374 338.318 180.745C337.31 182.745 335.822 183.496 333.205 184.631C331.692 185.287 330.108 185.915 328.709 185.64C327.727 185.448 326.74 185.462 325.768 185.477C324.69 185.493 323.63 185.509 322.612 185.242C321.373 184.917 320.016 183.852 319.391 182.738C318.851 181.773 319.456 180.521 320.534 179.484C321.724 178.339 322.749 177.027 323.775 175.712V175.711C324.368 174.952 324.961 174.192 325.586 173.463C326.255 172.686 326.917 171.902 327.58 171.118L327.585 171.112C329.78 168.516 331.976 165.918 334.378 163.528C336.364 161.553 338.833 160.28 341.744 159.461C344.392 158.716 346.416 158.9 348.784 159.913C349.667 160.291 350.686 160.344 351.707 160.398H351.708C352.206 160.424 352.705 160.451 353.189 160.515C354.733 160.719 355.647 162.173 354.653 162.881C353.775 163.507 352.135 164.123 351.401 163.716C347.369 161.48 343.35 162.009 339.402 163.509C338.35 163.909 337.478 164.825 336.623 165.723C336.349 166.01 336.077 166.296 335.802 166.562C333.689 168.605 331.583 170.659 329.578 172.807C328.803 173.638 328.138 174.574 327.475 175.51C327.229 175.856 326.983 176.202 326.732 176.543C326.565 176.769 326.398 176.996 326.23 177.222C325.385 178.363 324.539 179.505 323.752 180.685C323.167 181.563 323.243 181.73 324.159 182.021C326.443 182.749 328.673 182.606 330.944 181.78C333.717 180.771 335.313 178.656 336.969 176.46L336.973 176.455C337.174 176.188 337.377 175.92 337.582 175.653C338.933 173.894 340.572 172.356 342.211 170.818V170.817C342.926 170.147 343.641 169.476 344.332 168.787C344.453 168.667 344.577 168.549 344.702 168.432C344.924 168.222 345.145 168.013 345.348 167.786C346.353 166.657 347.367 165.571 349.077 165.663C349.155 165.667 349.232 165.569 349.315 165.465C349.379 165.385 349.446 165.301 349.519 165.254C349.627 165.184 349.758 165.148 349.888 165.112C349.945 165.097 350.003 165.081 350.058 165.063C350.049 165.12 350.045 165.179 350.041 165.238V165.24C350.032 165.369 350.023 165.499 349.97 165.607C349.406 166.741 348.824 167.866 348.145 169.097ZM363.352 153.023C366.2 150.33 369.067 147.619 371.008 143.958C370.54 143.801 370.068 143.766 369.6 143.73C369.379 143.714 369.159 143.697 368.941 143.668C368.577 143.62 368.21 143.527 367.845 143.435C367.205 143.275 366.57 143.115 365.962 143.193C364.835 143.338 363.671 143.799 362.693 144.4C361.259 145.281 359.733 145.982 358.204 146.684C355.948 147.72 353.686 148.759 351.702 150.384C351.157 150.83 350.889 151.329 350.634 151.806C350.428 152.188 350.23 152.556 349.903 152.87C350.066 152.902 350.229 152.932 350.392 152.962H350.393C350.755 153.027 351.117 153.093 351.471 153.187C352.315 153.412 353.157 153.646 353.999 153.88C354.715 154.078 355.431 154.277 356.148 154.47C356.341 154.522 356.534 154.578 356.727 154.633C357.346 154.811 357.965 154.989 358.596 155.057C358.766 155.075 358.951 155.1 359.141 155.127C359.969 155.241 360.912 155.371 361.296 154.994C361.971 154.329 362.661 153.677 363.352 153.023ZM363.473 147.032C363.503 147.043 363.532 147.053 363.559 147.061C364.024 146.717 364.7 146.626 364.901 146.894C365.168 147.249 365.301 148.172 365.083 148.35C363.671 149.497 362.2 150.595 360.637 151.52C360.037 151.875 359.14 151.821 358.39 151.77C358.157 151.754 357.708 151.033 357.798 150.819C357.833 150.735 357.87 150.645 357.908 150.552L357.909 150.55L357.911 150.544C358.218 149.793 358.615 148.823 359.076 148.763C360.507 148.578 361.571 147.861 362.666 147.124C362.772 147.052 362.879 146.98 362.987 146.909C363.061 146.859 363.21 146.922 363.36 146.985L363.413 147.008C363.434 147.016 363.453 147.024 363.473 147.032ZM429.667 284.346C425.233 283.82 420.85 283.82 416.48 283.82H416.476C415.13 283.82 413.785 283.819 412.44 283.804C411.612 283.794 410.669 283.626 410.003 283.191C409.605 282.934 409.452 281.969 409.564 281.397C409.638 281.033 410.404 280.551 410.851 280.56C411.712 280.577 413.165 280.508 414.916 280.425C419.078 280.229 424.92 279.952 428.465 280.56C436.603 281.955 440.82 287.15 440.576 287.128C440.2 287.095 439.816 287.078 439.433 287.061C438.458 287.019 437.479 286.976 436.603 286.658C435.929 286.413 435.273 286.119 434.614 285.823C433.067 285.129 431.504 284.428 429.667 284.346ZM383.279 137.716C384.856 137.089 384.918 136.158 383.423 135.267C382.996 135.385 382.618 135.518 382.262 135.644C381.85 135.79 381.468 135.925 381.075 136.012C380.224 136.201 379.368 136.371 378.512 136.541H378.511C377.212 136.799 375.913 137.057 374.631 137.383C374.174 137.499 373.511 138.256 373.567 138.624C373.665 139.266 374.096 139.873 374.502 140.444C374.544 140.504 374.587 140.564 374.629 140.623C374.704 140.729 375.25 140.569 375.542 140.445C375.911 140.289 376.274 140.115 376.636 139.94C377.221 139.659 377.807 139.377 378.418 139.172C379.098 138.944 379.793 138.76 380.488 138.576C381.433 138.325 382.377 138.075 383.279 137.716ZM387.975 132.784C387.998 131.464 388.006 131.463 389.91 131.139L390.107 131.105C390.51 131.036 390.895 130.869 391.281 130.701C391.599 130.563 391.918 130.424 392.248 130.34C392.416 130.297 392.941 130.806 392.901 130.944C392.876 131.029 392.85 131.121 392.823 131.217C392.649 131.841 392.428 132.633 392.092 132.703C391.719 132.781 391.347 132.97 390.972 133.16C390.009 133.648 389.03 134.143 387.975 132.784ZM399.002 127.76C399.157 127.742 399.311 127.725 399.458 127.715C400.606 127.507 400.638 126.791 400.668 126.097C400.681 125.791 400.694 125.489 400.803 125.237C400.635 125.268 400.463 125.291 400.292 125.315H400.291C399.904 125.368 399.517 125.422 399.161 125.557C399.086 125.585 399.006 125.615 398.923 125.645C398.358 125.851 397.666 126.104 397.557 126.481C397.126 127.971 398.075 127.864 399.002 127.76ZM412.117 122.825L412.048 122.856C411.705 123.013 411.41 123.147 411.153 123.094C410.79 123.017 410.445 122.85 410.099 122.684C409.953 122.613 409.807 122.543 409.659 122.479C409.744 122.454 409.829 122.429 409.913 122.403C410.028 122.369 410.141 122.333 410.255 122.298L410.259 122.296H410.26H410.261C410.72 122.153 411.18 122.01 411.65 121.915C412.341 121.776 412.502 121.973 412.287 122.749C412.229 122.774 412.172 122.8 412.117 122.825ZM480.796 67.0955V67.0965C480.888 67.4665 480.981 67.8445 481.085 68.2285C481.196 68.6045 481.32 68.9135 481.434 69.1975C481.529 69.4325 481.617 69.6505 481.685 69.8755C482.504 72.5865 482.839 75.3525 482.777 78.1935C482.763 78.8125 482.912 79.4335 483.061 80.0555C483.175 80.5295 483.289 81.0045 483.332 81.4825C483.385 82.0735 483.372 82.6845 483.36 83.2935C483.337 84.3765 483.314 85.4525 483.667 86.3945C484.22 87.8795 484.089 89.3095 483.962 90.7015C483.938 90.9665 483.914 91.2295 483.894 91.4915C483.725 93.7475 482.856 95.7005 480.472 96.9625C479.789 97.3235 479.107 97.4225 478.434 97.5205C477.835 97.6075 477.244 97.6925 476.665 97.9615C475.876 98.3295 475.02 98.4555 474.15 98.5835C473.046 98.7465 471.919 98.9124 470.88 99.5804C470.269 99.9734 469.455 100.043 468.638 100.114C467.85 100.182 467.059 100.25 466.444 100.608C465.049 101.416 464.072 101.339 462.939 100.502C462.42 100.119 461.91 99.7235 461.399 99.3265C460.929 98.9615 460.458 98.5955 459.98 98.2395C459.421 97.8235 458.846 97.4245 458.25 97.0645C457.617 96.6815 456.849 96.4745 456.126 96.2795C455.445 96.0965 454.804 95.9245 454.356 95.6255C453.118 94.8015 452.121 95.1135 451.148 95.4185C450.69 95.5625 450.237 95.7045 449.767 95.7255C449.388 95.7425 449.033 96.3165 448.678 96.8895C448.518 97.1505 448.357 97.4105 448.194 97.6175C448.445 97.7455 448.708 97.9194 448.971 98.0934C449.552 98.4784 450.133 98.8634 450.586 98.7484C450.722 98.7134 450.855 98.6775 450.986 98.6425C452.007 98.3665 452.894 98.1275 453.946 98.8205C454.421 99.1325 454.964 99.3385 455.509 99.5455C455.995 99.7295 456.482 99.9144 456.922 100.175C457.073 100.264 457.225 100.354 457.377 100.443C458.583 101.152 459.818 101.878 460.762 102.859C462.231 104.382 463.816 104.941 465.926 104.309C467.401 103.868 468.891 103.476 470.381 103.084C471.53 102.782 472.68 102.479 473.822 102.154C474.435 101.98 475.052 101.82 475.668 101.66C478.295 100.98 480.908 100.303 483.174 98.4845C486.642 95.6945 486.754 91.9135 486.332 88.2115C486.256 87.5525 486.168 86.8945 486.08 86.2345L486.079 86.2305V86.2275C485.884 84.7675 485.688 83.3025 485.62 81.8195C485.567 80.6385 485.598 79.4515 485.629 78.2645V78.2635V78.2625C485.707 75.3225 485.785 72.3805 484.573 69.5215C484.219 68.6845 484.02 67.7825 483.82 66.8805C483.628 66.0105 483.435 65.1405 483.104 64.3265C482.504 62.8445 481.565 61.4715 480.625 60.1605L480.511 60.0015C479.886 59.1275 479.093 58.0185 478.271 57.9185C477.558 57.8315 476.783 58.2605 476.007 58.6895C475.67 58.8765 475.333 59.0625 475.001 59.2075C475.174 59.3215 475.348 59.4345 475.521 59.5485L475.522 59.5495H475.523C475.935 59.8195 476.348 60.0895 476.752 60.3705C476.971 60.5255 477.182 60.7115 477.356 60.9175C477.594 61.1985 477.849 61.4715 478.103 61.7455C478.723 62.4125 479.344 63.0795 479.74 63.8595C480.237 64.8345 480.506 65.9255 480.796 67.0955ZM446.651 106.851L446.634 106.817C446.494 106.757 446.353 106.745 446.256 106.736C446.187 106.73 446.14 106.726 446.133 106.708C445.984 106.293 445.857 105.87 445.729 105.448V105.447C445.697 105.341 445.665 105.236 445.633 105.13C445.575 105.32 445.498 105.512 445.422 105.704C445.253 106.13 445.084 106.555 445.115 106.966C445.326 109.783 445.583 112.508 446.965 115.185C447.587 116.389 447.826 117.781 448.067 119.18C448.27 120.361 448.474 121.547 448.91 122.63C448.966 122.771 449.023 122.911 449.079 123.051V123.052C449.872 125.025 450.659 126.983 451.045 129.068C451.19 129.85 451.021 130.767 450.747 131.533C450.428 132.427 449.783 133.144 449.137 133.863C448.161 134.949 447.182 136.04 447.309 137.752C447.32 137.906 447.175 138.072 447.031 138.238C446.993 138.281 446.955 138.325 446.919 138.368C446.891 138.403 446.864 138.438 446.841 138.473C446.941 138.436 447.045 138.403 447.149 138.371C447.39 138.296 447.631 138.221 447.822 138.081C447.938 137.997 448.008 137.852 448.078 137.708C448.145 137.57 448.211 137.433 448.318 137.347C448.625 137.104 448.934 136.868 449.241 136.634L449.242 136.633C451.074 135.237 452.834 133.895 453.657 131.271C454.377 128.976 454.128 127.189 453.33 125.291C452.877 124.219 452.326 123.174 451.776 122.13C450.792 120.263 449.812 118.403 449.411 116.419C448.881 113.789 448.264 111.218 447.462 108.674C447.274 108.083 446.991 107.523 446.651 106.851ZM503.921 193.079H503.92H503.919C503.499 192.981 503.087 192.884 502.674 192.792C502.411 192.734 502.149 192.674 501.887 192.614H501.886C500.813 192.369 499.739 192.124 498.651 191.962C498.063 191.874 497.464 191.857 496.864 191.839C496.422 191.826 495.979 191.813 495.539 191.771C494.877 191.709 494.178 191.641 493.582 191.383C493.05 191.154 492.56 190.831 492.071 190.507C491.997 190.458 491.923 190.409 491.849 190.361C491.791 190.323 491.733 190.285 491.674 190.247C491.595 190.196 491.515 190.145 491.434 190.096C491.561 190.09 491.688 190.086 491.814 190.082C491.965 190.077 492.116 190.073 492.267 190.07C492.915 190.053 493.563 190.036 494.203 189.961C494.518 189.924 494.83 189.831 495.142 189.739C495.555 189.617 495.965 189.495 496.375 189.505L496.813 189.516C499.598 189.584 502.388 189.652 505.157 189.93C506.953 190.11 508.733 190.493 510.508 190.875C510.929 190.966 511.349 191.056 511.769 191.144C513.328 191.469 514.874 191.858 516.417 192.248L516.938 192.379C518.312 192.724 519.677 193.093 521.044 193.463L521.049 193.465L521.623 193.62C521.82 193.673 522.01 193.749 522.2 193.824C522.289 193.86 522.377 193.895 522.467 193.928C522.397 194.025 522.326 194.148 522.256 194.272L522.255 194.273C522.101 194.544 521.946 194.817 521.792 194.816C521.056 194.811 520.32 194.944 519.582 195.078C518.044 195.356 516.5 195.636 514.939 194.665C514.661 194.492 514.34 194.527 513.973 194.567C513.506 194.619 512.966 194.678 512.345 194.327C511.242 193.705 509.798 193.693 508.283 193.68C507.637 193.675 506.978 193.669 506.328 193.616C505.459 193.439 504.676 193.256 503.921 193.079ZM179.777 263.745C203.152 260.808 222.642 258.359 222.593 257.724C222.59 257.685 222.622 257.58 222.669 257.428C222.971 256.439 223.885 253.446 219.853 253.395C202.551 253.176 152.318 259.069 105.112 269.188C38.1335 282.921 -0.454067 302.061 0.00403311 303.363C0.212233 303.956 16.8666 299.071 37.3065 293.076H37.3069C61.8346 285.882 91.8127 277.089 105.366 274.243L106.875 273.93C119.8 271.281 152.444 267.179 179.777 263.745ZM122.748 305.178C126.997 305.178 133.13 305.639 140.977 308.3L142.947 308.975C144.447 309.492 147.235 310.257 151.275 311.255C152.213 311.487 152.786 312.435 152.554 313.374C152.322 314.312 140.355 311.785 140.355 311.785C132.265 309.028 129.036 308.274 125.255 308.44C121.574 308.602 113.797 311.459 107.89 313.628V313.629C103.719 315.16 100.482 316.35 100.278 316.006C99.7847 315.174 100.368 314.118 100.892 313.608C106.193 308.44 109.13 306.981 122.748 305.178ZM411.491 275.094C411.777 274.844 411.995 274.509 412.102 274.114C412.392 273.048 404.139 271.446 398.582 273.523C397.454 273.944 396.455 274.599 395.361 275.555C395.177 275.715 394.771 276.275 394.268 276.967C393.443 278.102 392.358 279.596 391.568 280.275C390.297 281.368 388.14 282.533 386.661 283.278C386.061 283.579 383.785 284.083 381.219 284.651C377.107 285.561 372.253 286.636 372.363 287.307C372.542 288.397 374.549 288.232 375.639 288.053C377.533 287.743 379.168 287.506 380.59 287.299L380.594 287.298H380.595C384.237 286.769 386.487 286.442 388.132 285.614C389.92 284.713 391.465 283.65 392.97 282.356C393.209 282.15 393.547 281.841 393.926 281.485L395.134 280.338C394.945 281.873 395.46 283.351 396.76 284.4L397.254 284.795C412.749 297.046 429.509 298.901 447.196 290.342L447.472 290.207L447.602 290.91C448.061 293.244 448.718 295.188 449.587 296.749C450.873 299.058 453.068 301.326 456.158 303.594L458.525 300.369L458.131 300.076C455.682 298.228 454.003 296.458 453.081 294.802C452.104 293.048 451.416 290.417 451.061 286.928L450.757 283.938L448.116 285.373L447.591 285.656C430.284 294.862 414.309 293.412 399.271 281.286C399.183 281.215 399.093 280.009 399.271 279.488C399.586 278.571 400.303 276.739 402.146 276.105C403.348 275.691 411.491 275.094 411.491 275.094ZM536.624 169.848L535.792 168.343C535.166 167.222 534.355 165.784 533.954 165.123L533.823 164.914C532.19 162.385 531.892 159.18 532.311 153.99L532.485 152.072L532.645 150.402C533.116 145.26 532.997 143.301 532.056 142.288L531.913 142.142C530.976 141.238 529.881 141.249 525.928 142.127L524.963 142.345C520.396 143.392 517.376 143.647 513.885 142.816L510.866 142.066C510.46 141.967 510.056 141.868 509.684 141.777C509.349 141.696 509.04 141.62 508.78 141.557C508.364 141.455 508.073 141.385 508.001 141.367L507.184 141.158C499.985 139.272 496.955 137.246 495.822 132.339C495.551 131.168 495.662 129.957 496.087 128.446L496.184 128.118C496.459 127.207 497.8 123.592 497.8 123.594C498.102 122.737 498.356 121.955 498.582 121.169L498.871 120.148C499.115 119.276 499.367 118.349 499.629 117.357L502.362 106.66C502.853 104.774 503.271 103.209 503.441 102.682L504.218 100.401L504.544 99.4775C504.757 98.8865 504.962 98.3425 505.174 97.8125C506.882 93.5335 508.695 90.8915 511.25 90.1625C513.605 89.4895 515.339 89.5815 517.236 90.3385C517.632 90.4965 518.659 90.9855 519.437 91.3575C519.856 91.5575 520.203 91.7225 520.341 91.7835C522.242 92.6245 524.19 93.1585 526.83 93.4235L527.333 93.4705C528.606 93.5785 529.654 93.4395 532.759 92.7605L534.988 92.2665C537.356 91.7525 538.908 91.4975 540.608 91.3925C542.15 91.2965 543.584 91.3635 544.949 91.6215C547.198 92.0465 550.646 93.4464 555.381 95.8304C556.121 96.2034 556.419 97.1055 556.046 97.8455C555.674 98.5855 554.772 98.8825 554.032 98.5105L553.149 98.0695C549.106 96.0735 546.163 94.9045 544.392 94.5695C543.289 94.3605 542.1 94.3044 540.794 94.3864C539.186 94.4864 537.671 94.7455 535.194 95.2925L533.33 95.7065C530.021 96.4295 528.828 96.5914 527.24 96.4724L527.08 96.4594C523.841 96.1844 521.445 95.5525 519.128 94.5275L516.538 93.3065C516.359 93.2245 516.215 93.1605 516.124 93.1245C514.842 92.6135 513.788 92.5575 512.074 93.0465C510.749 93.4255 509.33 95.4924 507.96 98.9254C507.712 99.5474 507.47 100.196 507.211 100.932L506.303 103.584C505.898 104.761 502.951 116.487 502.853 116.891L502.37 118.723C502.056 119.898 501.757 120.983 501.465 121.997C501.271 122.676 501.058 123.348 500.816 124.055L500.629 124.593C500.386 125.28 500.17 125.89 499.978 126.432C498.626 130.249 498.462 130.712 498.567 131.104C498.581 131.158 498.601 131.211 498.623 131.271C498.656 131.359 498.695 131.463 498.732 131.611L498.745 131.664C499.569 135.231 501.852 136.702 508.35 138.36L514.246 139.815C517.212 140.581 519.79 140.422 523.821 139.527L526.376 138.948C528.078 138.572 528.51 138.523 529.49 138.484C531.453 138.405 533.027 138.925 534.254 140.246C536.049 142.178 536.216 144.379 535.638 150.626L535.34 153.772L535.269 154.653C534.963 158.802 535.205 161.374 536.234 163.11L536.556 163.631C536.864 164.142 537.329 164.955 537.786 165.766L539.247 168.39L539.441 168.728C541.391 172.087 543.001 173.969 544.711 174.62L544.895 174.685C547.082 175.402 549.787 173.979 553.275 169.447L553.728 168.858C554.257 168.204 554.795 167.793 557.277 166.256L561.109 163.902L561.57 163.611C563.964 162.093 565.373 160.964 565.685 160.326C569.35 152.845 571.686 141.168 570.981 127.893C570.893 126.229 570.007 123.68 568.308 120.32L568.105 119.923L568.012 119.87C564.001 117.59 561.082 115.424 559.245 113.335L559.03 113.085C557.148 110.846 555.255 107.191 553.305 102.089C553.01 101.315 553.397 100.448 554.171 100.152C554.945 99.8575 555.812 100.244 556.108 101.018C557.949 105.834 559.704 109.224 561.327 111.155C562.821 112.934 565.404 114.899 569.063 117.015L569.962 117.525L570.352 117.743L570.559 118.139C572.708 122.242 573.853 125.409 573.977 127.734C574.708 141.515 572.271 153.702 568.379 161.646C567.719 162.993 566.098 164.292 563.177 166.144L562.449 166.601L559.348 168.505C556.772 170.097 556.255 170.481 555.904 170.946C551.617 176.63 547.687 178.757 543.96 177.536C541.167 176.62 539.099 174.189 536.624 169.848ZM581.985 79.8745C581.232 79.5275 580.341 79.8555 579.994 80.6075C579.244 82.2325 578.073 83.2525 576.396 83.7475C575.194 84.1025 573.848 84.3075 572.2 84.4155C571.625 84.4525 571.131 84.4755 570.394 84.4965L567.861 84.5605C563.802 84.6935 562.033 85.0365 560.261 86.3135C557.91 88.0065 556.923 93.4195 557.748 96.5365L557.792 96.7075C557.822 96.8245 557.852 96.9505 557.883 97.0875L557.984 97.5395C557.99 97.5695 558.013 97.6775 558.045 97.8275C558.115 98.1595 558.228 98.6964 558.303 99.0414L558.444 99.6715C558.57 100.215 558.696 100.701 558.835 101.174C559.391 103.065 560.127 104.597 561.21 105.859C561.359 106.033 561.777 106.79 562.237 107.655L563.812 110.665C565.086 112.909 566.41 114.54 568.084 115.631C568.79 116.091 569.436 116.282 570.647 116.5L571.185 116.598C572.168 116.782 572.633 116.898 573.218 117.126L573.672 117.311C574.129 117.486 574.667 117.614 575.446 117.75L576.002 117.842C576.005 117.842 577.324 118.042 578.07 118.161L578.877 118.299C579.648 118.44 580.331 118.589 580.981 118.765C581.616 118.937 582.204 119.13 582.75 119.35L583.097 119.486C583.65 119.694 584.112 119.824 584.926 120.016L585.681 120.19C586.026 120.271 586.272 120.335 586.492 120.404L586.749 120.49C587.716 120.837 588.534 121.443 589.561 122.714C590.92 124.397 590.92 125.186 589.875 125.909C589.193 126.38 589.023 127.315 589.494 127.996C589.965 128.678 590.9 128.848 591.581 128.377C594.247 126.533 594.247 123.742 591.895 120.829C590.534 119.145 589.268 118.206 587.762 117.666C587.461 117.558 587.184 117.474 586.84 117.385L586.389 117.275L585.453 117.057C584.869 116.917 584.527 116.818 584.14 116.673L583.47 116.412C582.928 116.21 582.36 116.03 581.765 115.869C580.88 115.63 579.963 115.438 578.906 115.258L576.03 114.806C575.347 114.688 574.929 114.588 574.69 114.487C573.759 114.094 573.19 113.929 572.022 113.703L570.98 113.511C570.286 113.379 569.968 113.278 569.722 113.118C568.527 112.339 562.122 101.719 561.713 100.328C561.561 99.8105 561.424 99.2615 561.277 98.6025L560.859 96.6445C560.822 96.4775 560.786 96.3245 560.752 96.1805L560.648 95.7695C560.107 93.7245 560.863 89.5765 562.014 88.7475C563.175 87.9105 564.683 87.6525 568.386 87.5465L570.5 87.4945C571.263 87.4725 571.782 87.4485 572.396 87.4085L572.942 87.3685C574.557 87.2385 575.946 87.0085 577.246 86.6255C579.756 85.8845 581.608 84.2705 582.718 81.8645C583.065 81.1125 582.737 80.2215 581.985 79.8745Z" fill="#B5B5BF"/>
<path fill-rule="evenodd" clip-rule="evenodd" d="M231.55 235.826C232.101 234.745 232.572 233.803 233.228 233.015C233.892 232.217 234.731 231.561 235.522 230.877C235.6 230.809 236.036 230.979 236.033 231.024C236.021 231.262 235.994 231.574 235.84 231.721C234.665 232.838 234.567 234.322 234.207 235.784C233.813 237.386 234.213 238.641 234.943 239.977C235.429 240.867 235.784 241.844 236.089 242.817C236.73 244.867 237.363 246.924 237.876 249.008C238.222 250.414 238.54 251.871 238.554 253.307C238.621 260.548 238.582 267.788 238.586 275.03C238.588 278.729 238.535 282.43 238.643 286.127C238.679 287.333 239.333 288.524 239.353 289.727C239.37 290.7 238.882 291.687 238.561 292.649C238.515 292.787 238.019 292.947 237.948 292.877C237.439 292.376 236.587 291.824 236.579 291.277C236.513 287.023 236.676 282.765 236.634 278.511C236.615 276.591 236.173 274.677 236.125 272.757C236.013 268.281 236.516 263.726 235.826 259.351C235.288 255.932 235.419 252.678 235.472 249.317C235.484 248.562 233.379 247.62 232.122 247.038C230.49 246.281 229.453 247.293 228.68 248.65C228.61 248.773 228.317 248.834 228.317 248.924C228.279 256.83 228.228 264.735 228.259 272.641C228.268 274.929 228.531 277.215 228.645 279.504C228.687 280.361 228.596 280.807 229.912 280.606C232.138 280.267 235.06 283.556 234.416 285.434C233.92 286.879 233.021 288.187 232.523 289.632C231.399 292.894 228.941 296.049 230.025 299.593C230.848 302.284 232.63 304.798 234.449 307.012C235.174 307.893 237.159 307.708 238.544 308.097C239.012 308.229 239.558 308.556 239.77 308.954C239.908 309.214 239.609 309.892 239.307 310.124C239.126 310.264 238.564 309.901 238.17 309.773C237.524 309.562 236.888 309.252 236.226 309.173C233.107 308.813 232.934 308.622 231.517 305.15C231.01 303.905 230.058 302.846 229.518 301.61C229.009 300.444 228.721 299.17 228.438 297.921C228.166 296.716 227.803 295.467 227.883 294.264C227.976 292.847 228.389 291.418 228.874 290.07C229.306 288.867 230.05 287.777 230.589 286.607C230.652 286.471 230.331 286.081 230.108 285.922C229.986 285.836 229.654 285.928 229.487 286.042C227.873 287.143 227.105 288.92 226.083 290.476C225.747 290.988 225.851 291.79 225.757 292.459C225.617 293.46 225.348 294.463 225.371 295.46C225.414 297.305 225.207 299.314 225.858 300.954C227.213 304.365 228.524 307.965 231.287 310.501C232.303 311.437 233.991 311.882 235.686 312.11C237.918 312.408 240.034 311.762 242.222 312.011C243.223 312.127 244.31 311.253 245.357 311.258C246.634 311.262 247.633 310.563 248.762 310.381C250.052 310.17 251.118 309.615 252.242 309.081C254.078 308.212 256.069 307.591 257.744 306.486C259.234 305.501 260.371 303.991 261.687 302.738C263.719 300.802 265.433 298.664 266.797 296.173C267.398 295.076 268.351 294.243 267.958 292.854C267.897 292.638 267.743 292.291 267.613 292.283C267.323 292.263 266.927 292.325 266.738 292.516C262.433 296.86 258.235 301.316 253.807 305.531C252.613 306.665 250.746 307.108 249.166 307.824C248.286 308.221 247.344 308.478 246.46 308.867C244.534 309.711 243.007 308.536 241.365 307.923C241.442 307.754 241.487 307.467 241.6 307.434C244.274 306.722 246.984 306.131 249.622 305.308C250.842 304.927 251.982 304.19 253.052 303.459C254.088 302.75 254.946 301.787 255.954 301.032C259.726 298.211 262.813 294.89 264.29 290.278C264.69 289.03 267.376 288.239 268.921 288.7C269.851 288.978 270.915 288.953 271.733 289.403C272.257 289.691 272.82 290.668 272.717 291.213C272.167 294.121 270.343 296.277 268.308 298.347C266.957 299.722 266.121 301.624 264.716 302.924C262.335 305.126 259.849 307.301 257.103 308.998C254.329 310.715 251.248 311.995 248.184 313.158C245.989 313.99 243.626 314.605 241.295 314.8C237.316 315.135 233.4 314.817 229.871 312.455C227.661 310.973 226.17 308.919 225.019 306.701C224.374 305.46 224.994 303.59 224.429 302.265C223.308 299.636 223.101 296.94 223.337 294.23C223.498 292.382 224.643 290.586 224.65 288.765C224.658 286.719 226.162 285.715 226.818 284.171C226.951 283.859 226.597 283.374 226.596 282.968C226.577 278.348 226.586 273.727 226.583 269.106C226.581 266.78 226.726 264.438 226.5 262.133C226.369 260.794 225.539 259.537 225.209 258.197C225.041 257.515 225.326 256.733 225.335 255.995C225.357 253.902 225.153 251.788 225.39 249.722C225.689 247.124 226.413 244.578 226.806 241.985C227.025 240.537 226.946 239.043 226.997 237.57C227.097 234.672 227.69 231.811 229.71 229.727C231.285 228.101 233.169 226.563 235.784 226.557C236.426 226.555 237.303 225.394 237.659 225.576C238.47 225.989 239.258 226.816 239.577 227.656C239.719 228.029 238.81 228.999 238.189 229.42C237.085 230.17 235.796 230.142 234.448 230.085C232.233 229.988 230.214 232.886 229.359 235.43C228.659 237.517 229.73 239.377 229.253 241.365C229.112 241.956 230.278 242.877 230.89 243.61C230.953 243.687 231.52 243.51 231.521 243.447C231.535 242.193 231.621 240.92 231.441 239.688C231.27 238.523 230.485 237.352 231.942 236.469C231.811 236.324 231.681 236.178 231.55 235.826Z" fill="#FFB61D"/>
<path fill-rule="evenodd" clip-rule="evenodd" d="M313.488 330.592C313.099 332.706 312.685 334.61 312.344 336.522C312.287 336.84 312.635 337.209 312.647 337.56C312.751 340.569 312.202 343.544 312.105 346.553C312.059 347.997 312.187 349.578 311.79 350.997C311.299 352.756 312.008 355.065 309.757 356.099C308.889 356.497 307.613 357.25 307.106 356.927C306.125 356.302 304.493 355.959 304.751 354.03C304.977 352.334 304.503 350.521 304.864 348.878C305.481 346.068 304.826 343.234 305.31 340.503C305.604 338.847 305.286 337.196 305.67 335.632C306.29 333.108 306.196 330.538 306.53 328.009C306.848 325.605 307.039 323.192 307.353 320.801C307.678 318.326 307.867 315.843 308.202 313.389C308.502 311.192 308.452 308.866 309.084 306.834C309.646 305.032 308.33 302.956 310.087 301.401C310.328 301.187 309.698 300.173 309.794 299.583C310.593 294.676 309.968 289.739 310.219 284.825C310.236 284.478 310.784 283.98 311.178 283.863C312.415 283.497 313.689 283.219 314.967 283.046C315.264 283.005 315.931 283.518 315.927 283.767C315.851 287.985 315.607 292.202 315.587 296.419C315.573 299.464 315.908 302.509 315.939 305.555C315.954 307.037 315.594 308.522 315.469 310.012C315.339 311.56 315.823 313.033 314.911 314.684C314.224 315.926 314.827 317.846 314.712 319.451C314.497 322.456 314.315 325.477 313.791 328.431C313.681 329.056 313.447 329.702 313.488 330.592ZM307.695 352.317C308.374 353.343 308.338 353.313 308.965 352.531C309.703 351.609 309.143 350.534 309.384 349.598C310.032 347.082 309.871 344.504 310.177 341.967C310.423 339.931 310.773 337.9 310.883 335.859C311.025 333.223 310.753 330.55 311.073 327.943C311.348 325.704 311.261 323.457 312.054 321.181C312.858 318.872 312.513 316.162 312.656 313.625C312.69 313.004 312.427 312.239 312.703 311.788C313.644 310.252 312.802 308.651 313.034 307.103C313.064 306.896 312.539 306.611 312.27 306.358C312.116 306.652 311.867 306.929 311.822 307.24C311.526 309.263 311.191 311.283 311.026 313.319C310.806 316.021 310.729 318.74 310.593 321.45C310.582 321.657 310.678 321.93 310.578 322.063C309.457 323.565 310.326 325.357 309.818 327.041C309.175 329.168 309.463 331.576 309.351 333.865C309.347 333.935 309.362 334.006 309.348 334.072C309.01 335.673 308.583 337.266 308.354 338.885C308.169 340.184 308.93 341.372 307.877 342.882C307.078 344.032 307.778 346.176 307.667 347.864C307.6 348.887 307.193 349.884 307.077 350.91C307.043 351.212 307.476 351.572 307.695 352.317ZM313.074 295.624C313.119 294.476 313.166 293.328 313.204 292.181C313.209 292.018 313.17 291.714 313.149 291.714C312.887 291.711 312.409 291.713 312.395 291.789C312.186 292.936 311.993 294.092 311.921 295.253C311.91 295.425 312.536 295.637 313.074 295.624Z" fill="#00160A"/>
<path fill-rule="evenodd" clip-rule="evenodd" d="M232.276 301.314C232.184 300.521 232.196 299.831 232.207 299.141C232.772 299.304 233.403 299.355 233.891 299.647C236.455 301.183 238.972 302.8 241.537 304.337C241.984 304.605 242.575 304.668 243.111 304.744C243.523 304.803 243.953 304.734 244.375 304.722C243.971 305.069 243.488 305.775 243.175 305.705C241.221 305.273 238.894 306.863 237.267 304.664C237.235 304.622 237.055 304.634 236.987 304.682C236.256 305.193 235.437 306.197 234.619 305.226C233.685 304.114 233.11 302.7 232.276 301.314Z" fill="#00160A"/>
<path fill-rule="evenodd" clip-rule="evenodd" d="M557.087 209.152L557.994 211.134L560.066 211.718C560.178 211.75 560.243 211.865 560.21 211.974C560.2 212.009 560.182 212.039 560.157 212.064L558.583 213.602L558.671 215.815C558.676 215.929 558.585 216.025 558.469 216.03C558.429 216.031 558.39 216.023 558.356 216.003L556.575 215.007C556.518 214.976 556.451 214.971 556.392 214.995L554.487 215.737C554.379 215.78 554.255 215.728 554.212 215.621C554.198 215.585 554.194 215.546 554.201 215.508L554.602 213.329L553.262 211.59C553.191 211.499 553.209 211.369 553.302 211.301C553.332 211.279 553.365 211.265 553.4 211.26L555.535 210.966L556.715 209.128C556.778 209.03 556.908 209.002 557.006 209.062C557.041 209.084 557.069 209.116 557.087 209.152Z" fill="#B5B5BF"/>
<path fill-rule="evenodd" clip-rule="evenodd" d="M572.868 298.122L573.775 300.104L575.847 300.688C575.959 300.719 576.024 300.834 575.992 300.943C575.982 300.978 575.963 301.009 575.938 301.034L574.364 302.572L574.452 304.785C574.457 304.899 574.366 304.995 574.25 305C574.211 305.001 574.171 304.992 574.137 304.972L572.356 303.976C572.299 303.945 572.233 303.94 572.173 303.964L570.268 304.707C570.16 304.749 570.037 304.698 569.993 304.591C569.979 304.555 569.975 304.515 569.982 304.478L570.383 302.298L569.043 300.56C568.972 300.469 568.991 300.339 569.083 300.27C569.113 300.249 569.146 300.235 569.181 300.23L571.316 299.935L572.496 298.097C572.559 298 572.689 297.971 572.787 298.032C572.822 298.053 572.851 298.085 572.868 298.122Z" fill="#B5B5BF"/>
<path fill-rule="evenodd" clip-rule="evenodd" d="M414.706 213.242C414.203 212.866 413.515 213.005 413.169 213.553C412.823 214.101 412.951 214.85 413.455 215.226C414.008 215.64 414.496 216.022 414.928 216.377C414.463 216.779 413.999 217.24 413.517 217.765L412.539 218.846C412.11 219.318 412.112 220.08 412.546 220.548C412.98 221.017 413.68 221.013 414.11 220.541L415.283 219.25C415.76 218.744 416.208 218.321 416.658 217.968C417.657 219.047 417.962 219.839 417.978 220.625V220.827L417.984 220.95C418.041 221.557 418.512 222.031 419.084 222.031C419.694 222.031 420.19 221.491 420.19 220.827V220.59C420.169 219.364 419.771 218.198 418.701 216.864C419.408 216.636 420.205 216.508 421.171 216.452C421.78 216.417 422.249 215.851 422.217 215.188C422.185 214.523 421.665 214.013 421.055 214.048C419.379 214.143 418.075 214.447 416.914 215.025C416.43 214.594 415.88 214.141 415.26 213.662L414.706 213.242Z" fill="#B5B5BF"/>
<path fill-rule="evenodd" clip-rule="evenodd" d="M479.951 255.055C480.505 254.76 480.672 254.078 480.324 253.531C479.976 252.985 479.243 252.782 478.689 253.077C478.079 253.401 477.525 253.68 477.02 253.919C476.855 253.328 476.635 252.711 476.366 252.051L475.805 250.706C475.561 250.116 474.87 249.794 474.261 249.987C473.653 250.18 473.358 250.815 473.601 251.405L474.27 253.016C474.524 253.663 474.716 254.249 474.843 254.806C473.441 255.251 472.595 255.189 471.877 254.868L471.694 254.782L471.58 254.735C471.007 254.528 470.378 254.752 470.134 255.269C469.874 255.822 470.151 256.499 470.752 256.783L470.966 256.884C472.084 257.388 473.308 257.525 474.971 257.125C474.876 257.862 474.653 258.637 474.291 259.535C474.063 260.101 474.375 260.766 474.989 261.02C475.604 261.274 476.287 261.021 476.515 260.454C477.144 258.897 477.424 257.588 477.396 256.292C477.993 256.038 478.636 255.734 479.334 255.377L479.951 255.055Z" fill="#B5B5BF"/>
<path fill-rule="evenodd" clip-rule="evenodd" d="M440.085 167.135L440.994 168.834L443.066 169.335C443.178 169.362 443.243 169.459 443.21 169.554C443.2 169.583 443.182 169.61 443.157 169.631L441.583 170.949L441.671 172.847C441.676 172.944 441.585 173.027 441.469 173.03C441.429 173.032 441.39 173.024 441.356 173.007L439.574 172.153C439.518 172.127 439.451 172.123 439.392 172.143L437.487 172.78C437.378 172.816 437.255 172.771 437.212 172.68C437.198 172.65 437.194 172.616 437.201 172.583L437.602 170.715L436.262 169.225C436.191 169.147 436.209 169.036 436.302 168.977C436.331 168.958 436.365 168.946 436.4 168.942L438.535 168.69L439.715 167.113C439.778 167.03 439.908 167.006 440.006 167.058C440.041 167.076 440.069 167.104 440.085 167.135Z" fill="#B5B5BF"/>
<path fill-rule="evenodd" clip-rule="evenodd" d="M374.319 152.101L375.462 153.837L377.052 153.673C377.138 153.664 377.212 153.76 377.218 153.887C377.22 153.926 377.215 153.966 377.204 154.001L376.507 156.201L377.138 158.487C377.17 158.605 377.132 158.74 377.052 158.788C377.026 158.804 376.996 158.81 376.967 158.802L375.472 158.425C375.426 158.414 375.378 158.434 375.342 158.48L374.21 159.972C374.145 160.057 374.047 160.048 373.989 159.953C373.97 159.921 373.957 159.881 373.952 159.838L373.67 157.405L372.29 156.086C372.217 156.017 372.197 155.874 372.244 155.767C372.259 155.734 372.278 155.707 372.302 155.688L373.709 154.581L374.055 152.212C374.074 152.089 374.157 152.009 374.241 152.036C374.271 152.046 374.299 152.068 374.319 152.101Z" fill="#B5B5BF"/>
<path fill-rule="evenodd" clip-rule="evenodd" d="M401.638 74.1524L402.677 76.1347L405.044 76.7185C405.172 76.7503 405.246 76.8643 405.21 76.9743C405.198 77.008 405.176 77.0397 405.147 77.0645L403.349 78.6018L403.45 80.8152C403.455 80.9302 403.351 81.0263 403.218 81.0302C403.173 81.0322 403.129 81.0233 403.09 81.0035L401.053 80.0074C400.99 79.9766 400.913 79.9716 400.845 79.9954L398.667 80.7379C398.544 80.7805 398.403 80.7279 398.355 80.6219C398.337 80.5862 398.333 80.5465 398.341 80.5089L398.8 78.3292L397.268 76.5907C397.187 76.4995 397.209 76.3697 397.315 76.3003C397.347 76.2795 397.385 76.2656 397.427 76.2606L399.865 75.9663L401.215 74.1266C401.285 74.0304 401.434 74.0017 401.547 74.0622C401.588 74.084 401.619 74.1157 401.638 74.1524Z" fill="#B5B5BF"/>
<path fill-rule="evenodd" clip-rule="evenodd" d="M400.876 77.0656L401.266 77.6317L402.154 77.7984C402.202 77.8077 402.229 77.8403 402.215 77.8717C402.211 77.8817 402.203 77.8903 402.193 77.8977L401.518 78.3371L401.556 78.9691C401.558 79.0018 401.518 79.0291 401.468 79.0304C401.452 79.0311 401.435 79.0284 401.42 79.0231L400.657 78.7384C400.633 78.7297 400.604 78.7284 400.579 78.7344L399.762 78.9471C399.716 78.9591 399.663 78.9444 399.645 78.9138C399.639 78.9038 399.637 78.8924 399.64 78.8817L399.812 78.2584L399.237 77.7623C399.207 77.7363 399.215 77.699 399.255 77.679C399.267 77.673 399.281 77.669 399.296 77.6677L400.211 77.5837L400.717 77.0583C400.744 77.0303 400.8 77.0223 400.842 77.0396C400.857 77.0456 400.869 77.055 400.876 77.0656Z" fill="#E7EAEE"/>
<path fill-rule="evenodd" clip-rule="evenodd" d="M587.104 49.0742L588.645 50.5066L590.438 49.9312C590.535 49.8999 590.632 49.9758 590.657 50.101C590.664 50.139 590.664 50.1803 590.656 50.2183L590.159 52.5903L591.191 54.7019C591.244 54.8114 591.218 54.9555 591.134 55.0248C591.106 55.0471 591.073 55.0606 591.039 55.0606L589.281 55.074C589.226 55.074 589.175 55.1063 589.14 55.1622L588.05 56.942C587.988 57.0426 587.874 57.0605 587.796 56.98C587.769 56.9532 587.749 56.9175 587.738 56.8761L587.083 54.5265L585.329 53.5712C585.237 53.521 585.194 53.3835 585.233 53.2651C585.245 53.2282 585.264 53.197 585.288 53.1724L586.744 51.7032L586.817 49.2552C586.822 49.1267 586.906 49.0262 587.005 49.0307C587.041 49.0329 587.075 49.0474 587.104 49.0742Z" fill="#B5B5BF"/>
<path fill-rule="evenodd" clip-rule="evenodd" d="M561.893 23.2005C561.666 23.7003 561.171 24.3928 560.595 25.0476L561.092 25.4972L561.666 26.0322L561.794 26.1394C561.85 26.183 561.894 26.2089 561.925 26.2164C562.112 26.2399 562.241 26.3898 562.215 26.553C562.189 26.713 562.018 26.8285 561.832 26.8051C561.665 26.8017 561.052 26.5932 560.324 26.0758C560.192 25.982 560.06 25.874 559.927 25.7551C559.506 26.1654 559.082 26.5179 558.715 26.7364C558.174 27.0621 557.707 27.0881 557.484 26.9558C557.264 26.8277 557.053 26.3965 557.411 25.5248C557.466 25.3666 557.659 25.2837 557.837 25.3331C558.015 25.3825 558.114 25.5483 558.057 25.7057C558.003 25.8673 557.996 26.0155 557.995 26.1335L558.202 26.0105C558.276 25.9644 558.351 25.9125 558.42 25.8522C558.67 25.637 558.949 25.3749 559.23 25.0919C558.786 24.6398 558.332 24.1098 557.966 23.4977C557.786 23.1988 557.644 22.8823 557.509 22.5491C557.415 22.3632 557.511 22.1446 557.725 22.0617C557.939 21.9797 558.189 22.0651 558.283 22.251C558.691 22.9987 559.212 23.6426 559.727 24.1944L559.899 24.3744C560.367 23.8385 560.771 23.2959 560.954 22.8823C561.055 22.657 561.347 22.5449 561.605 22.6311C561.866 22.7207 561.994 22.9752 561.893 23.2005Z" fill="#E7EAEE"/>
<path fill-rule="evenodd" clip-rule="evenodd" d="M190.739 217.404C190.558 218.004 190.162 218.835 189.701 219.62L190.098 220.16L190.558 220.802L190.66 220.931C190.705 220.983 190.74 221.014 190.765 221.023C190.915 221.051 191.018 221.231 190.997 221.427C190.976 221.619 190.839 221.758 190.691 221.729C190.557 221.725 190.067 221.475 189.484 220.854C189.379 220.742 189.273 220.612 189.166 220.469C188.83 220.962 188.49 221.385 188.197 221.647C187.764 222.038 187.39 222.069 187.212 221.91C187.036 221.757 186.868 221.239 187.154 220.193C187.198 220.003 187.352 219.904 187.495 219.963C187.637 220.022 187.716 220.221 187.671 220.41C187.627 220.604 187.622 220.782 187.621 220.924L187.787 220.776C187.846 220.721 187.906 220.658 187.961 220.586C188.161 220.328 188.385 220.013 188.609 219.674C188.253 219.131 187.891 218.495 187.597 217.761C187.454 217.402 187.34 217.022 187.232 216.622C187.157 216.399 187.234 216.137 187.405 216.037C187.576 215.939 187.776 216.041 187.851 216.265C188.178 217.162 188.595 217.934 189.007 218.597L189.144 218.813C189.519 218.17 189.842 217.518 189.988 217.022C190.069 216.752 190.303 216.617 190.509 216.721C190.718 216.828 190.82 217.134 190.739 217.404Z" fill="white"/>
<path fill-rule="evenodd" clip-rule="evenodd" d="M119.129 247.626L118.684 247.684C118.283 247.741 117.988 248.264 118.028 248.851C118.051 249.206 118.191 249.504 118.386 249.671L118.309 249.752C117.979 250.092 117.901 250.759 118.134 251.241C118.367 251.723 118.823 251.838 119.153 251.497L119.904 250.719C119.882 250.971 119.863 251.231 119.847 251.5L119.774 252.843C119.74 253.431 120.04 253.948 120.442 253.996C120.844 254.045 121.197 253.608 121.231 253.02L121.321 251.412C121.344 251.068 121.373 250.746 121.409 250.441C121.665 251.153 121.716 251.702 121.662 252.22L121.641 252.397L121.632 252.506C121.604 253.046 121.861 253.539 122.234 253.635C122.631 253.738 123.01 253.35 123.081 252.769L123.105 252.561C123.183 251.84 123.147 251.114 122.947 250.307C123.052 250.417 123.142 250.54 123.222 250.673L123.301 250.81L123.352 250.89C123.617 251.268 124.041 251.298 124.331 250.942C124.64 250.563 124.68 249.888 124.421 249.436L124.328 249.275C124.296 249.22 124.262 249.166 124.227 249.113C124.609 249.146 124.947 248.739 124.994 248.177C125.044 247.591 124.759 247.057 124.358 246.985C123.669 246.861 123.067 246.834 122.513 246.907C122.711 246.564 122.942 246.217 123.21 245.851C123.505 245.448 123.522 244.772 123.246 244.34C122.971 243.908 122.509 243.885 122.213 244.287C121.718 244.962 121.324 245.604 121.01 246.255C120.888 246.067 120.761 245.874 120.627 245.675L120.311 245.215C120.022 244.801 119.56 244.807 119.277 245.229C118.994 245.65 118.999 246.327 119.287 246.74C119.487 247.028 119.671 247.299 119.841 247.556C119.615 247.574 119.377 247.596 119.129 247.626Z" fill="#B5B5BF"/>
</svg>
